<svg width="100" height="100" viewBox="0 0 100 100" fill="none" xmlns="http://www.w3.org/2000/svg">
<g clip-path="url(#clip0_689_7944)">
<path d="M99.2409 32.226L86.5553 19.5404C85.992 18.9771 85.0789 18.9771 84.5153 19.5404C83.952 20.1037 83.952 21.017 84.5153 21.5803L96.9967 34.0617L88.9684 42.09L69.0518 22.173L77.0799 14.1447L79.7328 16.7977C80.2959 17.3611 81.2092 17.3609 81.7727 16.7977C82.336 16.2344 82.336 15.3211 81.7725 14.7578L78.9159 11.9012C78.4254 11.4107 77.7735 11.1406 77.0799 11.1406C76.3866 11.1406 75.7344 11.4105 75.2438 11.9012L66.808 20.3371C66.3174 20.8275 66.0471 21.4795 66.0471 22.1732C66.0471 22.482 66.1036 22.7816 66.2063 23.0635L62.8545 26.4152C62.3655 26.9043 61.6911 27.1609 60.9985 27.1143L43.3371 25.9645C41.4858 25.8447 39.742 26.6502 38.6338 28.0695C38.0401 27.717 37.4928 27.2918 36.9989 26.7977L33.7928 23.5916C34.126 22.6729 33.9278 21.6029 33.1924 20.8674L24.7561 12.4311C24.2657 11.9406 23.6135 11.6707 22.9201 11.6707C22.2266 11.6707 21.5746 11.9408 21.0842 12.4313L0.759204 32.7559C-0.252905 33.7682 -0.252905 35.4152 0.759204 36.4275L9.19553 44.8637C9.68596 45.3541 10.3379 45.6242 11.0315 45.6242C11.7248 45.6242 12.377 45.3543 12.8676 44.8637L31.9266 25.8047L34.959 28.8371C35.6494 29.5275 36.418 30.1164 37.2528 30.6014L36.2862 32.5602C36.1303 32.876 35.9295 33.167 35.6893 33.425L30.4897 39.0074C29.8342 39.7111 29.5557 40.6941 29.7446 41.6373C29.9332 42.5803 30.5694 43.3805 31.4453 43.7773L33.6459 44.7748C34.5418 45.1084 35.4959 45.2494 36.4205 45.2545C38.3338 45.2545 40.21 44.5945 41.7379 43.3336L45.9705 39.8404C46.0856 39.7457 46.2403 39.7094 46.385 39.7426L58.9119 42.6383C59.0403 42.668 59.169 42.6947 59.2977 42.7203L59.4948 43.4355C59.7401 44.3242 60.2139 45.1385 60.8657 45.7902L80.1688 65.0934C80.7311 65.6559 80.7311 66.5709 80.1688 67.1332L77.4952 69.8068C77.2229 70.0793 76.8606 70.2293 76.4752 70.2293C76.0899 70.2293 75.7278 70.0793 75.4553 69.8068L73.2989 67.6502C73.2985 67.6498 73.2981 67.6494 73.2977 67.649L71.0358 65.3873C70.4723 64.8238 69.5592 64.824 68.9957 65.3873C68.4325 65.9506 68.4325 66.8639 68.9959 67.4271L71.8854 70.3166C72.4479 70.8791 72.4479 71.7941 71.8854 72.3566L69.2118 75.0303C68.9395 75.3027 68.5772 75.4527 68.1918 75.4527C67.8065 75.4527 67.4444 75.3027 67.1719 75.0303L57.1252 64.9836C56.6676 64.5258 55.9789 64.44 55.4344 64.7262C55.3088 64.7922 55.1909 64.8779 55.0852 64.9836C54.5219 65.5469 54.5219 66.4602 55.0852 67.0234L63.5707 75.509C64.1325 76.0715 64.1323 76.9859 63.57 77.5482L60.8965 80.2217C60.334 80.7838 59.419 80.7844 58.8565 80.2217L50.3717 71.7369C49.8082 71.1736 48.8951 71.1736 48.3317 71.7369C48.2801 71.7885 48.235 71.8438 48.1928 71.9006L47.2512 70.9592H47.2514C46.7834 70.4912 46.2252 70.1482 45.6182 69.9367C45.7744 69.4859 45.8604 69.009 45.8604 68.5178C45.8604 67.3619 45.4102 66.2752 44.5928 65.4578L41.9192 62.7844H41.9194C41.102 61.967 40.0153 61.5168 38.8594 61.5168C38.3674 61.5168 37.8895 61.6031 37.4379 61.7598C37.2305 61.1631 36.8938 60.6016 36.418 60.1258L33.7444 57.4523C32.2815 55.9897 30.024 55.7975 28.3496 56.8711C28.1403 56.401 27.8477 55.9594 27.4627 55.5744L24.7891 52.9008H24.7889C24.0039 52.1158 22.9698 51.674 21.8653 51.64C21.7895 51.5604 17.9955 47.7607 17.9955 47.7607C17.4323 47.1975 16.5192 47.1975 15.9555 47.7607C15.3922 48.324 15.3922 49.2373 15.9555 49.8006L18.8721 52.7172C18.8039 52.7775 18.7344 52.8361 18.6696 52.901L16.4219 55.1482C14.4184 57.152 14.4182 60.4123 16.4221 62.4164L17.9473 63.9414C18.918 64.9123 20.2084 65.4467 21.5815 65.4467C21.6119 65.4467 21.6422 65.4449 21.6725 65.4445C21.6719 65.475 21.6703 65.5051 21.6703 65.5355C21.6703 66.9084 22.2049 68.1988 23.1756 69.1695L24.701 70.6949C25.7028 71.6967 27.019 72.1977 28.335 72.1977C28.3383 72.1977 28.3416 72.1975 28.345 72.1975C28.3211 73.4924 28.8008 74.7949 29.7867 75.7809L31.5965 77.5906C32.5291 78.5232 33.7692 79.0371 35.0883 79.0371C35.1182 79.0371 35.1477 79.0355 35.1774 79.035C35.1774 79.0375 35.1772 79.04 35.1772 79.0426C35.1772 80.4154 35.7117 81.7059 36.6824 82.6766L38.2076 84.2018C39.1785 85.1725 40.469 85.707 41.8418 85.707C43.1612 85.707 44.4035 85.2121 45.36 84.3121L48.6416 87.5938C49.459 88.4111 50.5457 88.8613 51.7016 88.8613C52.8575 88.8613 53.9442 88.4111 54.7616 87.5938L57.435 84.9203C57.9037 84.4516 58.2469 83.8926 58.4584 83.2846C58.9172 83.443 59.3961 83.5271 59.8764 83.5271C60.9848 83.5271 62.0928 83.1055 62.9366 82.2617L65.6102 79.5881C66.0647 79.1336 66.3924 78.6012 66.602 78.0344C67.1018 78.2316 67.6383 78.3377 68.1918 78.3377C69.3477 78.3377 70.4344 77.8875 71.2518 77.0701L73.9254 74.3965C74.3848 73.9371 74.7145 73.398 74.9237 72.8244C75.4127 73.0121 75.9358 73.1141 76.4752 73.1141C77.6311 73.1141 78.7178 72.6639 79.5352 71.8465L82.2088 69.1729C83.8957 67.4857 83.8957 64.7402 82.2088 63.0531L77.569 58.4133L80.2909 53.5586C80.7436 52.7518 81.3045 52.0109 81.9584 51.357L88.3094 45.0061C88.5252 45.0623 88.7465 45.0932 88.9684 45.0932C89.6332 45.0932 90.2981 44.84 90.8043 44.334L99.2407 35.8977C100.253 34.8854 100.253 33.2383 99.2409 32.226ZM11.0313 42.6199L3.00315 34.5916L22.9201 14.6746L30.9483 22.7029L11.0313 42.6199ZM21.5817 62.5615C20.9795 62.5615 20.4135 62.3271 19.9875 61.9012L18.4623 60.3762C17.5834 59.4971 17.5834 58.0668 18.4621 57.1879L20.7098 54.9406C20.9821 54.6682 21.3442 54.5182 21.7297 54.5182C22.1149 54.5182 22.4772 54.6682 22.7496 54.9406L25.4233 57.6143C25.9856 58.1766 25.9858 59.0912 25.4237 59.6537L23.176 61.9014C22.75 62.3271 22.1838 62.5615 21.5817 62.5615ZM26.741 68.6549L25.2157 67.1295C24.7899 66.7037 24.5555 66.1377 24.5555 65.5355C24.5555 64.9334 24.7899 64.3674 25.2158 63.9414L29.6647 59.4924C30.2274 58.9299 31.1422 58.9299 31.7049 59.4924L34.3783 62.1658C34.9407 62.7281 34.9408 63.643 34.3787 64.2053L29.9264 68.6574C29.0471 69.5336 27.619 69.5328 26.741 68.6549ZM36.5407 75.5504C35.7762 76.3471 34.4012 76.3471 33.6367 75.5504L31.827 73.7406C31.0266 72.94 31.0266 71.6375 31.827 70.8369L37.8401 64.824C38.3768 64.2645 39.343 64.2645 39.8797 64.824H39.8799L42.5535 67.4977C42.8258 67.7701 42.976 68.1322 42.976 68.5176C42.976 68.9027 42.826 69.265 42.5534 69.5375L36.5407 75.5504ZM41.842 82.8221C41.2399 82.8221 40.6739 82.5875 40.2481 82.1617L38.7227 80.6363C38.2969 80.2105 38.0625 79.6445 38.0625 79.0424C38.0625 78.4406 38.2965 77.875 38.7221 77.4492L43.1723 72.999C43.709 72.4395 44.6752 72.4395 45.2119 72.999H45.2121L47.8856 75.6725C48.4481 76.235 48.4481 77.15 47.8856 77.7125L43.4364 82.1617C43.0102 82.5875 42.4442 82.8221 41.842 82.8221ZM55.3951 82.8801L52.7215 85.5537C52.4493 85.8262 52.0869 85.9762 51.7016 85.9762C51.3164 85.9762 50.9541 85.8262 50.6817 85.5537L47.4028 82.2748L49.9252 79.7525C50.784 78.8938 51.2032 77.7607 51.1875 76.6328L55.3963 80.8416C55.668 81.1139 55.8176 81.4756 55.8176 81.8604C55.8178 82.2453 55.6678 82.6076 55.3951 82.8801ZM79.9186 49.3172C79.078 50.158 78.3567 51.1102 77.7748 52.1475L75.4498 56.2939L62.9059 43.75C62.6752 43.5193 62.4944 43.2438 62.3713 42.943C63.5973 42.8801 64.8133 42.6377 65.9834 42.2148C66.7327 41.9441 67.1205 41.1172 66.8498 40.368C66.5791 39.6187 65.7522 39.2309 65.003 39.5016C63.2545 40.1334 61.3725 40.2457 59.5616 39.8273L47.0344 36.9316C46.0213 36.6977 44.9366 36.9531 44.134 37.615L39.9012 41.1084C38.4586 42.2992 36.5428 42.6725 34.7612 42.1129L32.6356 41.1496C32.5793 41.15 32.5479 40.9947 32.6002 40.9734L32.6916 40.8752L37.7998 35.3908C38.2319 34.9272 38.5928 34.4039 38.8729 33.8359L40.6145 30.3064C41.0875 29.3477 42.085 28.7723 43.1494 28.8426L60.8108 29.9924C62.3301 30.0904 63.818 29.5307 64.8944 28.4545L68.0739 25.275L86.017 43.218L79.9186 49.3172Z" fill="url(#paint0_linear_689_7944)"/>
</g>
<defs>
<linearGradient id="paint0_linear_689_7944" x1="4.37512" y1="26.6293" x2="114.903" y2="49.4227" gradientUnits="userSpaceOnUse">
<stop stop-color="#0082FF"/>
<stop offset="1" stop-color="#DD3232"/>
</linearGradient>
<clipPath id="clip0_689_7944">
<rect width="100" height="100" fill="white"/>
</clipPath>
</defs>
</svg>
