<svg width="100" height="100" viewBox="0 0 100 100" fill="none" xmlns="http://www.w3.org/2000/svg">
<path d="M62.78 46.4025C62.6077 45.8721 62.1493 45.4857 61.5973 45.4057L54.4913 44.3731L51.3134 37.9338C51.0665 37.4338 50.5573 37.1172 49.9997 37.1172C49.4421 37.1172 48.9329 37.4338 48.686 37.9338L45.5081 44.3731L38.402 45.4057C37.8503 45.4857 37.3917 45.8723 37.2194 46.4025C37.0471 46.9328 37.1909 47.5148 37.5899 47.9041L42.7327 52.9162L41.5188 59.9938C41.4245 60.5432 41.6505 61.0986 42.1014 61.4264C42.5526 61.7539 43.1503 61.7973 43.644 61.5379L50.0001 58.1967L56.3559 61.5381C56.5704 61.6508 56.8044 61.7063 57.0374 61.7063C57.3413 61.7063 57.6434 61.6119 57.8985 61.4264C58.3497 61.0986 58.5757 60.5434 58.4811 59.9938L57.2673 52.9162L62.4095 47.9041C62.8087 47.5148 62.9522 46.9326 62.78 46.4025ZM54.6708 51.3561C54.3255 51.6928 54.168 52.1775 54.2497 52.6527L55.0921 57.5641L50.6817 55.2453C50.4682 55.1332 50.2343 55.0772 50.0001 55.0772C49.7659 55.0772 49.5319 55.1332 49.3184 55.2453L44.9081 57.5641L45.7505 52.6527C45.8321 52.1775 45.6745 51.6928 45.3294 51.3561L41.761 47.8781L46.6919 47.1615C47.169 47.0924 47.5815 46.7926 47.7948 46.3602L50.0001 41.8918L52.2053 46.3602C52.4188 46.7926 52.8311 47.0922 53.3083 47.1615L58.2391 47.8781L54.6708 51.3561Z" fill="url(#paint0_linear_689_7887)"/>
<path d="M86.2171 43.7434C86.0448 43.2129 85.5864 42.8266 85.0344 42.7465L81.2821 42.2012L79.6038 38.801C79.3569 38.301 78.8477 37.9844 78.2901 37.9844C77.7325 37.9844 77.2233 38.301 76.9764 38.801L75.2983 42.2012L71.546 42.7465C70.9942 42.8266 70.5356 43.2131 70.3633 43.7434C70.1911 44.2736 70.3348 44.8557 70.7338 45.2449L73.4499 47.8918L72.809 51.6291C72.7147 52.1785 72.9407 52.734 73.3917 53.0617C73.6469 53.2471 73.9491 53.3416 74.2528 53.3416C74.4858 53.3416 74.72 53.2861 74.9342 53.1734L78.2905 51.409L81.6469 53.1734C82.1407 53.433 82.7385 53.3893 83.1895 53.0619C83.6407 52.7342 83.8667 52.1789 83.7721 51.6293L83.1313 47.892L85.8465 45.2449C86.2458 44.8559 86.3893 44.2736 86.2171 43.7434ZM80.5346 46.3316C80.1893 46.6682 80.0319 47.1529 80.1135 47.6281L80.3829 49.199L78.9719 48.4572C78.7585 48.3451 78.5245 48.2891 78.2903 48.2891C78.0561 48.2891 77.8221 48.3451 77.6086 48.4572L76.1979 49.199L76.4672 47.6281C76.5489 47.1529 76.3913 46.6682 76.0461 46.3316L74.9045 45.2189L76.4823 44.9897C76.9594 44.9205 77.3719 44.6207 77.5852 44.1883L78.2905 42.759L78.996 44.1883C79.2094 44.6207 79.6217 44.9203 80.0989 44.9897L81.6762 45.2189L80.5346 46.3316Z" fill="url(#paint1_linear_689_7887)"/>
<path d="M29.6353 51.2434C29.4637 50.7133 29.0053 50.327 28.4535 50.2467L24.7012 49.7014L23.023 46.301C22.7762 45.801 22.267 45.4844 21.7094 45.4844C21.1517 45.4844 20.6426 45.801 20.3957 46.301L18.7174 49.7014L14.965 50.2467C14.4133 50.3268 13.9547 50.7133 13.7824 51.2436C13.6101 51.7738 13.7539 52.3559 14.1529 52.7451L16.8681 55.3918L16.2273 59.1293C16.133 59.6787 16.359 60.2342 16.8099 60.5619C17.2611 60.8894 17.8588 60.9326 18.3525 60.6734L21.709 58.909L25.0652 60.6734C25.2797 60.7861 25.5137 60.8416 25.7467 60.8416C26.0504 60.8416 26.3527 60.7473 26.6078 60.5617C27.059 60.234 27.2849 59.6787 27.1904 59.1291L26.5496 55.3916L29.2648 52.7449C29.664 52.3557 29.8076 51.7734 29.6353 51.2434ZM23.9537 53.8318C23.6084 54.1684 23.451 54.6531 23.5326 55.1283L23.8019 56.6994L22.3912 55.9576C21.9644 55.7336 21.4549 55.7332 21.0279 55.9576L19.617 56.6994L19.8863 55.1283C19.9679 54.6531 19.8103 54.1684 19.4652 53.8318L18.3238 52.7193L19.901 52.49C20.3781 52.4209 20.7906 52.1211 21.0039 51.6887L21.7094 50.2594L22.4146 51.6887C22.6281 52.1211 23.0404 52.4207 23.5176 52.49L25.0947 52.7193L23.9537 53.8318Z" fill="url(#paint2_linear_689_7887)"/>
<path d="M99.5094 26.8258C99.1973 26.5479 98.7824 26.4164 98.3662 26.4645L84.333 28.0916C82.1633 24.6955 79.5064 21.6438 76.4238 19.0111C75.809 18.4857 74.8842 18.5586 74.3588 19.1738C73.8334 19.7889 73.9062 20.7137 74.5215 21.2389C77.015 23.3684 79.2018 25.7975 81.0564 28.4715L76.0289 29.0545C73.0496 25.3596 69.2678 22.2943 65.0441 20.1607C60.3531 17.7912 55.2916 16.5898 50 16.5898C37.1402 16.5898 25.4023 24.0111 19.86 35.5672L14.8246 36.151C20.4828 21.7377 34.3375 12.207 50 12.207C57.0203 12.207 63.8715 14.1441 69.8129 17.8092C70.5014 18.2342 71.4039 18.0201 71.8285 17.3316C72.2533 16.6432 72.0395 15.7406 71.351 15.316C64.9471 11.3654 57.5641 9.27734 50 9.27734C41.2232 9.27734 32.8641 12.0256 25.8258 17.225C19.1822 22.1326 14.2648 28.7928 11.5582 36.5295L1.29609 37.7193C0.557422 37.8053 0 38.4311 0 39.1746V72.0836C0 72.5016 0.178516 72.8996 0.490625 73.1775C0.760352 73.4176 1.10742 73.5484 1.46484 73.5484C1.5209 73.5484 1.57715 73.5451 1.63359 73.5387L15.6699 71.9111C19.2012 77.4313 24.0408 82.0584 29.723 85.327C35.8643 88.8594 42.8758 90.7266 50 90.7266C58.7771 90.7266 67.1371 87.9777 74.1758 82.7772C80.8186 77.8691 85.7352 71.2096 88.4414 63.4738L98.7039 62.284C99.4426 62.1984 100 61.5725 100 60.8289V27.9195C100 27.5018 99.8215 27.1037 99.5094 26.8258ZM50 87.7969C37.4566 87.7969 26.015 81.7555 18.9416 71.532L23.9691 70.949C26.9496 74.6441 30.7318 77.7098 34.9559 79.8432C39.6473 82.2127 44.7088 83.4141 50 83.4141C55.0551 83.4141 59.91 82.3141 64.4307 80.1449C65.16 79.7949 65.4676 78.9199 65.1176 78.1904C64.7676 77.4613 63.8928 77.1535 63.1631 77.5035C59.0414 79.4817 54.6127 80.4844 50 80.4844C41.3187 80.4844 33.2463 76.8916 27.4734 70.5428L76.6285 64.8434C74.5268 68.6051 71.6361 71.9061 68.16 74.4881C67.5105 74.9705 67.3748 75.8879 67.8574 76.5373C68.1449 76.9242 68.5867 77.1287 69.0344 77.1287C69.3381 77.1287 69.6441 77.0348 69.9066 76.8399C74.2709 73.5984 77.7928 69.3221 80.1373 64.4365L85.1756 63.8523C79.5184 78.2662 65.6631 87.7969 50 87.7969ZM97.0703 59.5238L2.92969 70.4393V40.4795L29.1025 37.4447C29.9061 37.3514 30.482 36.6246 30.3889 35.8209C30.2955 35.0172 29.5682 34.4406 28.765 34.5346L23.377 35.1594C28.7254 25.5809 38.9023 19.5195 50 19.5195C58.6813 19.5195 66.7508 23.1131 72.5219 29.4611L34.908 33.8223C34.1045 33.9156 33.5285 34.6424 33.6217 35.4461C33.715 36.2496 34.4418 36.8262 35.2455 36.7324L97.0703 29.5641V59.5238Z" fill="url(#paint3_linear_689_7887)"/>
<path d="M55.4167 26.2329L39.8718 27.8128C39.0667 27.8946 38.4807 28.6132 38.5625 29.4183C38.6444 30.2233 39.363 30.8093 40.168 30.7275L55.7129 29.1476C56.518 29.0657 57.104 28.3471 57.0221 27.5421C56.9403 26.7371 56.2217 26.1511 55.4167 26.2329Z" fill="url(#paint4_linear_689_7887)"/>
<path d="M59.8321 69.6782L44.2872 71.2581C43.4821 71.34 42.8961 72.0586 42.978 72.8636C43.0598 73.6686 43.7784 74.2546 44.5834 74.1728L60.1283 72.5929C60.9334 72.5111 61.5194 71.7925 61.4375 70.9874C61.3557 70.1824 60.6371 69.5964 59.8321 69.6782Z" fill="url(#paint5_linear_689_7887)"/>
<defs>
<linearGradient id="paint0_linear_689_7887" x1="38.2723" y1="42.0174" x2="67.0819" y2="46.8444" gradientUnits="userSpaceOnUse">
<stop stop-color="#0082FF"/>
<stop offset="1" stop-color="#DD3232"/>
</linearGradient>
<linearGradient id="paint1_linear_689_7887" x1="70.9915" y1="41.0449" x2="88.925" y2="44.039" gradientUnits="userSpaceOnUse">
<stop stop-color="#0082FF"/>
<stop offset="1" stop-color="#DD3232"/>
</linearGradient>
<linearGradient id="paint2_linear_689_7887" x1="14.4105" y1="48.5448" x2="32.3432" y2="51.5387" gradientUnits="userSpaceOnUse">
<stop stop-color="#0082FF"/>
<stop offset="1" stop-color="#DD3232"/>
</linearGradient>
<linearGradient id="paint3_linear_689_7887" x1="4.375" y1="25.509" x2="115.308" y2="47.3387" gradientUnits="userSpaceOnUse">
<stop stop-color="#0082FF"/>
<stop offset="1" stop-color="#DD3232"/>
</linearGradient>
<linearGradient id="paint4_linear_689_7887" x1="39.2811" y1="28.4597" x2="50.838" y2="38.0291" gradientUnits="userSpaceOnUse">
<stop stop-color="#0082FF"/>
<stop offset="1" stop-color="#DD3232"/>
</linearGradient>
<linearGradient id="paint5_linear_689_7887" x1="43.6965" y1="71.905" x2="55.2534" y2="81.4745" gradientUnits="userSpaceOnUse">
<stop stop-color="#0082FF"/>
<stop offset="1" stop-color="#DD3232"/>
</linearGradient>
</defs>
</svg>
