<svg width="84" height="84" viewBox="0 0 84 84" fill="none" xmlns="http://www.w3.org/2000/svg">
<g clip-path="url(#clip0_689_7930)">
<path d="M40.5824 32.03C41.1297 32.5497 42.0397 32.4446 42.4557 31.8172L50.6453 19.4574C51.0209 18.8909 50.8658 18.1269 50.2992 17.7514C49.7334 17.3765 48.9694 17.5316 48.5939 18.0975L41.2137 29.2358L37.1127 25.3418C36.6199 24.874 35.8412 24.8945 35.3728 25.3874C34.9049 25.8802 34.9254 26.6588 35.4183 27.1267C35.4176 27.1267 40.5779 32.0261 40.5824 32.03Z" fill="url(#paint0_linear_689_7930)"/>
<path d="M41.4219 50.7966C41.6571 50.9042 41.9173 50.9613 42.1762 50.9613H42.1865C42.4499 50.96 42.7139 50.8998 42.9497 50.787C61.6606 41.8885 64.8316 22.6893 65.3571 17.017C65.4776 15.7218 64.7483 14.5157 63.5428 14.0158C59.8181 12.4694 57.286 9.01126 56.9348 4.99109C56.8265 3.75357 55.769 2.78906 54.5232 2.78906H54.5085L29.3005 2.9371C28.0297 2.94415 26.9972 3.90994 26.8998 5.18335C26.5896 9.2048 24.0947 12.6879 20.3886 14.2734C19.1953 14.7836 18.4839 15.9961 18.6198 17.2907C19.2119 22.9566 22.6079 42.1179 41.4219 50.7966ZM21.3563 16.5357C25.9007 14.5926 28.9621 10.3263 29.3511 5.3974L54.4867 5.25C54.9333 10.168 58.0384 14.3952 62.5994 16.2883C62.8032 16.3736 62.9269 16.5748 62.907 16.7901C62.4136 22.1061 59.4611 40.0306 42.1717 48.4305C24.783 40.2351 21.6229 22.3452 21.0666 17.0349C21.0442 16.8203 21.1608 16.6197 21.3563 16.5357Z" fill="url(#paint1_linear_689_7930)"/>
<path d="M24.4287 23.3553C24.5774 23.9026 25.2714 24.4038 25.9392 24.2198C26.5942 24.0391 26.9819 23.3655 26.8038 22.7099C26.4904 21.5551 26.227 20.3842 26.02 19.2242C29.3627 17.0459 31.8436 13.7948 33.0606 9.99765L50.8306 9.89319C52.0918 13.675 54.6104 16.8979 57.9788 19.0365C57.7859 20.1997 57.536 21.3744 57.2354 22.5337C57.065 23.1919 57.4604 23.8635 58.1179 24.034C58.7767 24.2044 59.4477 23.809 59.6182 23.1509C59.9707 21.7896 60.2578 20.4079 60.4705 19.0442C60.5897 18.2822 60.2411 17.533 59.5836 17.1357C56.4459 15.2406 54.1266 12.2676 53.0531 8.76462C52.8115 7.97699 52.0687 7.42969 51.2446 7.42969H51.2331L32.6286 7.53864C31.7993 7.54376 31.0572 8.10196 30.8246 8.89536C29.7928 12.4105 27.5081 15.4104 24.3928 17.3427C23.7398 17.747 23.4007 18.5001 23.5283 19.2614C23.7577 20.622 24.0602 21.9992 24.4287 23.3553Z" fill="url(#paint2_linear_689_7930)"/>
<path d="M57.1309 27.0039C56.5029 26.7438 55.7838 27.0437 55.5243 27.6717C52.6807 34.5636 48.1793 39.8034 42.141 43.2519C36.0559 39.87 31.4891 34.6745 28.5655 27.8044C28.2989 27.1795 27.576 26.8886 26.9511 27.1546C26.3256 27.4205 26.0347 28.1434 26.3006 28.7683C29.4915 36.2651 34.5185 41.917 41.2419 45.5654C41.5251 45.7199 41.8353 45.7962 42.1448 45.7962C42.4621 45.7962 42.7787 45.716 43.067 45.5552C49.7398 41.8324 54.6963 36.1312 57.7994 28.61C58.0589 27.9819 57.7596 27.2629 57.1309 27.0039Z" fill="url(#paint3_linear_689_7930)"/>
<path d="M83.1175 53.7039C81.5403 51.3865 78.3648 50.7726 76.0391 52.335L59.9533 63.101L56.5195 62.9081L56.4317 62.0288C56.0895 58.5854 53.4575 55.8418 50.0314 55.3573C50.0096 55.3541 49.9884 55.3516 49.9666 55.3496L32.6337 53.8308C32.0473 53.7391 30.1702 53.2002 25.0125 50.2419C22.3317 48.7045 19.3113 47.8367 16.2428 47.7188V44.4997C16.2428 42.8841 14.929 41.5703 13.3134 41.5703H2.92941C1.31442 41.5703 0 42.8847 0 44.4997V76.2042C0 77.8192 1.31442 79.1336 2.92941 79.1336H13.3134C14.9284 79.1336 16.2428 77.8192 16.2428 76.2042V75.3307L31.3943 81.0684C31.4276 81.0812 32.658 81.5413 34.9203 81.3279C34.9267 81.3273 60.0956 77.6987 60.0956 77.6987C60.102 77.698 60.1078 77.6968 60.1142 77.6955C62.2649 77.3526 64.2933 76.4432 65.9807 75.0673C65.9961 75.0544 66.0108 75.0416 66.0255 75.0288L82.285 60.4048C84.2012 58.7033 84.5595 55.8226 83.1175 53.7039ZM80.645 58.57L64.4029 73.1786C63.0583 74.2687 61.4446 74.9897 59.7348 75.264L34.5781 78.8907C34.5723 78.8913 34.564 78.8926 34.5563 78.8939C34.5525 78.8945 34.548 78.8952 34.5441 78.8958C33.7917 79.0144 33.008 78.9644 32.2139 78.7471L16.2428 72.6993V58.6469C16.2428 57.967 15.6917 57.4164 15.0124 57.4164C14.3324 57.4164 13.7819 57.967 13.7819 58.6469V76.2042C13.7819 76.4624 13.5717 76.6726 13.3134 76.6726H2.92941C2.67114 76.6726 2.46094 76.4624 2.46094 76.2042V44.4997C2.46094 44.2415 2.67114 44.0313 2.92941 44.0313H13.3134C13.5717 44.0313 13.7819 44.2415 13.7819 44.4997V53.0887C13.7819 53.7686 14.333 54.3191 15.0124 54.3191C15.6923 54.3191 16.2428 53.768 16.2428 53.0887V50.1823C18.8826 50.299 21.4794 51.0526 23.7878 52.3773C30.0087 55.945 31.7461 56.1911 32.3171 56.2719C32.3389 56.2751 32.36 56.277 32.3818 56.2795L49.7167 57.7984C52.002 58.1361 53.7542 59.9716 53.983 62.2723L54.0483 62.9279L30.8405 64.3609C30.8245 64.3596 30.8085 64.3583 30.7944 64.3571C30.042 64.2891 29.3627 63.9334 28.8801 63.3554C28.445 62.8331 27.6689 62.7626 27.1472 63.1984C26.6249 63.6335 26.5544 64.4096 26.9902 64.9313C27.8932 66.0143 29.1672 66.6623 30.5752 66.8084C31.3353 66.8878 55.4019 65.31 55.4019 65.31L60.2263 65.5811C60.4929 65.5965 60.7576 65.5234 60.9793 65.3748L77.4099 54.3787C78.6167 53.568 80.2644 53.8859 81.0828 55.0882C81.8307 56.1879 81.6448 57.6824 80.645 58.57Z" fill="url(#paint4_linear_689_7930)"/>
</g>
<defs>
<linearGradient id="paint0_linear_689_7930" x1="35.7268" y1="20.4993" x2="53.4324" y2="23.5287" gradientUnits="userSpaceOnUse">
<stop stop-color="#0082FF"/>
<stop offset="1" stop-color="#DD3232"/>
</linearGradient>
<linearGradient id="paint1_linear_689_7930" x1="20.6493" y1="12.3891" x2="73.2642" y2="20.5761" gradientUnits="userSpaceOnUse">
<stop stop-color="#0082FF"/>
<stop offset="1" stop-color="#DD3232"/>
</linearGradient>
<linearGradient id="paint2_linear_689_7930" x1="25.1201" y1="10.7834" x2="63.0389" y2="24.1426" gradientUnits="userSpaceOnUse">
<stop stop-color="#0082FF"/>
<stop offset="1" stop-color="#DD3232"/>
</linearGradient>
<linearGradient id="paint3_linear_689_7930" x1="27.5886" y1="30.6739" x2="61.6423" y2="39.8325" gradientUnits="userSpaceOnUse">
<stop stop-color="#0082FF"/>
<stop offset="1" stop-color="#DD3232"/>
</linearGradient>
<linearGradient id="paint4_linear_689_7930" x1="3.675" y1="49.5047" x2="90.5348" y2="78.8768" gradientUnits="userSpaceOnUse">
<stop stop-color="#0082FF"/>
<stop offset="1" stop-color="#DD3232"/>
</linearGradient>
<clipPath id="clip0_689_7930">
<rect width="84" height="84" fill="white"/>
</clipPath>
</defs>
</svg>
