<svg width="84" height="84" viewBox="0 0 84 84" fill="none" xmlns="http://www.w3.org/2000/svg">
<g clip-path="url(#clip0_689_7956)">
<path d="M82.2646 63.7665C83.4944 63.5505 84.3198 62.3816 84.1026 61.1441L83.2829 56.5048C83.0631 55.2506 81.8679 54.4534 80.6605 54.6687L75.879 55.5115C75.6732 55.1167 75.4509 54.7296 75.2105 54.3553L78.3322 50.6345C79.1346 49.6776 79.009 48.2479 78.0534 47.4448L74.444 44.4161C73.4872 43.6137 72.0574 43.7393 71.2544 44.6949L68.1347 48.4138C67.7232 48.2427 67.3016 48.0902 66.8773 47.9556V43.1023C66.8773 41.8533 65.8622 40.8381 64.6131 40.8381H59.9021C58.653 40.8381 57.6385 41.8533 57.6385 43.1023V47.9556C57.2117 48.0902 56.7939 48.2427 56.3811 48.4138L53.2607 44.6949C52.5346 43.8291 51.2952 43.6451 50.3563 44.2123V39.7903L51.3965 40.1684C52.4776 40.5613 53.7004 40.0088 54.1003 38.9059L55.4634 35.1607C55.7576 35.169 56.046 35.169 56.3395 35.1607L57.7026 38.9078C58.1012 40.0005 59.3138 40.5645 60.4064 40.1684L64.1651 38.8002C65.2578 38.4041 65.8263 37.1954 65.4277 36.0944L64.0639 32.3492C64.2927 32.1684 64.517 31.9813 64.7323 31.7871L68.186 33.7809C69.1928 34.3615 70.4867 34.0148 71.0686 33.008L73.0687 29.5447C73.6519 28.5334 73.3078 27.2466 72.2958 26.6614L68.8441 24.6677C68.9037 24.3825 68.9556 24.0954 68.9954 23.807L72.9213 23.1136C74.0672 22.9117 74.8356 21.8229 74.6331 20.6706L73.9384 16.7312C73.7359 15.5853 72.6394 14.8156 71.4948 15.0194L67.5688 15.7109C67.431 15.4539 67.2849 15.2021 67.1311 14.9528L69.6933 11.8997C70.4418 11.0089 70.3239 9.67521 69.4331 8.92731L66.3697 6.35614C65.477 5.60825 64.1433 5.72425 63.3974 6.61634L60.8345 9.66816C60.5641 9.55921 60.2885 9.45923 60.0117 9.36823V5.38394C60.0117 4.22141 59.0645 3.2742 57.9019 3.2742H53.901C52.7384 3.2742 51.7912 4.22141 51.7912 5.38394V9.36823C51.5144 9.45923 51.2388 9.55921 50.9683 9.66816L48.4074 6.61634C47.6595 5.72425 46.3259 5.60825 45.4351 6.35614L42.3698 8.92731C41.4796 9.67521 41.363 11.0089 42.1096 11.8997L44.6724 14.9528C44.518 15.2021 44.3719 15.4539 44.2341 15.7109L40.31 15.0194C39.2693 14.8355 38.0984 15.4334 37.8421 16.8606C37.1268 16.4806 36.3905 16.1371 35.6343 15.834L40.9105 1.67844C41.2156 0.86261 40.6087 0 39.7461 0H14.053C13.1814 0 12.586 0.870301 12.8872 1.67844L18.1597 15.8224C15.2322 16.9946 12.5469 18.7666 10.2565 21.0718C9.77196 21.5595 9.77517 22.3478 10.2629 22.8316C10.7486 23.3161 11.5369 23.3142 12.0208 22.8265C18.871 15.9262 29.3319 14.7714 37.3858 19.4517C37.1756 20.6386 36.9109 21.3781 37.5203 22.2465C37.8433 22.7092 38.3278 23.0162 38.8815 23.1136L42.6537 23.7807L42.8082 23.807C42.8165 23.8685 42.8261 23.9301 42.8364 23.9909C42.871 24.2185 42.9126 24.444 42.9588 24.6677L39.507 26.6614C38.4983 27.2453 38.1503 28.5296 38.7361 29.5428L40.7343 33.008C41.3169 34.0148 42.6108 34.3615 43.6176 33.7809C43.6483 33.7629 47.0398 31.8051 47.0706 31.7871C47.2878 31.9813 47.5102 32.1684 47.7409 32.3492C47.3212 33.5047 47.5955 32.751 46.3759 36.0963C45.9766 37.1941 46.5463 38.4041 47.6377 38.8002L47.8685 38.8848V44.8807C47.8685 44.8987 47.8704 44.9185 47.8704 44.9371C47.8736 44.9986 47.8954 45.4479 47.9883 46.1644L46.4618 47.4448C45.5069 48.2479 45.3806 49.6776 46.1836 50.6345L49.3053 54.3553C49.0643 54.7296 48.8419 55.1167 48.6362 55.5115L43.8547 54.6687C42.6358 54.4521 41.4502 55.2603 41.2323 56.5048L40.8971 58.3973H32.6901C32.0031 58.3973 31.4462 58.9549 31.4462 59.6412C31.4462 60.3282 32.0031 60.8852 32.6901 60.8852H40.4594C40.1614 62.5463 41.1079 63.5659 42.2487 63.7665L47.0328 64.6105C47.0904 65.0534 47.1667 65.4917 47.2628 65.9262L43.0581 68.3545C41.9757 68.9781 41.6033 70.3662 42.2307 71.446L44.5859 75.5265C45.2095 76.6083 46.5983 76.9793 47.6781 76.3558L51.8861 73.9275C52.2142 74.2274 52.5545 74.5145 52.9076 74.785L51.2471 79.3499C50.8152 80.5361 51.4336 81.8281 52.5994 82.2511L57.0278 83.8629C58.1858 84.2865 59.497 83.6937 59.929 82.5094L61.5895 77.9451C62.0368 77.965 62.4784 77.965 62.9263 77.9451L64.5862 82.5094C65.0143 83.6822 66.3146 84.291 67.4874 83.8629L71.9165 82.2511C73.0886 81.8243 73.6961 80.5227 73.2693 79.3499L71.6076 74.785C71.9607 74.5145 72.301 74.2274 72.6291 73.9275L76.8377 76.3558C77.9176 76.9793 79.3057 76.6083 79.9292 75.5265L82.2864 71.446C82.9099 70.3649 82.5382 68.9781 81.4571 68.3545L77.2523 65.9262C77.3485 65.4917 77.4247 65.0534 77.4824 64.6105L82.2646 63.7665ZM20.5168 15.0213L15.8442 2.48785H37.9548L33.2803 15.0277C29.2204 13.8787 24.7465 13.83 20.5168 15.0213ZM46.638 29.1628C46.0586 29.4992 46.688 29.1352 42.6998 31.4372L41.0797 28.627C45.1903 26.2519 44.5981 26.5935 45.014 26.3551C45.5081 26.0693 45.7453 25.4823 45.5863 24.9317C45.3678 24.173 45.2377 23.4013 45.1883 22.6624C45.1518 22.0901 44.7288 21.6191 44.163 21.5198L43.9162 21.4768L39.6865 20.7302C40.2017 17.8085 40.0889 18.4481 40.2504 17.5355L44.7237 18.3237C45.2896 18.4231 45.8465 18.1264 46.0772 17.6021C46.3893 16.9004 46.7771 16.2287 47.2314 15.6065C47.5698 15.1457 47.5499 14.5118 47.1821 14.0722L44.2591 10.591L46.7437 8.50562L49.6648 11.9855C50.0333 12.4252 50.6537 12.5546 51.1677 12.3028C51.8579 11.9625 52.5859 11.6971 53.3325 11.5145C53.8881 11.3786 54.2791 10.8794 54.2791 10.3071V5.76206H57.5238V10.3071C57.5238 10.8794 57.9154 11.3786 58.471 11.5145C59.217 11.6971 59.9456 11.9625 60.6352 12.3028C61.1498 12.5546 61.7702 12.4252 62.1381 11.9855L65.0591 8.50562L67.5438 10.591L64.6227 14.0722C64.2549 14.5118 64.2331 15.1457 64.5714 15.6065C65.0277 16.2287 65.4155 16.9004 65.7257 17.6021C65.9564 18.1264 66.5139 18.4231 67.0792 18.3237L71.5544 17.5355L72.117 20.7302L67.6399 21.5198C67.076 21.6191 66.6517 22.0901 66.6152 22.6624C66.5633 23.4321 66.4293 24.1967 66.2172 24.9317C66.0576 25.4823 66.2947 26.0693 66.7908 26.3551L70.7251 28.627L69.103 31.4372L65.1655 29.1628C64.6695 28.8763 64.0421 28.9654 63.646 29.3787C63.1122 29.9344 62.5181 30.4336 61.8811 30.8617C61.4049 31.1815 61.2094 31.782 61.4049 32.3197L62.959 36.5904L59.9104 37.7004C57.4616 30.97 58.6383 33.0291 54.7469 32.6177C54.1797 32.5568 53.6427 32.892 53.4466 33.429L51.8925 37.7004C50.0455 37.0282 50.7197 37.2736 48.8439 36.5904C50.1865 32.8984 49.8699 33.7681 50.398 32.3197C50.5941 31.782 50.398 31.1815 49.9237 30.8617C49.3175 30.4548 48.7054 29.9491 48.1569 29.3787C47.7608 28.9654 47.134 28.8763 46.638 29.1628ZM80.019 70.3963L77.8874 74.0883C70.4886 69.8176 73.2392 70.7276 69.4235 73.2937C68.9486 73.6122 68.7512 74.2146 68.9473 74.7516L70.8545 79.9901L66.8472 81.4481L64.9412 76.2096C64.7605 75.7142 64.2914 75.3906 63.7736 75.3906C63.7287 75.3906 63.6838 75.3938 63.6409 75.397C62.7206 75.4963 61.7946 75.4963 60.8743 75.397C60.3052 75.3374 59.7694 75.6726 59.5739 76.2096L57.668 81.4481L53.6606 79.9901L55.5679 74.7516C55.764 74.2146 55.5666 73.6122 55.0923 73.2937C54.3278 72.7797 53.6158 72.1824 52.9775 71.5159C52.5808 71.1025 51.9521 71.0147 51.458 71.2999L46.6277 74.0883L44.4962 70.3963L49.3232 67.6111C49.8173 67.3246 50.0545 66.7369 49.8955 66.1864C49.6398 65.3059 49.4809 64.3901 49.4194 63.4659C49.3816 62.8956 48.9586 62.4226 48.3946 62.3233L42.9024 61.3562C43.5048 57.9346 43.2741 59.2433 43.6419 57.1566L49.131 58.1249C49.6949 58.2249 50.2538 57.9263 50.4845 57.402C50.8421 56.5933 51.3176 55.7601 51.8675 55.0116C52.2059 54.5489 52.1847 53.9157 51.8162 53.4773C48.2825 49.2656 48.9028 50.0051 48.2338 49.2066C48.8554 48.6824 50.8357 47.0219 51.4996 46.4662L55.0821 50.7357C55.4487 51.1734 56.071 51.3048 56.583 51.051C57.411 50.6447 58.2832 50.3275 59.1792 50.107C59.7348 49.9712 60.1264 49.4719 60.1264 48.8996V43.3266H64.3888V48.8996C64.3888 49.4719 64.7804 49.9712 65.336 50.107C66.2319 50.3275 67.1042 50.6447 67.9322 51.051C68.4461 51.3048 69.0665 51.1734 69.4331 50.7357L73.0162 46.4662L76.2821 49.2066L72.699 53.4773C72.3311 53.9157 72.3093 54.5489 72.6477 55.0116C73.1931 55.7569 73.6596 56.5612 74.0307 57.402C74.2614 57.9263 74.8202 58.2249 75.3842 58.1249L80.8732 57.1566L81.6128 61.3562L76.1212 62.3233C75.5572 62.4226 75.1343 62.8956 75.0958 63.4659C74.7888 68.0924 72.6451 66.1416 80.019 70.3963Z" fill="url(#paint0_linear_689_7956)"/>
<path d="M70.1432 54.5342C63.0923 47.484 51.1055 52.5763 51.1055 62.4201C51.1055 65.3989 52.2655 68.1994 54.372 70.306C59.9021 75.8354 69.2248 74.0884 72.4215 67.0164C72.7041 66.3903 72.4259 65.6533 71.8005 65.3707C71.1743 65.0874 70.4373 65.3655 70.1541 65.9917C69.7247 66.9421 69.1293 67.8015 68.384 68.5462C62.9795 73.9512 53.5934 70.1701 53.5934 62.4201C53.5934 54.7764 62.9033 50.8133 68.384 56.2934C69.8452 57.7546 70.7373 59.6926 70.8962 61.7497C70.9487 62.4342 71.5467 62.9488 72.2318 62.8937C72.9169 62.8411 73.4295 62.2432 73.3764 61.5581C73.1726 58.9101 72.0241 56.4152 70.1432 54.5342Z" fill="url(#paint1_linear_689_7956)"/>
<path d="M57.2507 57.4142C54.4905 60.175 54.4905 64.6669 57.2507 67.4271V67.4277C60.0109 70.1873 64.5034 70.188 67.2643 67.4271C70.0251 64.6669 70.0251 60.1744 67.2643 57.4142C64.5034 54.6533 60.0116 54.6539 57.2507 57.4142ZM65.5051 65.6679C63.7145 67.4585 60.8011 67.4585 59.0099 65.6679C57.2199 63.8773 57.2199 60.9639 59.0099 59.1733C60.8005 57.3828 63.7145 57.3821 65.5051 59.1733C67.2957 60.9639 67.2957 63.8773 65.5051 65.6679Z" fill="url(#paint2_linear_689_7956)"/>
<path d="M62.7302 14.9556C58.9452 11.1738 52.8403 11.1892 49.0746 14.9556C46.2201 17.81 45.5299 22.0211 47.0045 25.5312C48.4407 28.9829 51.8861 31.4362 55.9017 31.4362C64.4727 31.4362 68.7948 21.022 62.7302 14.9556ZM50.8325 16.7154C53.6433 13.9077 58.1736 13.918 60.9704 16.7154C63.7652 19.5102 63.7652 24.0585 60.9704 26.8533C58.1755 29.6481 53.6273 29.6481 50.8325 26.8533C48.0376 24.0585 48.0376 19.5102 50.8325 16.7154Z" fill="url(#paint3_linear_689_7956)"/>
<path d="M59.6982 17.9894C57.6013 15.8893 54.2021 15.8886 52.1045 17.9894C50.0115 20.0825 50.0115 23.4893 52.1045 25.5824C53.1184 26.5963 54.4668 27.1551 55.9017 27.1551C60.6397 27.1551 63.0903 21.3783 59.6982 17.9894ZM53.8631 19.7473C54.9987 18.6149 56.8194 18.6271 57.9403 19.7473C59.7546 21.5642 58.4517 24.6673 55.9017 24.6673C53.3465 24.6673 52.0533 21.5597 53.8631 19.7473Z" fill="url(#paint4_linear_689_7956)"/>
<path d="M27.7138 58.3972H5.16413C3.22678 58.3972 2.00272 56.2637 3.02619 54.5603C5.66529 50.162 5.91907 45.1478 5.92869 44.937V37.6042C5.92869 33.6628 7.02842 29.8214 9.10868 26.4972C9.47334 25.9153 9.29581 25.1469 8.7139 24.7842C8.13135 24.4189 7.36359 24.5945 6.9983 25.179C4.6713 28.8992 3.44083 33.195 3.44083 37.6042V44.8492C3.42096 45.2055 3.12552 49.5583 0.892735 53.2798C-1.13113 56.6508 1.30674 60.885 5.16413 60.885H27.7138C28.4008 60.885 28.9577 60.3281 28.9577 59.6411C28.9577 58.9547 28.4008 58.3972 27.7138 58.3972Z" fill="url(#paint5_linear_689_7956)"/>
<path d="M26.7031 45.849C24.4575 45.849 23.5641 44.8858 22.9117 44.1821C22.5695 43.8136 22.299 43.5226 21.9094 43.5226C21.2563 43.5226 20.6969 44.2968 20.6969 44.9306C20.6969 45.742 21.9273 47.662 25.554 48.2433V51.6123C25.554 52.3544 26.1571 52.9575 26.8992 52.9575C27.6407 52.9575 28.2437 52.3538 28.2437 51.6123V48.2202C31.5045 47.6902 33.1009 45.4433 33.1009 42.1832C33.1009 37.6664 30.0055 36.523 27.5183 35.6047C25.4374 34.8363 23.7942 34.23 23.7942 32.1472C23.7942 29.7664 25.8027 29.2665 27.4875 29.2665C29.082 29.2665 30.0158 29.7471 30.574 30.0336C30.8969 30.2002 31.152 30.3322 31.4122 30.3322C32.2005 30.3322 32.5965 29.4293 32.5965 28.9236C32.5965 27.5278 29.7004 26.9735 28.2444 26.8696V23.4461C28.2444 22.7046 27.6407 22.1016 26.8992 22.1016C26.1577 22.1016 25.554 22.7046 25.554 23.4461V27.0401C22.765 27.6342 21.2019 29.4043 21.2019 32.3157C21.2019 36.0732 23.8858 37.0812 26.2538 37.9701C28.5366 38.8276 30.5086 39.5685 30.5086 42.3518C30.5086 44.6397 29.1929 45.849 26.7031 45.849Z" fill="url(#paint6_linear_689_7956)"/>
</g>
<defs>
<linearGradient id="paint0_linear_689_7956" x1="13.1432" y1="16.74" x2="97.0086" y2="28.6203" gradientUnits="userSpaceOnUse">
<stop stop-color="#0082FF"/>
<stop offset="1" stop-color="#DD3232"/>
</linearGradient>
<linearGradient id="paint1_linear_689_7956" x1="52.08" y1="55.7019" x2="77.1065" y2="59.705" gradientUnits="userSpaceOnUse">
<stop stop-color="#0082FF"/>
<stop offset="1" stop-color="#DD3232"/>
</linearGradient>
<linearGradient id="paint2_linear_689_7956" x1="55.7998" y1="58.1644" x2="71.7012" y2="60.7131" gradientUnits="userSpaceOnUse">
<stop stop-color="#0082FF"/>
<stop offset="1" stop-color="#DD3232"/>
</linearGradient>
<linearGradient id="paint3_linear_689_7956" x1="47.096" y1="15.9734" x2="68.7912" y2="19.4508" gradientUnits="userSpaceOnUse">
<stop stop-color="#0082FF"/>
<stop offset="1" stop-color="#DD3232"/>
</linearGradient>
<linearGradient id="paint4_linear_689_7956" x1="51.0047" y1="18.5546" x2="63.072" y2="20.4888" gradientUnits="userSpaceOnUse">
<stop stop-color="#0082FF"/>
<stop offset="1" stop-color="#DD3232"/>
</linearGradient>
<linearGradient id="paint5_linear_689_7956" x1="1.42355" y1="31.8261" x2="34.0744" y2="35.9782" gradientUnits="userSpaceOnUse">
<stop stop-color="#0082FF"/>
<stop offset="1" stop-color="#DD3232"/>
</linearGradient>
<linearGradient id="paint6_linear_689_7956" x1="21.2395" y1="28.2507" x2="35.4735" y2="29.1678" gradientUnits="userSpaceOnUse">
<stop stop-color="#0082FF"/>
<stop offset="1" stop-color="#DD3232"/>
</linearGradient>
<clipPath id="clip0_689_7956">
<rect width="84" height="84" fill="white"/>
</clipPath>
</defs>
</svg>
