<svg width="84" height="84" viewBox="0 0 84 84" fill="none" xmlns="http://www.w3.org/2000/svg">
<g clip-path="url(#clip0_689_7914)">
<path d="M78.0757 60.0091C77.846 59.3512 77.2242 58.9083 76.527 58.9083C76.3432 58.9083 76.1611 58.9395 75.9872 59.0002C75.1324 59.2987 74.6796 60.2355 74.9782 61.0903C75.5212 62.6489 75.7969 64.2846 75.7969 65.9531C75.7952 69.8955 74.2596 73.6034 71.4722 76.3941C68.6815 79.1815 64.9737 80.7188 61.0312 80.7188C57.0888 80.7188 53.381 79.1815 50.5903 76.3941C47.8029 73.6034 46.2656 69.8955 46.2656 65.9531C46.2656 62.0107 47.8029 58.3029 50.5903 55.5122C53.381 52.7248 57.0888 51.1891 61.0312 51.1875C62.6998 51.1875 64.3371 51.4631 65.8957 52.0078C66.0712 52.0685 66.2534 52.0997 66.4371 52.0997C67.1344 52.0997 67.7562 51.6567 67.9859 50.9988C68.2845 50.1441 67.8316 49.2073 66.9769 48.9087C65.0705 48.2442 63.0705 47.9062 61.0345 47.9062H61.0312C58.5949 47.9062 56.2308 48.3837 54.0061 49.3254C53.2414 49.6488 52.5059 50.0241 51.7993 50.4451L44.6801 48.4381L44.3845 45.1849C48.5412 42.9174 51.5655 38.8142 52.3277 33.9358C57.1412 31.3166 59.8828 27.5651 59.8828 23.543C59.8828 19.709 57.4781 16.1969 53.0919 13.5849C52.5612 10.4465 51.1165 7.53506 48.8659 5.14976C45.7324 1.8288 41.4878 0 36.9141 0C32.3403 0 28.0957 1.8288 24.9623 5.14976C22.7107 7.53605 21.2658 10.4486 20.7354 13.5854C16.3496 16.1972 13.9453 19.7092 13.9453 23.543C13.9453 27.565 16.6868 31.3162 21.4997 33.9353C22.26 38.8126 25.285 42.9169 29.4436 45.1851L29.148 48.4381L17.9478 51.5957C14.1619 52.6923 10.9092 54.9375 8.54126 58.0885C6.17334 61.2396 4.92188 64.9884 4.92188 68.93V82.3594C4.92188 83.2655 5.65638 84 6.5625 84H67.2656C68.1717 84 68.9062 83.2655 68.9062 82.3594V82.1938C70.7162 81.3163 72.3567 80.1491 73.792 78.7137C75.4491 77.0567 76.7501 75.1273 77.659 72.9781C78.6007 70.7534 79.0781 68.3893 79.0781 65.953C79.0781 63.9155 78.7418 61.9172 78.0757 60.0091ZM56.6016 23.543C56.6016 25.8179 55.1811 28.0463 52.6237 29.8897L53.2713 17.6956C55.4154 19.4414 56.6016 21.4883 56.6016 23.543ZM27.3489 7.40152C29.8559 4.74452 33.2528 3.28125 36.9141 3.28125C40.5753 3.28125 43.9722 4.74452 46.4792 7.40152C48.9707 10.0419 50.2269 13.4881 50.0161 17.1134L49.9257 18.8158C44.353 17.2018 40.0183 13.4154 39.9717 13.3744C39.354 12.8264 38.4252 12.8226 37.8031 13.3662C33.1726 17.4129 27.9922 19.319 23.9766 20.2141L23.8115 17.1052C23.6012 13.4881 24.8574 10.0419 27.3489 7.40152ZM17.2266 23.543C17.2266 21.4883 18.4127 19.4414 20.557 17.6958L21.2046 29.8899C18.647 28.0463 17.2266 25.8179 17.2266 23.543ZM24.6159 32.2553L24.1528 23.5326C28.3467 22.6611 33.8369 20.7787 38.8992 16.7263C40.7689 18.1593 44.8234 20.9153 49.7479 22.1678L49.2127 32.2471C48.836 38.7279 43.4337 43.8047 36.9141 43.8047C30.3944 43.8047 24.9921 38.7279 24.6159 32.2553ZM36.9141 47.0859C38.401 47.0859 39.8416 46.8763 41.2079 46.486L41.4456 49.1008L36.9141 53.6919L32.3825 49.1008L32.6202 46.486C33.9865 46.8761 35.4272 47.0859 36.9141 47.0859ZM8.20312 68.93C8.20312 62.3971 12.5856 56.565 18.8495 54.7506L30.1926 51.5529L35.7464 57.1799C36.0547 57.4921 36.4752 57.668 36.9141 57.668C37.3529 57.668 37.7734 57.4921 38.0817 57.1799L43.6355 51.5529L48.5397 52.9354C48.4501 53.0214 48.3584 53.1042 48.2703 53.1923C46.6133 54.8494 45.3123 56.7787 44.4034 58.928C43.4618 61.1527 42.9844 63.5168 42.9844 65.9531C42.9844 68.3895 43.4618 70.7536 44.4035 72.9783C45.3124 75.1275 46.6134 77.0569 48.2705 78.7139C49.0127 79.4561 49.8123 80.1227 50.6591 80.7188H21.7383V69.7266C21.7383 68.8204 21.0038 68.0859 20.0977 68.0859C19.1915 68.0859 18.457 68.8204 18.457 69.7266V80.7188H8.20312V68.93Z" fill="url(#paint0_linear_689_7914)"/>
<path d="M72.6346 55.9961C73.5407 55.9961 74.2752 55.2616 74.2752 54.3555C74.2752 53.4494 73.5407 52.7148 72.6346 52.7148C71.7285 52.7148 70.994 53.4494 70.994 54.3555C70.994 55.2616 71.7285 55.9961 72.6346 55.9961Z" fill="url(#paint1_linear_689_7914)"/>
<path d="M68.0434 59.2241C67.2718 58.7491 66.2612 58.9898 65.7864 59.7616L60.3902 68.5302L56.1136 63.6426C55.5169 62.9608 54.4805 62.8917 53.7985 63.4883C53.1167 64.0849 53.0474 65.1215 53.6441 65.8033L59.3863 72.3658C59.6992 72.7235 60.2186 72.9233 60.6895 72.9233C61.2089 72.8797 61.7452 72.5893 62.0184 72.1453L68.5809 61.4813C69.0557 60.7097 68.815 59.6991 68.0434 59.2241Z" fill="url(#paint2_linear_689_7914)"/>
<path d="M41.3349 38.0943C41.9867 37.465 42.0048 36.4263 41.3754 35.7744C40.7462 35.1226 39.7074 35.1044 39.0556 35.7339C37.8747 36.8742 35.9533 36.8742 34.7724 35.7339C34.1207 35.1046 33.0821 35.1228 32.4526 35.7744C31.8232 36.4263 31.8413 37.4648 32.4931 38.0943C33.7119 39.2713 35.313 39.8598 36.9139 39.8598C38.5148 39.8598 40.1161 39.2714 41.3349 38.0943Z" fill="url(#paint3_linear_689_7914)"/>
<path d="M43.8867 28.875C44.7928 28.875 45.5273 28.1405 45.5273 27.2344C45.5273 26.3283 44.7928 25.5938 43.8867 25.5938C42.9806 25.5938 42.2461 26.3283 42.2461 27.2344C42.2461 28.1405 42.9806 28.875 43.8867 28.875Z" fill="url(#paint4_linear_689_7914)"/>
<path d="M29.9414 28.875C30.8475 28.875 31.582 28.1405 31.582 27.2344C31.582 26.3283 30.8475 25.5938 29.9414 25.5938C29.0353 25.5938 28.3008 26.3283 28.3008 27.2344C28.3008 28.1405 29.0353 28.875 29.9414 28.875Z" fill="url(#paint5_linear_689_7914)"/>
</g>
<defs>
<linearGradient id="paint0_linear_689_7914" x1="8.16621" y1="16.74" x2="91.9384" y2="28.5934" gradientUnits="userSpaceOnUse">
<stop stop-color="#0082FF"/>
<stop offset="1" stop-color="#DD3232"/>
</linearGradient>
<linearGradient id="paint1_linear_689_7914" x1="71.1375" y1="53.3688" x2="74.8238" y2="53.9596" gradientUnits="userSpaceOnUse">
<stop stop-color="#0082FF"/>
<stop offset="1" stop-color="#DD3232"/>
</linearGradient>
<linearGradient id="paint2_linear_689_7914" x1="53.9201" y1="61.7591" x2="71.3213" y2="64.8768" gradientUnits="userSpaceOnUse">
<stop stop-color="#0082FF"/>
<stop offset="1" stop-color="#DD3232"/>
</linearGradient>
<linearGradient id="paint3_linear_689_7914" x1="32.4228" y1="36.1874" x2="42.5653" y2="39.6765" gradientUnits="userSpaceOnUse">
<stop stop-color="#0082FF"/>
<stop offset="1" stop-color="#DD3232"/>
</linearGradient>
<linearGradient id="paint4_linear_689_7914" x1="42.3896" y1="26.2477" x2="46.0759" y2="26.8385" gradientUnits="userSpaceOnUse">
<stop stop-color="#0082FF"/>
<stop offset="1" stop-color="#DD3232"/>
</linearGradient>
<linearGradient id="paint5_linear_689_7914" x1="28.4443" y1="26.2477" x2="32.1306" y2="26.8385" gradientUnits="userSpaceOnUse">
<stop stop-color="#0082FF"/>
<stop offset="1" stop-color="#DD3232"/>
</linearGradient>
<clipPath id="clip0_689_7914">
<rect width="84" height="84" fill="white"/>
</clipPath>
</defs>
</svg>
