<svg width="16" height="16" viewBox="0 0 16 16" fill="none" xmlns="http://www.w3.org/2000/svg">
<circle cx="8" cy="8" r="8" fill="#F89502"/>
<path d="M9.73889 11.2663L9.59704 11.082H9.10791V11.8011H10.3226V11.5565C10.0943 11.5549 9.87911 11.4489 9.73889 11.2663Z" fill="white"/>
<path d="M9.24986 11.2663L9.10801 11.082H6.40312L6.25149 11.2761C6.1129 11.4538 5.89932 11.5565 5.67432 11.5565V11.8011H9.83356V11.5565C9.6053 11.5549 9.38845 11.4489 9.24986 11.2663Z" fill="white"/>
<path d="M10.7015 11.5547H10.2124V12.0438H10.7015C10.8369 12.0438 10.9461 11.9346 10.9461 11.7993C10.9461 11.6639 10.8352 11.5547 10.7015 11.5547Z" fill="white"/>
<path d="M10.457 11.7993C10.457 11.6639 10.3477 11.5547 10.2124 11.5547H5.30316C5.16783 11.5547 5.05859 11.6639 5.05859 11.7993C5.05859 11.9346 5.16783 12.0438 5.30316 12.0438H10.2124C10.3477 12.0438 10.457 11.9346 10.457 11.7993Z" fill="white"/>
<path d="M10.8466 5.90625H8.37646V6.39538H10.8466C10.9819 6.39538 11.0911 6.28614 11.0911 6.15082C11.0911 6.01549 10.9819 5.90625 10.8466 5.90625Z" fill="white"/>
<path d="M7.62843 5.90625H5.14691C5.01158 5.90625 4.90234 6.01549 4.90234 6.15082C4.90234 6.28614 5.01158 6.39538 5.14691 6.39538H7.62843V5.90625Z" fill="white"/>
<path d="M8.86546 6.39538C8.86546 6.12636 8.64535 5.90625 8.37633 5.90625H7.63122C7.3622 5.90625 7.14209 6.12636 7.14209 6.39538V10.7715C7.14209 10.9427 7.28068 11.0796 7.45024 11.0796C7.62144 11.0796 7.75839 10.941 7.75839 10.7715V8.38777H8.24752V10.7731C8.24752 10.9443 8.38611 11.0813 8.55568 11.0813C8.72687 11.0813 8.86383 10.9427 8.86383 10.7731L8.86546 6.39538Z" fill="white"/>
<path d="M7.99756 3.94531V5.41433C8.40354 5.41433 8.73288 5.08499 8.73288 4.67901C8.73288 4.27303 8.40354 3.94531 7.99756 3.94531Z" fill="white"/>
<path d="M8.24161 4.68064C8.24161 4.27466 8.13237 3.94531 7.99704 3.94531C7.59107 3.94531 7.26172 4.27466 7.26172 4.68064C7.26172 5.08662 7.59107 5.41596 7.99704 5.41596C8.13237 5.41433 8.24161 5.08662 8.24161 4.68064Z" fill="white"/>
<path d="M6.15938 8.38672L5.29688 9.73835C6.04361 9.73835 6.64851 9.13346 6.64851 8.38672H6.15938Z" fill="white"/>
<path d="M6.15944 8.38672H3.94531C3.94531 9.13346 4.5502 9.73835 5.29694 9.73835C5.77303 9.73835 6.15944 9.13346 6.15944 8.38672Z" fill="white"/>
<path d="M11.5695 8.38672L10.707 9.73835C11.4538 9.73835 12.0587 9.13346 12.0587 8.38672H11.5695Z" fill="white"/>
<path d="M11.5698 8.38672H9.354C9.354 9.13346 9.9589 9.73835 10.7056 9.73835C11.1834 9.73835 11.5698 9.13346 11.5698 8.38672Z" fill="white"/>
<path d="M8.00214 5.53781C8.47497 5.53781 8.85975 5.15302 8.85975 4.6802C8.85975 4.20737 8.47497 3.82422 8.00214 3.82422C7.52931 3.82422 7.14453 4.209 7.14453 4.68183C7.14453 5.15465 7.52931 5.53781 8.00214 5.53781ZM8.00214 4.06878C8.33964 4.06878 8.61355 4.3427 8.61355 4.6802C8.61355 5.0177 8.33964 5.29324 8.00214 5.29324C7.66464 5.29324 7.39073 5.01933 7.39073 4.68183C7.39073 4.34433 7.66464 4.06878 8.00214 4.06878Z" fill="white"/>
<path d="M9.22649 8.38733C9.22649 9.20092 9.88845 9.86124 10.702 9.86124C11.5156 9.86124 12.176 9.19929 12.176 8.38733C12.176 8.36287 12.1678 8.33842 12.1548 8.31885L10.927 6.5107C11.0933 6.47483 11.2189 6.32809 11.2189 6.152C11.2189 5.94983 11.0542 5.78516 10.852 5.78516H5.15367C4.95149 5.78516 4.78682 5.94983 4.78682 6.152C4.78682 6.32809 4.91236 6.47646 5.07867 6.5107L3.84932 8.31885C3.83628 8.33842 3.82812 8.36287 3.82812 8.38733C3.82812 9.20092 4.49008 9.86124 5.30204 9.86124C6.11563 9.86124 6.77758 9.19929 6.77758 8.38733C6.77758 8.36287 6.76943 8.33842 6.75639 8.31885L5.53356 6.51885H7.02215V10.7727C7.02215 10.8395 7.03682 10.9031 7.06454 10.9585H6.41073C6.37323 10.9585 6.33736 10.9765 6.31454 11.0058L6.16291 11.1998C6.04552 11.3482 5.87106 11.433 5.68193 11.433H5.30856C5.10639 11.433 4.94171 11.5977 4.94171 11.7998C4.94171 12.002 5.10639 12.1667 5.30856 12.1667H10.7069C10.9091 12.1667 11.0738 12.002 11.0738 11.7998C11.0738 11.5977 10.9091 11.433 10.7069 11.433H10.3303C10.1412 11.433 9.95856 11.3433 9.84443 11.1933L9.70258 11.0091C9.67976 10.9781 9.64389 10.9618 9.60476 10.9618H8.95095C8.97867 10.9047 8.99334 10.8428 8.99334 10.7759V6.51722H10.4705L9.24769 8.31722C9.23465 8.33842 9.22649 8.36287 9.22649 8.38733ZM5.30204 9.61668C4.66454 9.61668 4.13954 9.13081 4.07921 8.50961H6.52649C6.46454 9.13081 5.93954 9.61668 5.30204 9.61668ZM6.42378 8.26505H4.18193L5.30367 6.61342L6.42378 8.26505ZM9.54443 11.2031L9.64878 11.34C9.67323 11.3727 9.70095 11.4036 9.7303 11.4314H7.38899C7.32215 11.4314 7.26671 11.4868 7.26671 11.5536C7.26671 11.6205 7.32215 11.6759 7.38899 11.6759H10.7053C10.7721 11.6759 10.8276 11.7314 10.8276 11.7982C10.8276 11.865 10.7721 11.9205 10.7053 11.9205H5.30856C5.24171 11.9205 5.18628 11.865 5.18628 11.7982C5.18628 11.7314 5.24171 11.6759 5.30856 11.6759H6.89986C6.96671 11.6759 7.02215 11.6205 7.02215 11.5536C7.02215 11.4868 6.96671 11.4314 6.89986 11.4314H6.2803C6.30639 11.4053 6.33084 11.3792 6.35367 11.3498L6.46943 11.2031H9.54443ZM8.1716 10.9585H7.84226C7.86997 10.9015 7.88465 10.8395 7.88465 10.7727V8.50961H8.12921V10.7727C8.12921 10.8379 8.14552 10.9015 8.1716 10.9585ZM8.86943 6.27266C8.80258 6.27266 8.74715 6.32809 8.74715 6.39494V10.771C8.74715 10.8737 8.66399 10.9569 8.56128 10.9569C8.45856 10.9569 8.37541 10.8737 8.37541 10.771V8.38733C8.37541 8.32048 8.31997 8.26505 8.25312 8.26505H7.76399C7.69715 8.26505 7.64171 8.32048 7.64171 8.38733V10.7727C7.64171 10.8754 7.55856 10.9585 7.45584 10.9585C7.35312 10.9585 7.26997 10.8754 7.26997 10.7727V6.39494C7.26997 6.32809 7.21454 6.27266 7.14769 6.27266H5.15367C5.08682 6.27266 5.03139 6.21722 5.03139 6.15037C5.03139 6.08353 5.08682 6.02809 5.15367 6.02809H10.852C10.9189 6.02809 10.9743 6.08353 10.9743 6.15037C10.9743 6.21722 10.9189 6.27266 10.852 6.27266H8.86943ZM10.702 6.61342L11.8238 8.26505H9.5803L10.702 6.61342ZM11.9249 8.50961C11.8629 9.13081 11.3379 9.61668 10.702 9.61668C10.0645 9.61668 9.53954 9.13081 9.47921 8.50961H11.9249Z" fill="white"/>
</svg>
