<svg width="18" height="13" viewBox="0 0 18 13" fill="none" xmlns="http://www.w3.org/2000/svg">
<path d="M1.48891 10.1705V2.04044C1.10081 2.02582 0.723286 2.0112 0.363407 2.00023C0.165827 1.99292 0 2.16108 0 2.36579V11.8339C0 12.0276 0.148185 12.1885 0.335181 12.1994C2.20867 12.3054 4.6749 12.4151 7 13C5.26411 11.6145 3.36593 10.9894 1.92288 10.7079C1.67238 10.6604 1.48891 10.4338 1.48891 10.1705Z" fill="#8A59F1"/>
<path d="M16.5111 2.01456V10.1781C16.5111 10.4403 16.3276 10.6696 16.0771 10.717C14.6341 10.9974 12.7359 11.62 11 13C13.3216 12.4211 15.7807 12.3082 17.6648 12.2026C17.8518 12.1917 18 12.0314 18 11.8385V2.36412C18 2.16385 17.8412 2 17.6472 2C17.3332 2 16.9451 2.00364 16.5111 2.01456Z" fill="#8A59F1"/>
<path d="M3 0.342873V10.0305C4.47687 10.4047 6.36892 11.2252 8 13V2.83516C6.96501 1.32812 5.0433 0.366904 3.35291 0.00644854C3.16904 -0.0347463 3 0.1266 3 0.342873Z" fill="#8A59F1"/>
<path d="M14.6471 0.00634537C12.9626 0.363276 11.035 1.32424 10 2.83434V13C11.634 11.2256 13.5231 10.4054 15 10.0313V0.342684C15 0.129898 14.831 -0.034839 14.6471 0.00634537Z" fill="#8A59F1"/>
</svg>
