<svg width="18" height="18" viewBox="0 0 18 18" fill="none" xmlns="http://www.w3.org/2000/svg">
<path d="M17.5036 0.044305C15.3129 1.23617 12.8002 1.38226 10.3385 1.66515C9.13658 1.80428 7.94625 1.97587 6.81381 2.31906C6.56834 2.39326 6.32286 2.47674 6.08202 2.56949C5.36643 2.84311 4.67632 3.20252 4.02557 3.68252C3.4142 4.13237 2.91398 4.66569 2.4925 5.25235C1.82091 6.18915 1.35312 7.2674 0.968694 8.38738C0.267001 10.421 -0.054897 12.5821 0.00763004 14.7316C0.033104 15.6035 0.0469989 16.5102 0.26237 17.3612C0.311002 17.549 0.357318 17.7878 0.503215 17.927C0.693112 18.1101 1.03354 17.9223 0.957115 17.6557C0.40595 15.7751 0.748691 13.5769 1.51059 11.7798C2.38597 9.71374 4.07652 8.48477 6.14223 7.7358C6.69108 7.53638 7.2515 7.36247 7.82119 7.19783C7.83277 7.19319 7.84435 7.1932 7.85593 7.1932C7.96941 7.1932 8.01804 7.36015 7.89993 7.41348C7.22834 7.71725 6.56139 8.02333 5.92686 8.35492C2.81903 9.97808 1.46196 13.7577 2.62682 13.7577C2.72177 13.7577 2.83293 13.7322 2.9603 13.6789C4.75737 12.9346 6.89255 12.9276 8.86794 12.5612C9.56269 12.4337 10.2389 12.2598 10.8734 11.9954C13.393 10.9427 15.1948 8.88361 16.267 6.40712C17.0659 4.55903 17.3763 2.37703 17.9807 0.457053C18.0594 0.211259 17.8857 0.000247605 17.6727 0.000247605C17.6194 -0.0020712 17.5615 0.0118417 17.5036 0.044305Z" fill="#03A631"/>
</svg>
