<svg width="16" height="16" viewBox="0 0 16 16" fill="none" xmlns="http://www.w3.org/2000/svg">
<circle cx="8" cy="8" r="8" fill="#F15959"/>
<path d="M11.8797 7.08171H11.8581C11.8593 7.07035 11.8615 7.06012 11.8627 7.04876C11.8638 7.04422 11.8638 7.03854 11.8649 7.03399C11.8672 7.01808 11.8683 7.00218 11.8695 6.98627C11.8706 6.97832 11.8706 6.97036 11.8718 6.96241C11.8729 6.95446 11.8729 6.9465 11.874 6.93741C11.8752 6.92605 11.8752 6.91469 11.8763 6.90446C11.8763 6.89878 11.8774 6.89196 11.8774 6.88628C11.8786 6.87038 11.8786 6.8556 11.8797 6.8397C11.8797 6.83515 11.8797 6.82947 11.8797 6.82493C11.8797 6.80788 11.8808 6.7897 11.8808 6.77266C11.8797 5.5285 10.8707 4.51953 9.62658 4.51953C8.98689 4.51953 8.40968 4.78768 8.00064 5.21604C7.59047 4.78768 7.0144 4.51953 6.37357 4.51953C5.12941 4.51953 4.12158 5.5285 4.12158 6.77266C4.12158 6.79538 4.12158 6.81811 4.12272 6.84083C4.12272 6.84765 4.12272 6.85447 4.12385 6.86129C4.12499 6.87719 4.12499 6.8931 4.12613 6.90901C4.12613 6.91696 4.12726 6.92378 4.12726 6.93173C4.1284 6.94764 4.12954 6.96468 4.13181 6.98059C4.13294 6.98741 4.13294 6.99309 4.13408 6.9999C4.13635 7.02263 4.13863 7.04422 4.14203 7.06694C4.14544 7.0908 4.14885 7.11353 4.15226 7.13739C4.1534 7.14193 4.15453 7.14761 4.15453 7.15216C4.15794 7.17147 4.16135 7.18965 4.16476 7.20783C4.16589 7.21238 4.16703 7.21692 4.16703 7.22147C4.17612 7.26919 4.18748 7.31577 4.19998 7.36122H6.34403L7.49843 6.01934L8.5983 8.17589L8.94598 7.37713H11.7956H11.8786H12.174V7.08171H11.8797Z" fill="white"/>
<path d="M8.64424 9.63932L7.36599 7.13281L6.63199 7.98612H4.47885H4.12208H3.82666V8.28153H4.12208H4.68792C4.69814 8.29403 4.70723 8.30767 4.71746 8.32016C4.73677 8.34516 4.75723 8.37016 4.77654 8.39629C4.87198 8.5156 4.97765 8.64172 5.09241 8.77125L5.09355 8.77238C5.10605 8.78602 5.11855 8.80079 5.13104 8.81442L5.13218 8.81556C5.17763 8.86555 5.22421 8.91668 5.2708 8.96895C5.33215 9.03485 5.39465 9.10189 5.45941 9.17006C5.47305 9.18369 5.48668 9.19846 5.50032 9.2121C5.50145 9.21324 5.50372 9.21551 5.50486 9.21664C5.51736 9.23028 5.52986 9.24278 5.54349 9.25641C5.54576 9.25868 5.54804 9.26096 5.55031 9.26323C5.56281 9.27573 5.57531 9.28936 5.5878 9.30186C5.59008 9.30413 5.59349 9.30754 5.59576 9.30981C5.60826 9.32231 5.62076 9.33481 5.63325 9.34731C5.63666 9.35072 5.63893 9.35299 5.64234 9.3564C5.65484 9.3689 5.66734 9.3814 5.67984 9.39503C5.68211 9.3973 5.68438 9.39958 5.68666 9.40185C5.70029 9.41548 5.71279 9.42912 5.72642 9.44162C5.72756 9.44275 5.7287 9.44389 5.72983 9.44502C5.80255 9.51774 5.87754 9.59046 5.95367 9.66432C5.95708 9.66772 5.96049 9.67113 5.96389 9.67454C5.97526 9.6859 5.98776 9.69727 5.99912 9.70863C6.00366 9.71317 6.00821 9.71772 6.01389 9.72226C6.02525 9.73249 6.03661 9.74385 6.04797 9.75408C6.05366 9.75976 6.05934 9.7643 6.06502 9.76998C6.07638 9.78021 6.08661 9.79044 6.09797 9.80066C6.10365 9.80634 6.11047 9.81202 6.11615 9.81771C6.12637 9.82793 6.13774 9.83816 6.14796 9.84725C6.15478 9.85293 6.16046 9.85861 6.16728 9.86543C6.1775 9.87565 6.18887 9.88474 6.19909 9.89497C6.20591 9.90065 6.21159 9.90747 6.21841 9.91315C6.22863 9.92337 6.24 9.93246 6.25022 9.94269C6.25704 9.94837 6.26386 9.95519 6.26954 9.96087C6.27976 9.9711 6.29113 9.98019 6.30135 9.99041C6.30703 9.99609 6.31385 10.0018 6.31953 10.0075C6.33089 10.0177 6.34226 10.0279 6.35248 10.0381C6.35703 10.0415 6.36044 10.045 6.36498 10.0495C6.38884 10.0711 6.4127 10.0927 6.43656 10.1143C6.44224 10.1199 6.44793 10.1245 6.45361 10.1302C6.46383 10.1393 6.47292 10.1472 6.48315 10.1563C6.4911 10.1631 6.49906 10.1699 6.50587 10.1768C6.51496 10.1847 6.52519 10.1938 6.53428 10.2017C6.54223 10.2086 6.55019 10.2165 6.55927 10.2233C6.56836 10.2313 6.57745 10.2392 6.58768 10.2483C6.59563 10.2563 6.60472 10.2631 6.61268 10.2711C6.62177 10.279 6.63086 10.287 6.63995 10.2949C6.64904 10.3029 6.65699 10.3097 6.66608 10.3176C6.67517 10.3256 6.68426 10.3336 6.69335 10.3404C6.70244 10.3483 6.71153 10.3563 6.72062 10.3631C6.72971 10.371 6.7388 10.3779 6.74675 10.3858C6.75584 10.3938 6.76493 10.4017 6.77402 10.4097C6.78311 10.4176 6.79106 10.4244 6.80015 10.4324C6.80924 10.4404 6.81833 10.4483 6.82856 10.4563C6.83651 10.4631 6.8456 10.471 6.85356 10.4779C6.86378 10.4858 6.87401 10.4949 6.88423 10.5028C6.89219 10.5097 6.90014 10.5153 6.9081 10.5222C6.91946 10.5313 6.93082 10.5415 6.94218 10.5506C6.949 10.5562 6.95468 10.5608 6.9615 10.5665C6.97968 10.5812 6.99672 10.596 7.0149 10.6097C7.02058 10.6142 7.02626 10.6187 7.03194 10.6233C7.04444 10.6335 7.05694 10.6437 7.0683 10.6528C7.07512 10.6585 7.08307 10.6642 7.08989 10.6699C7.10012 10.679 7.11148 10.6869 7.12171 10.696C7.12966 10.7017 7.13648 10.7085 7.14443 10.7142C7.15466 10.7221 7.16488 10.7312 7.17511 10.7392C7.18306 10.7449 7.19101 10.7517 7.19897 10.7574C7.20919 10.7653 7.21942 10.7733 7.22965 10.7812C7.2376 10.7869 7.24555 10.7937 7.25351 10.7994C7.26373 10.8074 7.27396 10.8153 7.28418 10.8233C7.29214 10.8289 7.30009 10.8358 7.30805 10.8414C7.31827 10.8494 7.3285 10.8573 7.33872 10.8653C7.34668 10.871 7.35463 10.8778 7.36145 10.8835C7.37167 10.8914 7.3819 10.8994 7.39213 10.9073C7.40008 10.913 7.4069 10.9187 7.41485 10.9244C7.42508 10.9323 7.43644 10.9403 7.44666 10.9494C7.45348 10.9551 7.4603 10.9596 7.46825 10.9653C7.47962 10.9744 7.49211 10.9835 7.50348 10.9926C7.50916 10.9971 7.51484 11.0016 7.52052 11.0051C7.5387 11.0187 7.55574 11.0312 7.57392 11.0448C7.69322 11.1312 7.84093 11.1823 8 11.1823C8.15908 11.1823 8.30565 11.1312 8.42609 11.0448C8.44313 11.0323 8.46131 11.0187 8.47835 11.0062C8.48404 11.0016 8.48972 10.9971 8.4954 10.9937C8.50676 10.9846 8.51926 10.9755 8.53176 10.9664C8.53857 10.9607 8.54539 10.9562 8.55221 10.9505C8.56244 10.9426 8.5738 10.9346 8.58402 10.9255C8.59084 10.9198 8.59879 10.9142 8.60561 10.9085C8.61584 10.9005 8.62606 10.8926 8.63629 10.8846C8.64424 10.8789 8.65106 10.8733 8.65901 10.8664C8.66924 10.8585 8.67947 10.8505 8.68969 10.8426C8.69765 10.8369 8.70446 10.8312 8.71242 10.8244C8.72264 10.8164 8.73287 10.8085 8.74309 10.8005C8.75105 10.7949 8.75787 10.788 8.76582 10.7824C8.77604 10.7744 8.78627 10.7653 8.79763 10.7574C8.80559 10.7517 8.8124 10.746 8.82036 10.7392C8.83172 10.7301 8.84195 10.7221 8.85331 10.713C8.86013 10.7074 8.86694 10.7017 8.87376 10.696C8.88626 10.6858 8.89876 10.6767 8.91012 10.6665C8.9158 10.6619 8.92148 10.6574 8.92716 10.6528C8.94534 10.6381 8.96239 10.6233 8.98057 10.6097C8.98284 10.6074 8.98511 10.6051 8.98738 10.604C9.00329 10.5915 9.01806 10.579 9.03397 10.5665C9.04078 10.5608 9.04647 10.5562 9.05328 10.5506C9.06465 10.5415 9.07601 10.5313 9.08737 10.5222C9.09419 10.5165 9.10214 10.5097 9.10896 10.504C9.11918 10.4949 9.13055 10.4858 9.14077 10.4767C9.14873 10.4699 9.15668 10.4642 9.1635 10.4574C9.17372 10.4494 9.18395 10.4404 9.19417 10.4313C9.20213 10.4244 9.21008 10.4176 9.21804 10.4108C9.22826 10.4029 9.23849 10.3938 9.24758 10.3858C9.25553 10.379 9.26348 10.3722 9.27144 10.3654C9.28166 10.3563 9.29189 10.3483 9.30098 10.3392C9.30893 10.3324 9.31689 10.3256 9.32484 10.3188C9.33507 10.3097 9.34529 10.3017 9.35552 10.2926C9.36347 10.2858 9.37143 10.279 9.37824 10.2722C9.38847 10.2631 9.39869 10.254 9.40892 10.2449C9.41574 10.2381 9.42369 10.2324 9.43051 10.2256C9.44187 10.2154 9.45437 10.2052 9.46573 10.1949C9.47141 10.1904 9.47709 10.1847 9.48278 10.1802C9.49982 10.1643 9.518 10.1495 9.53504 10.1336C9.54072 10.129 9.5464 10.1233 9.55208 10.1188C9.56345 10.1086 9.57595 10.0972 9.58731 10.087C9.59412 10.0802 9.60208 10.0734 9.6089 10.0677C9.61912 10.0586 9.62935 10.0495 9.63957 10.0404C9.64753 10.0336 9.65548 10.0256 9.66343 10.0188C9.67252 10.0097 9.68275 10.0018 9.69184 9.99268C9.69979 9.98473 9.70775 9.97791 9.7157 9.96996C9.72479 9.96201 9.73388 9.95292 9.74297 9.94496C9.75092 9.93701 9.75888 9.93019 9.76797 9.92224C9.77706 9.91428 9.78615 9.90519 9.79524 9.89724C9.80319 9.88929 9.81114 9.88247 9.8191 9.87452C9.82819 9.86656 9.83728 9.85747 9.84637 9.84952C9.85432 9.84157 9.86227 9.83475 9.87023 9.8268C9.87932 9.81884 9.88841 9.80975 9.8975 9.8018C9.90545 9.79384 9.9134 9.78703 9.92136 9.77907C9.93045 9.76998 9.93954 9.76203 9.94863 9.75294C9.95658 9.74499 9.96453 9.73817 9.97249 9.73022C9.98271 9.72113 9.9918 9.71204 10.002 9.70295C10.0088 9.69613 10.0157 9.68931 10.0236 9.6825C10.0395 9.66659 10.0554 9.65182 10.0725 9.63591C10.0804 9.62909 10.0872 9.62114 10.0952 9.61432C10.1043 9.60523 10.1134 9.59728 10.1225 9.58819C10.1304 9.58024 10.1384 9.57228 10.1463 9.56433C10.1543 9.55637 10.1634 9.54842 10.1713 9.54047C10.1793 9.53251 10.1872 9.52456 10.1963 9.51661C10.2043 9.50865 10.2122 9.5007 10.2202 9.49275C10.2281 9.48479 10.2372 9.47684 10.2452 9.46775C10.2531 9.4598 10.2611 9.45184 10.269 9.44502C10.277 9.43707 10.2861 9.42798 10.294 9.42003C10.302 9.41207 10.3099 9.40412 10.3168 9.3973C10.3247 9.38935 10.3338 9.38026 10.3418 9.37231C10.3497 9.36435 10.3565 9.35754 10.3645 9.34958C10.3724 9.34163 10.3815 9.33254 10.3895 9.32458C10.3963 9.31777 10.4043 9.30981 10.4111 9.303C10.419 9.29504 10.4281 9.28595 10.4361 9.278C10.4429 9.27118 10.4497 9.26323 10.4565 9.25641C10.4645 9.24732 10.4736 9.23937 10.4815 9.23028C10.4883 9.22346 10.494 9.21664 10.5008 9.21096C10.5201 9.19051 10.5395 9.1712 10.5588 9.15074C10.5622 9.14733 10.5667 9.14279 10.5701 9.13938C10.5792 9.13029 10.5872 9.1212 10.5963 9.11211C10.602 9.10529 10.6088 9.09961 10.6145 9.0928C10.6224 9.08371 10.6315 9.07462 10.6394 9.06666C10.6463 9.05985 10.6519 9.05303 10.6588 9.04621C10.6667 9.03712 10.6747 9.02917 10.6838 9.02008C10.6894 9.01326 10.6963 9.00644 10.7019 9.00076C10.7099 8.99167 10.7178 8.98372 10.7258 8.97463C10.7315 8.96781 10.7383 8.96099 10.744 8.95418C10.7519 8.94509 10.7599 8.93713 10.7678 8.92804C10.7735 8.92123 10.7803 8.91441 10.786 8.90759C10.794 8.8985 10.8019 8.89055 10.8099 8.88146C10.8156 8.87464 10.8212 8.86782 10.8281 8.86214C10.836 8.85305 10.844 8.8451 10.8519 8.83601C10.8576 8.83033 10.8633 8.82351 10.869 8.81783C10.8769 8.80874 10.8849 8.79965 10.8928 8.7917C10.8974 8.78602 10.9031 8.78033 10.9076 8.77465C10.9156 8.76556 10.9235 8.75647 10.9326 8.74625C10.9349 8.74284 10.9383 8.73943 10.9405 8.73716C10.961 8.71443 10.9803 8.69171 10.9996 8.66899C11.0019 8.66671 11.0042 8.6633 11.0064 8.66103C11.0144 8.65194 11.0224 8.64285 11.0303 8.63263C11.0349 8.62694 11.0394 8.6224 11.0439 8.61672C11.0508 8.60763 11.0587 8.59968 11.0655 8.59059C11.0701 8.5849 11.0758 8.57922 11.0803 8.57354C11.0871 8.56559 11.0939 8.5565 11.1008 8.54855C11.1053 8.54286 11.111 8.53718 11.1155 8.53037C11.1223 8.52241 11.1292 8.51332 11.136 8.50537C11.1405 8.49969 11.1451 8.49401 11.1507 8.48833C11.1576 8.48037 11.1644 8.47242 11.1712 8.46333C11.1757 8.45765 11.1803 8.45197 11.1848 8.44629C11.1917 8.43833 11.1985 8.43038 11.2042 8.42129C11.2087 8.41561 11.2132 8.40993 11.2178 8.40425C11.2246 8.39629 11.2303 8.38834 11.2371 8.37925C11.2416 8.37357 11.2451 8.36902 11.2496 8.36334C11.2564 8.35539 11.2632 8.3463 11.2689 8.33834C11.2723 8.3338 11.2757 8.32925 11.2791 8.32471C11.286 8.31562 11.2928 8.30653 11.2996 8.29858C11.3144 8.27926 11.328 8.26108 11.3416 8.2429C11.3439 8.23949 11.3473 8.23608 11.3496 8.23268C11.3632 8.2145 11.3769 8.19518 11.3905 8.177C11.403 8.15882 11.4155 8.14178 11.428 8.12473C11.4314 8.12019 11.4337 8.11678 11.4371 8.11224C11.4496 8.09519 11.4609 8.07815 11.4723 8.06111C11.4791 8.05088 11.4859 8.04065 11.4928 8.03043C11.4984 8.02134 11.5041 8.01338 11.5098 8.0043H9.35665L8.64424 9.63932Z" fill="white"/>
</svg>
