<svg width="21" height="21" viewBox="0 0 21 21" fill="none" xmlns="http://www.w3.org/2000/svg">
<path d="M14.8697 18.7305L14.5129 18.2667H13.2824V20.0767H16.3381V19.461C15.7638 19.4569 15.2224 19.1902 14.8697 18.7305Z" fill="#F89502"/>
<path d="M13.6395 18.7305L13.2824 18.2667H6.47812L6.09668 18.7551C5.74804 19.2025 5.21074 19.461 4.64472 19.461V20.0767H15.1078V19.461C14.5336 19.4569 13.9881 19.1902 13.6395 18.7305Z" fill="#F89502"/>
<path d="M17.2905 19.4597H16.0601V20.691H17.2905C17.631 20.691 17.9058 20.416 17.9058 20.0753C17.9058 19.7347 17.6269 19.4597 17.2905 19.4597Z" fill="#F89502"/>
<path d="M16.6757 20.0753C16.6757 19.7347 16.4005 19.4597 16.0601 19.4597H3.71063C3.3702 19.4597 3.0954 19.7347 3.0954 20.0753C3.0954 20.416 3.3702 20.691 3.71063 20.691H16.0601C16.4005 20.691 16.6757 20.416 16.6757 20.0753Z" fill="#F89502"/>
<path d="M17.6554 5.24079H11.4415V6.47207H17.6554C17.9958 6.47207 18.2706 6.19708 18.2706 5.85643C18.2706 5.51578 17.9958 5.24079 17.6554 5.24079Z" fill="#F89502"/>
<path d="M9.56017 5.24079H3.3176C2.97717 5.24079 2.70236 5.51578 2.70236 5.85643C2.70236 6.19708 2.97717 6.47207 3.3176 6.47207H9.56017V5.24079Z" fill="#F89502"/>
<path d="M12.6716 6.47207C12.6716 5.79487 12.1183 5.24079 11.4415 5.24079H9.56676C8.89 5.24079 8.33629 5.79487 8.33629 6.47207V17.4879C8.33629 17.9188 8.68493 18.2636 9.11149 18.2636C9.54215 18.2636 9.88668 17.9147 9.88668 17.4879V11.4875H11.1172V17.492C11.1172 17.9229 11.4658 18.2677 11.8923 18.2677C12.323 18.2677 12.6675 17.9188 12.6675 17.492L12.6716 6.47207Z" fill="#F89502"/>
<path d="M10.4883 0.308268V4.0062C11.5096 4.0062 12.3381 3.17714 12.3381 2.15518C12.3381 1.13322 11.5096 0.308268 10.4883 0.308268Z" fill="#F89502"/>
<path d="M11.1027 2.15928C11.1027 1.13733 10.8288 0.308268 10.4883 0.308268C9.46704 0.308268 8.63763 1.13733 8.63763 2.15928C8.63763 3.18124 9.46615 4.0103 10.4874 4.0103C10.8279 4.0062 11.1027 3.18124 11.1027 2.15928Z" fill="#F89502"/>
<path d="M5.86455 11.4885L3.69482 14.8909C5.57334 14.8909 7.09502 13.3682 7.09502 11.4885H5.86455Z" fill="#F89502"/>
<path d="M5.86455 11.4885H0.2948C0.2948 13.3682 1.81631 14.8909 3.69482 14.8909C4.89248 14.8909 5.86455 13.3682 5.86455 11.4885Z" fill="#F89502"/>
<path d="M19.4745 11.4885L17.3048 14.8909C19.1833 14.8909 20.705 13.3682 20.705 11.4885H19.4745Z" fill="#F89502"/>
<path d="M19.4755 11.4885H13.9015C13.9015 13.3682 15.4231 14.8909 17.3017 14.8909C18.5034 14.8909 19.4755 13.3682 19.4755 11.4885Z" fill="#F89502"/>
<path d="M10.5003 4.31357C11.6897 4.31357 12.6577 3.34496 12.6577 2.15473C12.6577 0.964499 11.6897 0 10.5003 0C9.31083 0 8.34286 0.968603 8.34286 2.15884C8.34286 3.34907 9.31083 4.31357 10.5003 4.31357ZM10.5003 0.615637C11.3493 0.615637 12.0384 1.30515 12.0384 2.15473C12.0384 3.00431 11.3493 3.69793 10.5003 3.69793C9.65126 3.69793 8.9622 3.00841 8.9622 2.15884C8.9622 1.30926 9.65126 0.615637 10.5003 0.615637Z" fill="#F89502"/>
<path d="M13.5803 11.4864C13.5803 13.5344 15.2455 15.1966 17.2922 15.1966C19.3389 15.1966 21 13.5303 21 11.4864C21 11.4248 20.9795 11.3632 20.9467 11.314L17.8582 6.76236C18.2766 6.67207 18.5924 6.30268 18.5924 5.85942C18.5924 5.3505 18.1781 4.93597 17.6695 4.93597H3.33457C2.82598 4.93597 2.41172 5.3505 2.41172 5.85942C2.41172 6.30268 2.72754 6.67617 3.1459 6.76236L0.0533203 11.314C0.0205078 11.3632 0 11.4248 0 11.4864C0 13.5344 1.66523 15.1966 3.70781 15.1966C5.75449 15.1966 7.41973 13.5303 7.41973 11.4864C7.41973 11.4248 7.39922 11.3632 7.36641 11.314L4.29023 6.78288H8.03496V17.4909C8.03496 17.6591 8.07188 17.8192 8.1416 17.9587H6.49687C6.40254 17.9587 6.3123 18.0039 6.25488 18.0778L5.87344 18.5662C5.57812 18.9397 5.13926 19.1531 4.66348 19.1531H3.72422C3.21563 19.1531 2.80137 19.5676 2.80137 20.0765C2.80137 20.5855 3.21563 21 3.72422 21H17.3045C17.8131 21 18.2273 20.5855 18.2273 20.0765C18.2273 19.5676 17.8131 19.1531 17.3045 19.1531H16.357C15.8813 19.1531 15.4219 18.9274 15.1348 18.5498L14.7779 18.086C14.7205 18.008 14.6303 17.967 14.5318 17.967H12.8871C12.9568 17.8233 12.9937 17.6673 12.9937 17.4991V6.77878H16.7098L13.6336 11.3099C13.6008 11.3632 13.5803 11.4248 13.5803 11.4864ZM3.70781 14.581C2.1041 14.581 0.783398 13.3579 0.631641 11.7942H6.78809C6.63223 13.3579 5.31152 14.581 3.70781 14.581ZM6.52969 11.1785H0.890039L3.71191 7.02093L6.52969 11.1785ZM14.3801 18.5744L14.6426 18.9191C14.7041 19.0012 14.7738 19.0792 14.8477 19.149H8.95781C8.78965 19.149 8.6502 19.2885 8.6502 19.4568C8.6502 19.6251 8.78965 19.7646 8.95781 19.7646H17.3004C17.4686 19.7646 17.608 19.9042 17.608 20.0724C17.608 20.2407 17.4686 20.3803 17.3004 20.3803H3.72422C3.55605 20.3803 3.4166 20.2407 3.4166 20.0724C3.4166 19.9042 3.55605 19.7646 3.72422 19.7646H7.72734C7.89551 19.7646 8.03496 19.6251 8.03496 19.4568C8.03496 19.2885 7.89551 19.149 7.72734 19.149H6.16875C6.23437 19.0833 6.2959 19.0176 6.35332 18.9438L6.64453 18.5744H14.3801ZM10.9266 17.9587H10.098C10.1678 17.8151 10.2047 17.6591 10.2047 17.4909V11.7942H10.8199V17.4909C10.8199 17.655 10.8609 17.8151 10.9266 17.9587ZM12.682 6.16314C12.5139 6.16314 12.3744 6.30268 12.3744 6.47096V17.4868C12.3744 17.7453 12.1652 17.9546 11.9068 17.9546C11.6484 17.9546 11.4393 17.7453 11.4393 17.4868V11.4864C11.4393 11.3181 11.2998 11.1785 11.1316 11.1785H9.90117C9.73301 11.1785 9.59356 11.3181 9.59356 11.4864V17.4909C9.59356 17.7494 9.38438 17.9587 9.12598 17.9587C8.86758 17.9587 8.6584 17.7494 8.6584 17.4909V6.47096C8.6584 6.30268 8.51895 6.16314 8.35078 6.16314H3.33457C3.16641 6.16314 3.02695 6.02359 3.02695 5.85532C3.02695 5.68705 3.16641 5.5475 3.33457 5.5475H17.6695C17.8377 5.5475 17.9771 5.68705 17.9771 5.85532C17.9771 6.02359 17.8377 6.16314 17.6695 6.16314H12.682ZM17.2922 7.02093L20.1141 11.1785H14.4703L17.2922 7.02093ZM20.3684 11.7942C20.2125 13.3579 18.8918 14.581 17.2922 14.581C15.6885 14.581 14.3678 13.3579 14.216 11.7942H20.3684Z" fill="#F89502"/>
</svg>
