<svg width="16" height="16" viewBox="0 0 16 16" fill="none" xmlns="http://www.w3.org/2000/svg">
<circle cx="8" cy="8" r="8" fill="#8A59F1"/>
<path d="M4.51324 9.83553V6.20944C4.33389 6.20292 4.15943 6.1964 3.99313 6.19151C3.90183 6.18825 3.8252 6.26325 3.8252 6.35455V10.5774C3.8252 10.6638 3.89367 10.7355 3.98009 10.7404C4.84585 10.7877 5.98552 10.8366 7.05998 11.0975C6.2578 10.4796 5.38063 10.2007 4.71378 10.0752C4.59802 10.054 4.51324 9.95292 4.51324 9.83553Z" fill="white"/>
<path d="M11.4838 6.1823V9.83774C11.4838 9.95513 11.399 10.0578 11.2832 10.079C10.6164 10.2046 9.73919 10.4834 8.93701 11.1013C10.0098 10.8421 11.1463 10.7915 12.0169 10.7443C12.1033 10.7394 12.1718 10.6676 12.1718 10.5812V6.33882C12.1718 6.24915 12.0984 6.17578 12.0088 6.17578C11.8636 6.17578 11.6843 6.17741 11.4838 6.1823Z" fill="white"/>
<path d="M5.00488 5.03394V9.63503C5.81684 9.81274 6.85706 10.2024 7.7538 11.0454V6.21763C7.18477 5.50187 6.12825 5.04535 5.1989 4.87416C5.09782 4.85459 5.00488 4.93122 5.00488 5.03394Z" fill="white"/>
<path d="M10.7995 4.87411C9.87343 5.04367 8.81365 5.5002 8.24463 6.21759V11.0469C9.143 10.204 10.1816 9.81433 10.9935 9.63661V5.03389C10.9935 4.9328 10.9006 4.85454 10.7995 4.87411Z" fill="white"/>
</svg>
