<svg width="17" height="16" viewBox="0 0 17 16" fill="none" xmlns="http://www.w3.org/2000/svg">
<circle cx="8.19531" cy="8" r="8" fill="#03A631"/>
<path d="M12.1381 3.84474C11.1221 4.39678 9.95683 4.46444 8.81517 4.59547C8.25776 4.65991 7.70572 4.73938 7.18054 4.89834C7.06669 4.9327 6.95285 4.97137 6.84115 5.01433C6.50929 5.14106 6.18923 5.30753 5.88744 5.52985C5.6039 5.7382 5.37192 5.98522 5.17645 6.25695C4.86499 6.69084 4.64804 7.19025 4.46976 7.709C4.14433 8.6509 3.99505 9.65187 4.02405 10.6475C4.03586 11.0513 4.0423 11.4712 4.14219 11.8654C4.16474 11.9524 4.18622 12.063 4.25388 12.1274C4.34195 12.2123 4.49983 12.1253 4.46439 12.0018C4.20877 11.1308 4.36773 10.1126 4.72107 9.28026C5.12705 8.32333 5.91107 7.75411 6.86908 7.4072C7.12362 7.31484 7.38352 7.23429 7.64773 7.15803C7.6531 7.15589 7.65847 7.15589 7.66384 7.15589C7.71646 7.15589 7.73902 7.23321 7.68424 7.25792C7.37278 7.39861 7.06347 7.54038 6.76919 7.69396C5.32788 8.44576 4.69852 10.1964 5.23874 10.1964C5.28278 10.1964 5.33433 10.1846 5.3934 10.1599C6.22682 9.81511 7.21705 9.81189 8.13318 9.6422C8.45538 9.58313 8.76899 9.50258 9.06326 9.38014C10.2318 8.89255 11.0673 7.93883 11.5646 6.7918C11.9351 5.93582 12.0791 4.92519 12.3594 4.03591C12.3959 3.92207 12.3153 3.82433 12.2165 3.82433C12.1918 3.82326 12.165 3.8297 12.1381 3.84474Z" fill="white"/>
</svg>
