<svg width="22" height="18" viewBox="0 0 22 18" fill="none" xmlns="http://www.w3.org/2000/svg">
<path d="M21.2246 6.92024H21.1677C21.1707 6.88955 21.1767 6.86193 21.1797 6.83125C21.1827 6.81897 21.1827 6.80363 21.1857 6.79135C21.1916 6.74839 21.1946 6.70542 21.1976 6.66246C21.2006 6.64098 21.2006 6.6195 21.2036 6.59801C21.2066 6.57653 21.2066 6.55505 21.2096 6.5305C21.2126 6.49981 21.2126 6.46912 21.2156 6.4415C21.2156 6.42616 21.2186 6.40775 21.2186 6.3924C21.2216 6.34944 21.2216 6.30954 21.2246 6.26658C21.2246 6.2543 21.2246 6.23896 21.2246 6.22668C21.2246 6.18065 21.2276 6.13155 21.2276 6.08552C21.2246 2.72513 18.5655 0 15.2866 0C13.6007 0 12.0796 0.724247 11.0016 1.8812C9.92058 0.724247 8.4024 0 6.71354 0C3.43463 0 0.778564 2.72513 0.778564 6.08552C0.778564 6.14689 0.778564 6.20827 0.781559 6.26965C0.781559 6.28806 0.781559 6.30647 0.784553 6.32489C0.787548 6.36785 0.787548 6.41081 0.790542 6.45378C0.790542 6.47526 0.793537 6.49367 0.793537 6.51515C0.796531 6.55812 0.799526 6.60415 0.805514 6.64712C0.808509 6.66553 0.808509 6.68087 0.811503 6.69929C0.817492 6.76066 0.823481 6.81897 0.832464 6.88035C0.841448 6.94479 0.850431 7.00617 0.859414 7.07062C0.862409 7.08289 0.865403 7.09823 0.865403 7.11051C0.874386 7.16268 0.88337 7.21178 0.892353 7.26088C0.895347 7.27316 0.898342 7.28543 0.898342 7.29771C0.922297 7.4266 0.952242 7.55242 0.985181 7.67518H6.63568L9.67803 4.05087L12.5766 9.87554L13.4929 7.71814H21.003H21.2216H22.0001V6.92024H21.2246Z" fill="#F15959"/>
<path d="M12.6964 13.8324L9.32767 7.0625L7.39327 9.3672H1.71881H0.778554H0V10.1651H0.778554H2.26978C2.29673 10.1989 2.32069 10.2357 2.34764 10.2694C2.39854 10.337 2.45244 10.4045 2.50335 10.4751C2.75488 10.7973 3.03336 11.1379 3.3358 11.4878L3.3388 11.4908C3.37174 11.5277 3.40468 11.5676 3.43761 11.6044L3.44061 11.6075C3.56039 11.7425 3.68316 11.8806 3.80593 12.0218C3.96763 12.1997 4.13232 12.3808 4.30301 12.5649C4.33894 12.6018 4.37487 12.6417 4.41081 12.6785C4.4138 12.6816 4.41979 12.6877 4.42278 12.6908C4.45572 12.7276 4.48866 12.7613 4.52459 12.7982C4.53058 12.8043 4.53657 12.8104 4.54256 12.8166C4.5755 12.8503 4.60844 12.8872 4.64138 12.9209C4.64737 12.9271 4.65635 12.9363 4.66234 12.9424C4.69528 12.9762 4.72822 13.0099 4.76116 13.0437C4.77014 13.0529 4.77613 13.059 4.78511 13.0682C4.81805 13.102 4.85099 13.1357 4.88393 13.1726C4.88992 13.1787 4.8959 13.1848 4.90189 13.191C4.93783 13.2278 4.97077 13.2646 5.0067 13.2984C5.00969 13.3015 5.01269 13.3045 5.01568 13.3076C5.20733 13.504 5.40496 13.7004 5.60559 13.8999C5.61457 13.9091 5.62355 13.9183 5.63254 13.9275C5.66248 13.9582 5.69542 13.9889 5.72536 14.0196C5.73734 14.0318 5.74932 14.0441 5.76429 14.0564C5.79424 14.084 5.82418 14.1147 5.85412 14.1423C5.8691 14.1577 5.88407 14.1699 5.89904 14.1853C5.92899 14.2129 5.95594 14.2405 5.98588 14.2681C6.00085 14.2835 6.01882 14.2988 6.03379 14.3142C6.06074 14.3418 6.09069 14.3694 6.11764 14.394C6.1356 14.4093 6.15057 14.4247 6.16854 14.4431C6.19549 14.4707 6.22543 14.4952 6.25238 14.5229C6.27035 14.5382 6.28532 14.5566 6.30329 14.572C6.33024 14.5996 6.36018 14.6241 6.38713 14.6517C6.4051 14.6671 6.42307 14.6855 6.43804 14.7009C6.46499 14.7285 6.49493 14.753 6.52188 14.7806C6.53686 14.796 6.55482 14.8113 6.5698 14.8267C6.59974 14.8543 6.62968 14.8819 6.65663 14.9095C6.66861 14.9187 6.67759 14.9279 6.68957 14.9402C6.75246 14.9985 6.81534 15.0568 6.87822 15.1151C6.89319 15.1305 6.90817 15.1428 6.92314 15.1581C6.95009 15.1827 6.97404 15.2041 7.00099 15.2287C7.02196 15.2471 7.04292 15.2655 7.06088 15.2839C7.08484 15.3054 7.11179 15.33 7.13574 15.3514C7.1567 15.3699 7.17767 15.3913 7.20162 15.4098C7.22558 15.4312 7.24953 15.4527 7.27648 15.4773C7.29744 15.4987 7.3214 15.5172 7.34236 15.5386C7.36632 15.5601 7.39027 15.5816 7.41423 15.6031C7.43818 15.6246 7.45914 15.643 7.4831 15.6645C7.50705 15.6859 7.53101 15.7074 7.55497 15.7258C7.57892 15.7473 7.60288 15.7688 7.62683 15.7872C7.65079 15.8087 7.67474 15.8271 7.6957 15.8486C7.71966 15.8701 7.74361 15.8916 7.76757 15.913C7.79153 15.9345 7.81249 15.9529 7.83644 15.9744C7.8604 15.9959 7.88435 16.0174 7.9113 16.0389C7.93226 16.0573 7.95622 16.0788 7.97718 16.0972C8.00413 16.1187 8.03108 16.1432 8.05803 16.1647C8.07899 16.1831 8.09995 16.1984 8.12091 16.2169C8.15086 16.2414 8.1808 16.269 8.21075 16.2936C8.22871 16.3089 8.24369 16.3212 8.26165 16.3365C8.30956 16.3764 8.35448 16.4163 8.40239 16.4532C8.41736 16.4654 8.43233 16.4777 8.44731 16.49C8.48025 16.5176 8.51318 16.5452 8.54313 16.5698C8.5611 16.5851 8.58206 16.6005 8.60002 16.6158C8.62697 16.6404 8.65692 16.6618 8.68387 16.6864C8.70483 16.7017 8.7228 16.7201 8.74376 16.7355C8.77071 16.757 8.79766 16.7815 8.82461 16.803C8.84557 16.8184 8.86653 16.8368 8.88749 16.8521C8.91444 16.8736 8.94139 16.8951 8.96834 16.9166C8.9893 16.9319 9.01026 16.9503 9.03122 16.9657C9.05817 16.9871 9.08512 17.0086 9.11207 17.0301C9.13303 17.0454 9.15399 17.0639 9.17496 17.0792C9.20191 17.1007 9.22886 17.1222 9.25581 17.1437C9.27677 17.159 9.29773 17.1774 9.31569 17.1927C9.34264 17.2142 9.36959 17.2357 9.39654 17.2572C9.4175 17.2725 9.43547 17.2879 9.45643 17.3032C9.48338 17.3247 9.51333 17.3462 9.54028 17.3707C9.55824 17.3861 9.57621 17.3984 9.59717 17.4137C9.62712 17.4383 9.66005 17.4628 9.69 17.4874C9.70497 17.4996 9.71994 17.5119 9.73492 17.5211C9.78283 17.5579 9.82774 17.5917 9.87565 17.6285C10.1901 17.8618 10.5793 17.9999 10.9986 17.9999C11.4178 17.9999 11.8041 17.8618 12.1215 17.6285C12.1664 17.5948 12.2143 17.5579 12.2592 17.5242C12.2742 17.5119 12.2892 17.4996 12.3041 17.4904C12.3341 17.4659 12.367 17.4413 12.4 17.4168C12.4179 17.4014 12.4359 17.3892 12.4539 17.3738C12.4808 17.3523 12.5108 17.3308 12.5377 17.3063C12.5557 17.291 12.5766 17.2756 12.5946 17.2603C12.6216 17.2388 12.6485 17.2173 12.6755 17.1958C12.6964 17.1805 12.7144 17.1651 12.7353 17.1467C12.7623 17.1252 12.7892 17.1038 12.8162 17.0823C12.8372 17.0669 12.8551 17.0516 12.8761 17.0332C12.903 17.0117 12.93 16.9902 12.9569 16.9687C12.9779 16.9534 12.9959 16.935 13.0168 16.9196C13.0438 16.8981 13.0707 16.8736 13.1007 16.8521C13.1216 16.8368 13.1396 16.8214 13.1606 16.803C13.1905 16.7785 13.2174 16.757 13.2474 16.7324C13.2654 16.7171 13.2833 16.7017 13.3013 16.6864C13.3342 16.6588 13.3672 16.6342 13.3971 16.6066C13.4121 16.5943 13.4271 16.5821 13.442 16.5698C13.4899 16.5299 13.5349 16.49 13.5828 16.4532C13.5888 16.447 13.5947 16.4409 13.6007 16.4378C13.6427 16.4041 13.6816 16.3703 13.7235 16.3365C13.7415 16.3212 13.7564 16.3089 13.7744 16.2936C13.8044 16.269 13.8343 16.2414 13.8642 16.2169C13.8822 16.2015 13.9032 16.1831 13.9211 16.1678C13.9481 16.1432 13.978 16.1187 14.005 16.0941C14.0259 16.0757 14.0469 16.0603 14.0649 16.0419C14.0918 16.0205 14.1188 15.9959 14.1457 15.9714C14.1667 15.9529 14.1876 15.9345 14.2086 15.9161C14.2356 15.8946 14.2625 15.8701 14.2865 15.8486C14.3074 15.8302 14.3284 15.8118 14.3493 15.7934C14.3763 15.7688 14.4032 15.7473 14.4272 15.7228C14.4482 15.7044 14.4691 15.6859 14.4901 15.6675C14.517 15.643 14.544 15.6215 14.5709 15.597C14.5919 15.5785 14.6129 15.5601 14.6308 15.5417C14.6578 15.5172 14.6847 15.4926 14.7117 15.4681C14.7296 15.4496 14.7506 15.4343 14.7686 15.4159C14.7985 15.3883 14.8314 15.3607 14.8614 15.333C14.8764 15.3208 14.8913 15.3054 14.9063 15.2931C14.9512 15.2502 14.9991 15.2103 15.0441 15.1673C15.059 15.155 15.074 15.1397 15.089 15.1274C15.1189 15.0998 15.1519 15.0691 15.1818 15.0415C15.1998 15.0231 15.2207 15.0047 15.2387 14.9893C15.2656 14.9648 15.2926 14.9402 15.3195 14.9157C15.3405 14.8973 15.3615 14.8758 15.3824 14.8574C15.4064 14.8328 15.4333 14.8113 15.4573 14.7868C15.4782 14.7653 15.4992 14.7469 15.5202 14.7254C15.5441 14.7039 15.5681 14.6794 15.592 14.6579C15.613 14.6364 15.634 14.618 15.6579 14.5965C15.6819 14.575 15.7058 14.5505 15.7298 14.529C15.7507 14.5075 15.7717 14.4891 15.7927 14.4676C15.8166 14.4461 15.8406 14.4216 15.8645 14.4001C15.8855 14.3786 15.9065 14.3602 15.9274 14.3387C15.9514 14.3172 15.9753 14.2927 15.9993 14.2712C16.0202 14.2497 16.0412 14.2313 16.0622 14.2098C16.0861 14.1853 16.1101 14.1638 16.134 14.1393C16.155 14.1178 16.176 14.0994 16.1969 14.0779C16.2239 14.0533 16.2478 14.0288 16.2748 14.0042C16.2927 13.9858 16.3107 13.9674 16.3317 13.949C16.3736 13.906 16.4155 13.8661 16.4604 13.8232C16.4814 13.8047 16.4993 13.7833 16.5203 13.7649C16.5443 13.7403 16.5682 13.7188 16.5922 13.6943C16.6131 13.6728 16.6341 13.6513 16.6551 13.6298C16.676 13.6083 16.7 13.5869 16.7209 13.5654C16.7419 13.5439 16.7629 13.5224 16.7868 13.5009C16.8078 13.4795 16.8287 13.458 16.8497 13.4365C16.8707 13.415 16.8946 13.3935 16.9156 13.369C16.9365 13.3475 16.9575 13.326 16.9785 13.3076C16.9994 13.2861 17.0234 13.2616 17.0443 13.2401C17.0653 13.2186 17.0863 13.1971 17.1042 13.1787C17.1252 13.1572 17.1491 13.1327 17.1701 13.1112C17.1911 13.0897 17.209 13.0713 17.23 13.0498C17.251 13.0283 17.2749 13.0038 17.2959 12.9823C17.3138 12.9639 17.3348 12.9424 17.3528 12.924C17.3737 12.9025 17.3977 12.878 17.4186 12.8565C17.4366 12.8381 17.4546 12.8166 17.4725 12.7982C17.4935 12.7736 17.5175 12.7521 17.5384 12.7276C17.5564 12.7092 17.5714 12.6908 17.5893 12.6754C17.6402 12.6202 17.6911 12.568 17.742 12.5128C17.751 12.5036 17.763 12.4913 17.772 12.4821C17.7959 12.4575 17.8169 12.433 17.8409 12.4084C17.8558 12.39 17.8738 12.3747 17.8888 12.3563C17.9097 12.3317 17.9337 12.3072 17.9546 12.2857C17.9726 12.2673 17.9876 12.2488 18.0056 12.2304C18.0265 12.2059 18.0475 12.1844 18.0714 12.1598C18.0864 12.1414 18.1044 12.123 18.1193 12.1077C18.1403 12.0831 18.1613 12.0616 18.1822 12.0371C18.1972 12.0187 18.2152 12.0003 18.2301 11.9819C18.2511 11.9573 18.2721 11.9358 18.293 11.9113C18.308 11.8929 18.326 11.8744 18.3409 11.856C18.3619 11.8315 18.3828 11.81 18.4038 11.7854C18.4188 11.767 18.4338 11.7486 18.4517 11.7333C18.4727 11.7087 18.4936 11.6872 18.5146 11.6627C18.5296 11.6474 18.5445 11.6289 18.5595 11.6136C18.5805 11.589 18.6014 11.5645 18.6224 11.543C18.6344 11.5277 18.6494 11.5123 18.6613 11.497C18.6823 11.4724 18.7033 11.4479 18.7272 11.4203C18.7332 11.4111 18.7422 11.4018 18.7482 11.3957C18.8021 11.3343 18.853 11.273 18.9039 11.2116C18.9099 11.2054 18.9159 11.1962 18.9218 11.1901C18.9428 11.1655 18.9638 11.141 18.9847 11.1134C18.9967 11.098 19.0087 11.0858 19.0207 11.0704C19.0386 11.0459 19.0596 11.0244 19.0776 10.9998C19.0895 10.9845 19.1045 10.9691 19.1165 10.9538C19.1345 10.9323 19.1524 10.9078 19.1704 10.8863C19.1824 10.8709 19.1973 10.8556 19.2093 10.8372C19.2273 10.8157 19.2452 10.7911 19.2632 10.7697C19.2752 10.7543 19.2872 10.739 19.3021 10.7236C19.3201 10.7021 19.3381 10.6807 19.356 10.6561C19.368 10.6408 19.38 10.6254 19.392 10.6101C19.4099 10.5886 19.4279 10.5671 19.4429 10.5426C19.4549 10.5272 19.4668 10.5119 19.4788 10.4965C19.4968 10.4751 19.5118 10.4536 19.5297 10.429C19.5417 10.4137 19.5507 10.4014 19.5627 10.3861C19.5806 10.3646 19.5986 10.34 19.6136 10.3185C19.6225 10.3063 19.6315 10.294 19.6405 10.2817C19.6585 10.2572 19.6764 10.2326 19.6944 10.2111C19.7333 10.159 19.7693 10.1099 19.8052 10.0608C19.8112 10.0516 19.8202 10.0423 19.8262 10.0331C19.8621 9.98404 19.898 9.93187 19.934 9.88277C19.9669 9.83367 19.9998 9.78763 20.0328 9.7416C20.0418 9.72932 20.0478 9.72012 20.0567 9.70784C20.0897 9.66181 20.1196 9.61578 20.1496 9.56975C20.1675 9.54213 20.1855 9.51451 20.2035 9.48689C20.2184 9.46234 20.2334 9.44085 20.2484 9.4163H14.5739L12.6964 13.8324Z" fill="#F15959"/>
</svg>
