<svg width="150" height="150" viewBox="0 0 150 150" fill="none" xmlns="http://www.w3.org/2000/svg">
<circle cx="75" cy="75" r="72.5" fill="url(#paint0_linear_382_3295)" stroke="white" stroke-width="5"/>
<g clip-path="url(#clip0_382_3295)">
<path d="M95.2782 74.198C100.044 67.3934 102.564 59.4054 102.564 51.0977V32.575C102.564 31.6603 101.928 30.8676 101.035 30.6685L75.8156 25.0463C75.5356 24.9846 75.2457 24.9846 74.9657 25.0463L49.7467 30.6685C48.8533 30.8676 48.2185 31.6603 48.2185 32.575V51.0977C48.2185 59.4054 50.7377 67.3934 55.5038 74.1973C60.2699 81.0019 66.9159 86.0991 74.7238 88.9388C74.939 89.0166 75.1656 89.0563 75.3906 89.0563C75.6165 89.0563 75.8431 89.0166 76.0582 88.9388C83.8661 86.0999 90.5121 81.0019 95.2782 74.198ZM75.3906 85.0173C68.6295 82.4103 62.87 77.9059 58.7036 71.9565C54.3998 65.8126 52.1248 58.5997 52.1248 51.0977V34.1406L75.3906 28.9541L98.6573 34.1406V51.0977C98.6573 58.5989 96.3822 65.8118 92.0784 71.9565C87.9112 77.9059 82.1518 82.4103 75.3906 85.0173Z" fill="white"/>
<path d="M95.3346 38.37C95.3346 37.4544 94.6998 36.6625 93.8064 36.4634L75.8163 32.4526C75.5363 32.3908 75.2456 32.3908 74.9656 32.4526L56.9747 36.4634C55.9219 36.6984 55.2589 37.7421 55.4939 38.7949C55.7281 39.8478 56.7725 40.5108 57.8246 40.2758L75.3906 36.3604L91.4284 39.9355V51.0981C91.4284 57.1085 89.6057 62.8871 86.158 67.8103C83.3877 71.7654 79.6783 74.9697 75.3906 77.1235C71.1029 74.9705 67.3942 71.7654 64.624 67.8103C61.6416 63.5523 59.8502 58.5749 59.4444 53.4174C59.41 52.9871 59.3856 52.5523 59.3711 52.1235C59.3337 51.0447 58.4235 50.2016 57.3516 50.2383C56.2736 50.2757 55.4298 51.1797 55.4672 52.2578C55.4839 52.7438 55.5114 53.2374 55.5496 53.7241C56.0104 59.5767 58.0421 65.2224 61.4242 70.0511C64.7651 74.8202 69.3107 78.6288 74.5704 81.0641C74.8306 81.1847 75.1113 81.2449 75.3913 81.2449C75.6713 81.2449 75.9513 81.1847 76.2115 81.0641C81.472 78.6281 86.0176 74.8202 89.3577 70.0511C93.2678 64.4686 95.3354 57.9142 95.3354 51.0981V38.37H95.3346Z" fill="white"/>
<path d="M69.8264 61.2379C70.1682 61.6422 70.6588 61.8902 71.1875 61.9253C71.231 61.9283 71.2745 61.9298 71.318 61.9298C71.8001 61.9298 72.2678 61.7513 72.6279 61.4255L86.7881 48.6142C87.5876 47.891 87.6494 46.6558 86.9262 45.8555C86.2022 45.0559 84.967 44.9941 84.1674 45.7174L71.5049 57.1729L67.8908 52.8982C67.195 52.0749 65.9621 51.9712 65.1389 52.6677C64.3149 53.3643 64.2119 54.5965 64.9077 55.4204L69.8264 61.2379Z" fill="white"/>
<path d="M58.9439 89.6412C57.9147 88.2878 56.4185 87.4272 54.7317 87.2166C53.0448 87.0068 51.3831 87.4729 50.0526 88.5311C49.43 89.0263 48.9272 89.6199 48.548 90.2737L47.9743 89.526C47.4647 88.863 47.1847 88.0375 47.1847 87.2013V69.5812C47.1847 65.9817 44.2557 63.0527 40.6562 63.0527C37.2703 63.0527 34.4764 65.5949 34.1567 68.9648L32.0662 91.0115C31.8824 92.9425 32.4271 94.8582 33.6059 96.4146L50.2074 118.032V123.049C50.2074 124.128 51.0818 125.002 52.1606 125.002C53.2386 125.002 54.1137 124.128 54.1137 123.049V117.368C54.1137 116.938 53.971 116.52 53.7093 116.179L36.7118 94.0457C36.1327 93.2812 35.8642 92.3344 35.955 91.38L38.0462 69.334C38.1743 67.9798 39.2966 66.959 40.6562 66.959C42.1027 66.959 43.2784 68.1354 43.2784 69.5812V87.2013C43.2784 88.8935 43.846 90.5636 44.8768 91.9049L48.9654 97.2294C48.9715 97.2378 48.9776 97.2462 48.9837 97.2546L52.2826 101.551C52.9403 102.406 54.1663 102.567 55.0216 101.91C55.8769 101.253 56.0378 100.027 55.3809 99.1711L52.0713 94.8613C51.3046 93.8465 51.4877 92.3817 52.4856 91.5882C52.9868 91.1892 53.6132 91.0137 54.2487 91.0923C54.8843 91.1717 55.4481 91.4967 55.8357 92.0063L63.7206 102.369C65.2725 104.408 66.127 106.942 66.127 109.505V123.049C66.127 124.128 67.0013 125.002 68.0801 125.002C69.1589 125.002 70.0332 124.128 70.0332 123.049V109.505C70.0332 106.093 68.8957 102.719 66.8296 100.003L58.9439 89.6412Z" fill="white"/>
<path d="M118.168 91.0115L116.077 68.9648C115.757 65.5949 112.962 63.0527 109.577 63.0527C105.978 63.0527 103.049 65.9817 103.049 69.5812V87.2013C103.049 88.0375 102.768 88.863 102.259 89.526L101.685 90.2737C101.306 89.6206 100.803 89.027 100.181 88.5311C98.8503 87.4729 97.1886 87.0068 95.5017 87.2166C93.8149 87.4272 92.3188 88.2878 91.2895 89.6412L83.4045 100.003C81.3385 102.719 80.2002 106.093 80.2002 109.506V123.049C80.2002 124.128 81.0753 125.002 82.1533 125.002C83.2321 125.002 84.1065 124.128 84.1065 123.049V109.505C84.1065 106.942 84.9609 104.408 86.5128 102.369L94.3978 92.0063C94.7861 91.4967 95.3499 91.1724 95.9854 91.0923C96.621 91.0137 97.2474 91.1892 97.7486 91.5882C98.7458 92.3817 98.9296 93.8465 98.1621 94.8613L94.8532 99.1711C94.1964 100.027 94.3573 101.253 95.2126 101.91C96.0678 102.567 97.2939 102.406 97.9515 101.551L101.25 97.2546C101.256 97.247 101.261 97.2393 101.267 97.2317L105.357 91.9056C106.387 90.5636 106.955 88.8935 106.955 87.2013V69.5812C106.955 68.1354 108.131 66.959 109.577 66.959C110.937 66.959 112.059 67.9798 112.188 69.334L114.279 91.38C114.369 92.3352 114.101 93.2812 113.529 94.0358L96.5241 116.179C96.2624 116.52 96.1205 116.938 96.1205 117.369V123.049C96.1205 124.128 96.9948 125.002 98.0736 125.002C99.1524 125.002 100.027 124.128 100.027 123.049V118.032L116.635 96.4047C117.806 94.8582 118.351 92.9425 118.168 91.0115Z" fill="white"/>
<path d="M56.3156 46.8936C57.003 47.3521 57.9338 47.3231 58.5884 46.8188C59.2041 46.3442 59.4933 45.5157 59.2857 44.7634C59.0637 43.957 58.342 43.365 57.5035 43.3192C56.6734 43.2742 55.8899 43.7808 55.5855 44.5521C55.2513 45.3997 55.5603 46.3854 56.3156 46.8936Z" fill="white"/>
</g>
<defs>
<linearGradient id="paint0_linear_382_3295" x1="-70" y1="-105.5" x2="173.448" y2="-21.8312" gradientUnits="userSpaceOnUse">
<stop stop-color="#FFB1B1"/>
<stop offset="1" stop-color="#CA0000"/>
</linearGradient>
<clipPath id="clip0_382_3295">
<rect width="100" height="100" fill="white" transform="translate(25 25)"/>
</clipPath>
</defs>
</svg>
