<svg width="150" height="150" viewBox="0 0 150 150" fill="none" xmlns="http://www.w3.org/2000/svg">
<circle cx="75" cy="75" r="72.5" fill="url(#paint0_linear_382_3230)" stroke="white" stroke-width="5"/>
<g clip-path="url(#clip0_382_3230)">
<path d="M100.716 115.629C100.175 114.697 98.9799 114.379 98.0463 114.92L97.9711 114.963C97.0383 115.505 96.7209 116.7 97.2619 117.633C97.6242 118.257 98.2795 118.606 98.953 118.606C99.2854 118.606 99.6229 118.521 99.9313 118.342L100.006 118.298C100.939 117.757 101.257 116.562 100.716 115.629Z" fill="white"/>
<path d="M118.3 50.0154C111.624 38.452 100.844 30.1807 87.9471 26.7248C75.0502 23.269 61.5791 25.0426 50.0157 31.7186C38.4524 38.3945 30.1809 49.1742 26.7252 62.0713C23.2696 74.9684 25.043 88.4397 31.719 100.003C37.7074 110.375 47.2254 118.258 58.5196 122.199C63.8733 124.067 69.4621 125 75.0424 125C81.1098 125 87.1662 123.897 92.8911 121.697C93.8979 121.31 94.4002 120.18 94.0131 119.173C93.626 118.166 92.4959 117.663 91.4895 118.051C76.2512 123.908 59.7547 121.247 47.4299 111.996L49.1797 102.862L50.0229 102.588C53.209 101.553 54.959 98.1184 53.9242 94.932L53.3055 93.0279C53.1623 92.5873 53.1631 92.1215 53.3074 91.6813C53.8502 90.0266 53.6563 88.2162 52.7752 86.7139C51.8942 85.2117 50.4088 84.1584 48.6996 83.8242L44.2914 82.9629L35.786 76.4961C35.2764 76.1086 34.6094 75.9955 34.0004 76.1932L29.0207 77.8108C28.9151 76.0297 28.9135 74.2492 29.0139 72.4781C29.2104 72.6611 29.3383 72.7856 29.417 72.8672C29.5145 73.0295 29.6352 73.1783 29.7766 73.3072C30.1832 73.6776 30.5516 73.8455 31.325 73.8455C32.0358 73.8453 33.0879 73.7037 34.8252 73.4471C36.4729 73.2035 38.1119 72.9291 38.1281 72.9264C38.785 72.8164 39.3403 72.3789 39.6016 71.7666C39.8629 71.1541 39.794 70.4508 39.4188 69.9004L37.024 66.3879L40.4541 63.9352C40.6826 63.7717 40.8733 63.561 41.0129 63.3172L46.3299 54.035L48.4731 51.7385C50.6631 49.3912 51.2881 45.957 50.0651 42.9891C49.3436 41.2385 48.0834 39.7811 46.5073 38.7988C48.2143 37.4568 50.0344 36.2178 51.9688 35.1012C59.066 31.0035 66.8114 29.0178 74.4752 28.9418L70.9877 33.3166L58.0551 37.8504C57.5299 38.0344 57.108 38.434 56.8959 38.9484L53.2842 47.7039C53.0278 48.326 53.1092 49.0358 53.5 49.5834L58.775 56.9725C58.0196 57.6617 57.2842 58.6656 56.4059 59.9121C56.0207 60.4588 55.6571 60.975 55.4057 61.2645C55.1871 61.5164 54.9684 61.7625 54.7516 62.0063C53.617 63.2826 52.444 64.6027 51.6106 66.366C49.7782 70.2447 50.1483 74.7529 52.5764 78.1315C54.9242 81.3981 58.7949 83.0586 62.9262 82.5727C63.5992 82.4938 64.2268 82.3385 64.834 82.1881C66.5084 81.7738 67.0389 81.7324 67.576 82.2352C67.8373 82.4799 67.8614 82.5262 67.8561 83.3561C67.8524 83.8842 67.8483 84.5412 68.0303 85.2914C68.3219 86.4916 69.0756 87.3211 69.6811 87.9875C69.9821 88.3186 70.2934 88.6611 70.3893 88.891C70.9985 90.3508 70.7332 91.1592 70.152 92.9307C70.1022 93.0822 70.0514 93.2369 70.0004 93.3955C69.1174 96.1289 70.3483 98.8402 71.4342 101.232C71.7869 102.009 72.1199 102.742 72.3381 103.39C74.0942 108.601 75.4106 109.794 76.467 110.275C77.0203 110.526 77.593 110.637 78.1715 110.636C80.9869 110.636 83.9248 108.022 85.2744 106.365C86.1221 105.324 86.3309 104.282 86.4832 103.521C86.5592 103.143 86.619 102.844 86.733 102.648C86.9076 102.35 87.1133 102.118 87.3737 101.825C87.8973 101.235 88.5491 100.501 88.9711 99.1715C89.2918 98.1613 89.5248 97.9137 90.2965 97.0918C90.4309 96.949 90.5741 96.7963 90.7278 96.6291C93.3291 93.7984 92.6592 91.6361 91.9496 89.3467C91.3526 87.4203 92.3969 86.1883 94.9219 83.8369C96.0164 82.8176 97.1481 81.7637 98.0229 80.4973C98.4057 79.943 99.5703 78.2568 98.8496 76.5856C98.1432 74.9469 96.3477 74.6715 94.9051 74.4504C94.3354 74.3629 93.4744 74.2309 93.2004 74.0518C91.992 73.2617 91.2528 71.6129 90.5377 70.0182C90.3953 69.7008 90.2549 69.3875 90.1125 69.0834C89.8586 68.5408 89.6049 67.8844 89.3364 67.1895C88.6258 65.3504 87.8205 63.2658 86.4496 61.8127C85.2174 60.507 82.8946 59.8781 80.8451 59.3231C80.1559 59.1365 79.5053 58.9604 79.0762 58.802C78.7166 58.6692 78.3264 58.6451 77.9541 58.7326C76.9567 58.9664 76.3344 59.224 75.8723 59.5943C75.7502 59.6922 75.3887 60.0135 75.177 60.5299C74.4619 60.1867 73.4787 59.5315 72.8737 59.1281C72.8612 59.1197 72.8485 59.1113 72.836 59.1029C73.0399 58.2869 72.8553 57.632 72.6619 57.2231C71.5709 54.9152 67.9492 55.0959 67.2348 55.1567C66.8289 55.1906 66.3155 55.2088 65.7723 55.2279C64.9192 55.2582 63.9762 55.2922 63.0432 55.3969L63.0912 55.2629C63.7994 53.2897 65.6838 51.9639 67.7803 51.9639H68.8907C69.969 51.9639 70.8436 51.0893 70.8436 50.011C70.8436 48.9326 69.969 48.058 68.8907 48.058H67.7803C64.6678 48.058 61.8176 49.6961 60.2201 52.2744L57.3071 48.1938L60.1731 41.2467L72.8104 36.8162C73.1569 36.6947 73.4623 36.4779 73.6914 36.1906L79.3092 29.144C93.6635 30.5094 107.175 38.5574 114.918 51.968C116.98 55.5401 118.506 59.3006 119.52 63.1469L118.692 63.8852C117.611 64.8494 116.978 66.2324 116.954 67.6799C116.954 67.6957 116.953 67.7113 116.953 67.727L115.604 64.0176C115.403 63.4641 115.107 62.9565 114.724 62.509L112.318 59.692C111.386 58.6 110.027 57.974 108.592 57.974H105.647C104.601 57.974 103.646 58.5467 103.152 59.468C102.659 60.3895 102.713 61.5024 103.293 62.3719L103.591 62.8194C101.688 64.4559 99.4867 65.7654 97.143 66.6486L93.1059 58.9156V57.1904C93.1059 56.6568 92.8875 56.1461 92.5014 55.7779L88.8661 52.3074C88.6655 52.116 88.4264 51.9695 88.1649 51.8776L84.8924 50.7276C83.8742 50.3694 82.7598 50.9051 82.4024 51.9225C82.0448 52.9402 82.5797 54.0549 83.5973 54.4125L86.4731 55.4233L89.2 58.0262V59.3949C89.2 59.7096 89.2762 60.0197 89.4219 60.2988L94.476 69.9799C94.9305 70.851 95.9621 71.249 96.8828 70.9084L98.3545 70.3658C101.773 69.1049 104.942 67.0766 107.519 64.5004C108.177 63.842 108.28 62.811 107.763 62.0361L107.659 61.8801H108.592C108.883 61.8801 109.159 62.0072 109.349 62.2291L111.755 65.0461C111.832 65.1369 111.892 65.2397 111.933 65.3524L114.589 72.6537C114.817 73.2811 115.349 73.7483 116.001 73.8928C116.141 73.9238 116.283 73.9391 116.424 73.9391C116.936 73.9391 117.435 73.7373 117.805 73.367L119.068 72.1031C119.869 71.3026 120.42 70.2897 120.683 69.1668C122.638 84.8318 116.495 101.037 103.512 111.227C102.664 111.893 102.515 113.12 103.182 113.969C103.847 114.817 105.075 114.965 105.924 114.299C115.297 106.942 121.737 96.4199 124.056 84.6701C126.397 72.807 124.353 60.4994 118.3 50.0154ZM34.2352 80.2238L42.2885 86.3471C42.5266 86.5281 42.8028 86.652 43.0961 86.7092L47.95 87.6576C48.5696 87.7787 49.0864 88.1451 49.4057 88.6897C49.725 89.234 49.7922 89.8639 49.5957 90.4637C49.1914 91.6967 49.1895 93.0008 49.5905 94.2346L50.2092 96.1385C50.5789 97.2764 49.9535 98.5031 48.8158 98.8729L46.875 99.5035C46.1979 99.7234 45.6944 100.295 45.5606 100.993L43.9985 109.147C40.5643 106.004 37.549 102.289 35.1016 98.0502C32.1156 92.8789 30.25 87.3631 29.4278 81.7857L34.2352 80.2238ZM45.6174 49.0736L43.3199 51.5352C43.2174 51.6451 43.1278 51.7666 43.053 51.8971L37.8358 61.0057L33.1989 64.3213C32.3352 64.9389 32.1231 66.1328 32.7211 67.0102L34.4553 69.5539C33.4557 69.7028 32.5586 69.8254 31.9621 69.8904C31.8475 69.7805 31.7276 69.669 31.6035 69.5537C31.1393 69.1225 30.4942 68.5465 29.5324 67.7049C31.1186 57.8879 35.849 48.6395 43.2889 41.5799C44.7135 42.0285 45.8826 43.0912 46.4537 44.4774C47.0963 46.0363 46.7678 47.8406 45.6174 49.0736ZM61.5412 59.7461C62.4123 59.2559 64.4342 59.1842 65.9104 59.1318C66.502 59.111 67.061 59.091 67.5602 59.0492C67.8237 59.0272 68.1162 59.0313 68.3922 59.0527C68.269 59.3692 68.2289 59.7164 68.2824 60.061C68.3764 60.667 68.75 61.1934 69.2907 61.4826C69.6571 61.6787 70.167 62.0188 70.7069 62.3787C72.2332 63.3963 73.9635 64.5496 75.5889 64.6531C77.067 64.749 77.8895 63.9067 78.2418 63.5479C78.27 63.5193 78.2965 63.4908 78.3246 63.4649C78.5231 63.3031 78.709 63.0863 78.8473 62.8248C79.1596 62.9141 79.4877 63.0029 79.8241 63.0942C80.9805 63.4072 83.133 63.9901 83.6086 64.494C84.4534 65.3895 85.1117 67.094 85.6928 68.5977C85.9864 69.3576 86.2637 70.0748 86.5748 70.7399C86.7084 71.0252 86.8399 71.3192 86.9735 71.6168C87.8746 73.627 88.8961 75.9055 91.0631 77.3219C92.0457 77.9643 93.2502 78.1488 94.3131 78.3119C94.4416 78.3316 94.5889 78.3543 94.7385 78.3789C94.1077 79.259 93.2094 80.0953 92.2604 80.9791C89.8426 83.2307 86.8336 86.033 88.2194 90.5035C88.8735 92.6145 88.9039 92.8426 87.8522 93.9867C87.7088 94.1428 87.5752 94.285 87.45 94.4182C86.5493 95.3772 85.8377 96.1346 85.2487 97.99C85.0776 98.5289 84.8559 98.7785 84.4533 99.2317C84.1315 99.5941 83.7305 100.046 83.3608 100.679C82.9178 101.437 82.7713 102.167 82.6539 102.753C82.5381 103.33 82.4725 103.62 82.2459 103.898C81.7301 104.531 80.768 105.451 79.7803 106.079C78.8623 106.661 78.3264 106.741 78.1438 106.73C77.9354 106.507 77.1805 105.528 76.0399 102.143C75.7586 101.308 75.3684 100.448 74.991 99.6174C74.1592 97.7854 73.2992 95.8908 73.7176 94.5961C73.767 94.4434 73.8158 94.2942 73.8639 94.1483C74.5323 92.1111 75.1631 90.1875 73.9944 87.3867C73.6385 86.5338 73.0719 85.9106 72.5725 85.3606C72.2492 85.0049 71.883 84.6018 71.8266 84.3697C71.7578 84.0867 71.76 83.76 71.7625 83.3817C71.7692 82.3611 71.7793 80.8191 70.2463 79.3836C68.085 77.3606 65.5647 77.9838 63.8967 78.3963C63.3844 78.5229 62.9004 78.6428 62.4715 78.6932C59.7278 79.0147 57.2782 77.9795 55.7489 75.8514C54.149 73.6254 53.9168 70.6299 55.143 68.0342C55.7366 66.7781 56.6332 65.769 57.6715 64.601C57.8983 64.3457 58.1272 64.0883 58.3561 63.8246C58.7369 63.3856 59.1561 62.791 59.5992 62.1615C60.1283 61.4106 61.1135 60.0121 61.5412 59.7461Z" fill="white"/>
<path d="M105.082 92.2415L104.143 88.6997C103.938 87.9263 103.281 87.3563 102.487 87.2614C101.692 87.1685 100.92 87.5661 100.538 88.2694C100.324 88.664 100.132 89.0819 99.9453 89.486C99.6319 90.1659 99.3076 90.869 98.9703 91.2571C98.7809 91.4751 98.2942 91.7101 97.8238 91.937C96.6994 92.4796 95.1594 93.2227 94.5711 95.0981C94.2059 96.2614 94.3422 97.1817 94.4418 97.8536C94.5279 98.4362 94.5479 98.6382 94.3918 99.0046L94.3723 99.0501C93.7506 100.509 92.594 103.225 94.2158 105.533C95.3731 107.181 96.5899 107.605 97.5354 107.605C97.7199 107.605 97.8945 107.589 98.0561 107.563C100.048 107.237 101.546 105.165 102.77 101.041L105.067 93.2983C105.169 92.954 105.175 92.5884 105.082 92.2415ZM99.0254 99.9296C98.4016 102.032 97.8496 103.014 97.5311 103.449C97.4944 103.402 97.4545 103.349 97.4119 103.288C97.0387 102.757 97.5965 101.447 97.9656 100.581L97.9854 100.535C98.5807 99.1378 98.4215 98.0647 98.3057 97.2811C98.2313 96.7794 98.2047 96.5638 98.2979 96.2675C98.3744 96.0239 98.832 95.7876 99.5215 95.4548C99.8272 95.3071 100.164 95.1448 100.503 94.9483L99.0254 99.9296Z" fill="white"/>
<path d="M77.7403 48.215L77.6084 48.1689C76.5914 47.8127 75.4762 48.3476 75.1192 49.3654C74.7621 50.3834 75.2979 51.4976 76.3156 51.8547L76.4473 51.9007C76.6612 51.9757 76.8791 52.0113 77.0938 52.0113C77.9 52.0113 78.6547 51.508 78.9367 50.7043C79.2938 49.6863 78.758 48.5718 77.7403 48.215Z" fill="white"/>
</g>
<defs>
<linearGradient id="paint0_linear_382_3230" x1="103.642" y1="115.092" x2="-46.173" y2="-18.7965" gradientUnits="userSpaceOnUse">
<stop stop-color="#0082FF"/>
<stop offset="1" stop-color="#00D1FF"/>
</linearGradient>
<clipPath id="clip0_382_3230">
<rect width="100" height="100" fill="white" transform="translate(25 25)"/>
</clipPath>
</defs>
</svg>
