<svg width="260" height="260" viewBox="0 0 260 260" fill="none" xmlns="http://www.w3.org/2000/svg">
<g filter="url(#filter0_d_382_3146)">
<circle cx="130" cy="110" r="100" fill="#EFF6FE"/>
</g>
<path d="M158.12 112.216V96.957H150.226V105.124L158.12 112.216Z" fill="#FF80A9"/>
<path d="M153.672 96.957V108.231L158.12 112.216V96.957H153.672Z" fill="#9E1219"/>
<path d="M132.565 99.2037C131.039 97.8357 128.955 97.8357 127.429 99.2037L97.2949 126.304V156.394H162.716V126.304L132.565 99.2037Z" fill="#E0E0E0"/>
<path d="M158.284 122.318V156.394H162.715V126.304L158.284 122.318Z" fill="#C4C4C4"/>
<path d="M169.445 122.415L132.565 89.2387C131.039 87.871 128.955 87.871 127.429 89.2387L90.5655 122.415C89.0884 123.744 88.8093 126.225 89.909 127.984C91.025 129.742 93.1095 130.074 94.5866 128.765L127.445 99.2234C128.971 97.8554 131.056 97.8554 132.582 99.2234L165.424 128.746C166.901 130.074 168.985 129.723 170.101 127.964C171.217 126.225 170.922 123.724 169.445 122.415Z" fill="#FF3D43"/>
<path d="M165.424 123.451L132.565 93.9087C131.039 92.5409 128.955 92.5409 127.429 93.9087L94.5866 123.451C93.1916 124.702 91.2385 124.448 90.0896 122.924C89.0556 124.311 88.9407 126.421 89.9091 127.965C91.0251 129.723 93.1095 130.055 94.5866 128.746L127.445 99.2032C128.971 97.8362 131.056 97.8362 132.582 99.2032L165.424 128.746C166.901 130.075 168.985 129.723 170.101 127.965C171.086 126.421 170.971 124.311 169.921 122.924C168.788 124.467 166.819 124.721 165.424 123.451Z" fill="#D72E2E"/>
<path d="M136.833 156.393H123.194V137.558C123.194 133.084 126.247 129.449 130.022 129.449C133.797 129.449 136.849 133.084 136.849 137.558V156.393H136.833Z" fill="#6E563D"/>
<path d="M130.005 129.449C129.234 129.449 128.479 129.606 127.789 129.899C130.464 130.993 132.385 134.002 132.385 137.558V156.393H136.817V137.558C136.833 133.084 133.78 129.449 130.005 129.449Z" fill="#604B35"/>
<path d="M113.921 141.194H107.454C106.518 141.194 105.763 140.295 105.763 139.182V131.483C105.763 130.37 106.518 129.471 107.454 129.471H113.921C114.856 129.471 115.611 130.37 115.611 131.483V139.182C115.627 140.295 114.856 141.194 113.921 141.194Z" fill="#8CC7EC"/>
<path d="M146.254 141.194H152.721C153.656 141.194 154.411 140.295 154.411 139.182V131.483C154.411 130.37 153.656 129.471 152.721 129.471H146.254C145.318 129.471 144.563 130.37 144.563 131.483V139.182C144.547 140.295 145.318 141.194 146.254 141.194Z" fill="#8CC7EC"/>
<path d="M113.921 129.449H109.49C110.425 129.449 111.18 130.348 111.18 131.462V139.16C111.18 140.274 110.425 141.173 109.49 141.173H113.921C114.856 141.173 115.611 140.274 115.611 139.16V131.462C115.628 130.348 114.856 129.449 113.921 129.449Z" fill="#66BAEA"/>
<path d="M152.72 129.449H148.289C149.224 129.449 149.98 130.348 149.98 131.462V139.16C149.98 140.274 149.224 141.173 148.289 141.173H152.72C153.656 141.173 154.411 140.274 154.411 139.16V131.462C154.411 130.348 153.656 129.449 152.72 129.449Z" fill="#66BAEA"/>
<path d="M170.2 121.244L159.352 111.494V96.9767C159.352 96.1756 158.793 95.5113 158.12 95.5113H150.226C149.553 95.5113 148.995 96.1756 148.995 96.9767V102.174L133.321 88.0865C131.368 86.328 128.643 86.328 126.707 88.0865L104.123 108.388C103.581 108.876 103.466 109.795 103.877 110.439C104.287 111.084 105.058 111.221 105.6 110.732L128.183 90.4312C129.25 89.4738 130.76 89.4738 131.827 90.4312L168.707 123.589C169.626 124.429 169.822 125.992 169.117 127.086C168.411 128.181 167.098 128.415 166.179 127.575L133.321 98.0316C131.368 96.2733 128.643 96.2733 126.707 98.0316L93.8319 127.575C92.9128 128.415 91.5834 128.181 90.8941 127.086C90.1883 125.992 90.3853 124.41 91.3043 123.589L101.661 114.269C102.202 113.78 102.317 112.862 101.907 112.217C101.497 111.573 100.725 111.436 100.184 111.924L89.8108 121.244C87.8085 123.042 87.3981 126.461 88.9245 128.864C90.4345 131.248 93.3067 131.737 95.3254 129.919L96.0641 129.255V156.395C96.0641 157.196 96.6221 157.86 97.295 157.86H162.716C163.389 157.86 163.947 157.196 163.947 156.395V146.098C163.947 145.296 163.389 144.632 162.716 144.632C162.043 144.632 161.485 145.296 161.485 146.098V154.929H138.064V137.579C138.064 132.284 134.453 127.985 130.005 127.985C125.557 127.985 121.947 132.284 121.947 137.579V154.929H98.5259V127.028L128.183 100.357C129.25 99.3996 130.76 99.3996 131.827 100.357L161.485 127.028V140.216C161.485 141.017 162.043 141.682 162.716 141.682C163.389 141.682 163.947 141.017 163.947 140.216V129.236L164.686 129.9C165.506 130.642 166.474 130.994 167.427 130.994C168.805 130.994 170.184 130.252 171.07 128.845C172.596 126.461 172.202 123.042 170.2 121.244ZM151.456 98.4416H156.89V109.287L151.456 104.402V98.4416ZM124.408 137.579C124.408 133.905 126.92 130.916 130.005 130.916C133.091 130.916 135.602 133.905 135.602 137.579V154.929H124.425V137.579H124.408Z" fill="#333333"/>
<path d="M107.454 127.984C105.846 127.984 104.533 129.547 104.533 131.462V139.16C104.533 141.075 105.846 142.638 107.454 142.638H113.921C115.529 142.638 116.842 141.075 116.842 139.16V131.462C116.842 129.547 115.529 127.984 113.921 127.984H107.454ZM114.38 131.462V139.16C114.38 139.473 114.167 139.707 113.921 139.707H107.454C107.192 139.707 106.995 139.453 106.995 139.16V131.462C106.995 131.149 107.208 130.915 107.454 130.915H113.921C114.183 130.915 114.38 131.169 114.38 131.462Z" fill="#333333"/>
<path d="M146.254 127.984C144.645 127.984 143.333 129.547 143.333 131.462V139.16C143.333 141.075 144.645 142.638 146.254 142.638H152.72C154.329 142.638 155.642 141.075 155.642 139.16V131.462C155.642 129.547 154.329 127.984 152.72 127.984H146.254ZM153.18 131.462V139.16C153.18 139.473 152.967 139.707 152.72 139.707H146.254C145.991 139.707 145.795 139.453 145.795 139.16V131.462C145.795 131.149 146.008 130.915 146.254 130.915H152.72C152.983 130.915 153.18 131.169 153.18 131.462Z" fill="#333333"/>
<path d="M167.751 76.8929L167.99 76.5199V76.4307C168.009 76.3929 168.03 76.3512 168.051 76.3085C168.101 76.2026 168.184 76.0266 168.246 75.8204C168.732 74.6176 169 73.3031 169 71.933C169 66.4419 164.709 62 159.391 62C157.171 62 155.144 62.779 153.524 64.0695C151.904 62.779 149.877 62 147.656 62C142.285 62 138 66.4976 138 71.9828C138 73.3852 138.281 74.7294 138.787 75.9551L138.804 75.9951L138.823 76.034C138.896 76.1855 138.954 76.3077 139.009 76.4384V76.5698L139.249 76.9428C139.346 77.0926 139.396 77.1736 139.448 77.2816C139.513 77.416 139.579 77.5185 139.606 77.5604C139.607 77.5617 139.608 77.5629 139.608 77.5641L139.64 77.6293L139.701 77.7195C141.833 80.8797 146.713 85.8758 151.082 89.1902C151.829 89.7841 152.698 90 153.524 90C154.444 90 155.259 89.6821 155.898 89.2399L155.928 89.2194L155.956 89.1974C160.266 85.8942 165.221 80.8811 167.321 77.5869L167.368 77.5117L167.391 77.4644L167.394 77.4607C167.414 77.4303 167.453 77.368 167.498 77.2847L167.606 77.1175L167.751 76.8929Z" fill="#0082FF" stroke="#333333" stroke-width="3"/>
<path d="M148 72.0001C148 70.3404 146.883 69 145.5 69C144.117 69 143 70.3404 143 72.0001C143 73.6596 144.117 75 145.5 75C146.883 74.9788 148 73.6383 148 72.0001Z" fill="#333333"/>
<path d="M165 72.0001C165 70.3404 163.66 69 162 69C160.34 69 159 70.3404 159 72.0001C159 73.6596 160.34 75 162 75C163.66 74.9788 165 73.6383 165 72.0001Z" fill="#333333"/>
<path d="M153.505 81C156.008 81 158.187 79.6644 158.934 77.6525C159.176 76.9762 158.732 76.2661 157.945 76.0632C157.138 75.8604 156.29 76.2323 156.048 76.8916C155.704 77.8216 154.675 78.4471 153.505 78.4471C152.333 78.4471 151.305 77.8216 150.962 76.8916C150.719 76.2154 149.851 75.8434 149.064 76.0632C148.257 76.2661 147.813 76.9931 148.075 77.6525C148.822 79.6474 151.002 81 153.505 81Z" fill="#333333"/>
<defs>
<filter id="filter0_d_382_3146" x="0" y="0" width="260" height="260" filterUnits="userSpaceOnUse" color-interpolation-filters="sRGB">
<feFlood flood-opacity="0" result="BackgroundImageFix"/>
<feColorMatrix in="SourceAlpha" type="matrix" values="0 0 0 0 0 0 0 0 0 0 0 0 0 0 0 0 0 0 127 0" result="hardAlpha"/>
<feOffset dy="20"/>
<feGaussianBlur stdDeviation="15"/>
<feColorMatrix type="matrix" values="0 0 0 0 0 0 0 0 0 0.392974 0 0 0 0 0.770833 0 0 0 0.15 0"/>
<feBlend mode="normal" in2="BackgroundImageFix" result="effect1_dropShadow_382_3146"/>
<feBlend mode="normal" in="SourceGraphic" in2="effect1_dropShadow_382_3146" result="shape"/>
</filter>
</defs>
</svg>
