<svg width="260" height="260" viewBox="0 0 260 260" fill="none" xmlns="http://www.w3.org/2000/svg">
<g filter="url(#filter0_d_382_3091)">
<circle cx="130" cy="110" r="100" fill="#EFF6FE"/>
</g>
<path d="M149.021 125.744L136.225 131.019C136.382 130.55 136.636 130.12 136.968 129.73L144.313 121.232C145.72 119.61 148.181 119.435 149.803 120.841C151.053 121.916 151.444 123.615 150.916 125.08C149.939 125.256 149.158 125.686 149.021 125.744Z" fill="#E59770"/>
<path d="M140.484 125.665L136.968 129.729C136.636 130.119 136.382 130.569 136.225 131.018L149.021 125.743C149.158 125.685 149.939 125.255 150.936 125.06C151.346 123.887 151.17 122.579 150.447 121.543L140.484 125.665Z" fill="#DD855F"/>
<path d="M114.072 142.39C112.588 142.585 111.201 143.21 110.087 144.187L108.309 145.711L97.7795 133.521C100.378 131.293 103.171 129.281 106.16 127.582C109.481 125.667 110.829 125.472 117.901 124.71C120.226 124.515 121.378 125.003 130.892 127.718C134.331 128.695 133.569 132.016 133.569 132.016L149.002 125.648C149.295 125.491 152.889 123.499 154.862 126.742C156.601 129.789 153.651 131.997 153.065 132.387L133.412 143.64C130.502 145.535 127.474 145.144 126.126 144.832L118.487 142.663C116.71 142.175 115.518 142.194 114.072 142.39Z" fill="#F0A479"/>
<path d="M101.081 130.902C99.948 131.742 98.8345 132.621 97.76 133.539L108.29 145.729L110.067 144.206C110.556 143.795 111.083 143.444 111.65 143.151L101.081 130.902Z" fill="#E59770"/>
<path d="M109.833 147.194L96.6269 131.898C96.0799 131.253 95.1031 131.195 94.4584 131.742L84.2022 140.591C83.5966 141.119 83.538 142.017 84.0655 142.623L97.5841 158.017C98.0725 158.564 98.9125 158.662 99.4595 158.193C99.4595 158.193 99.4595 158.193 99.479 158.173L109.696 149.363C110.321 148.796 110.38 147.839 109.833 147.194Z" fill="#DD3232"/>
<path d="M86.2144 138.832L84.2022 140.571C83.5966 141.098 83.538 141.997 84.0655 142.603L97.5841 157.997C98.0725 158.544 98.9125 158.641 99.4595 158.172C99.4595 158.172 99.4595 158.172 99.479 158.153L101.608 156.317L86.2144 138.832Z" fill="#DD3232"/>
<path d="M124.836 88.8613C124.504 89.8185 124.797 89.3302 116.748 98.6491C115.342 100.27 112.88 100.446 111.259 99.0391C110.009 97.9651 109.618 96.2653 110.145 94.8001C110.868 94.6634 109.403 95.2104 124.836 88.8613Z" fill="#E59770"/>
<path d="M120.773 93.9992C124.406 89.799 124.523 89.7795 124.856 88.8418C109.442 95.2104 110.888 94.6634 110.165 94.8001C109.774 95.9136 109.911 97.1641 110.556 98.1801C111.122 98.0431 110.087 98.3951 120.773 93.9992Z" fill="#DD855F"/>
<path d="M150.994 75.6742L152.772 74.1504L163.302 86.3406C160.704 88.5677 157.91 90.5798 154.921 92.2794C151.6 94.1939 150.252 94.3893 143.18 95.1511C140.855 95.3465 139.703 94.8581 130.189 92.1427C126.751 91.1659 127.513 87.8448 127.513 87.8448L112.08 94.2134C111.787 94.3697 108.192 96.3624 106.219 93.1194C104.48 90.0719 107.43 87.8644 108.016 87.4737L127.669 76.2212C130.58 74.3262 133.608 74.717 134.956 75.0295L142.594 77.198C145.505 78.0185 148.728 77.6473 150.994 75.6742Z" fill="#F0A479"/>
<path d="M146.481 77.9989C149.392 78.8194 152.557 78.4482 154.843 76.5338L152.791 74.1504L151.014 75.6742C149.373 77.1003 147.361 77.6473 145.134 77.5887L146.481 77.9989Z" fill="#E59770"/>
<path d="M111.904 88.276L131.556 77.0235C133.432 75.8123 135.346 75.5193 136.85 75.5779L134.936 75.0309C133.608 74.7183 130.56 74.3276 127.649 76.2226L107.996 87.4751C107.41 87.8658 104.461 90.0733 106.199 93.1208C107.489 95.2307 109.442 95.1135 110.751 94.7423C108.68 92.6911 109.481 89.8584 111.904 88.276Z" fill="#E59770"/>
<path d="M151.229 72.6656L164.435 87.9619C164.982 88.6066 165.959 88.6653 166.603 88.1183L176.859 79.2687C177.465 78.7411 177.524 77.8426 176.996 77.237L163.497 61.8624C163.009 61.3154 162.169 61.2178 161.622 61.6867C161.622 61.6867 161.622 61.6867 161.602 61.7062L151.385 70.5167C150.76 71.0637 150.682 72.0404 151.229 72.6656Z" fill="#C20B0B"/>
<path d="M153.456 68.7402L151.405 70.5179C150.76 71.0649 150.701 72.0417 151.248 72.6864L164.454 87.9827C165.001 88.6274 165.978 88.686 166.623 88.139L168.674 86.3613L153.456 68.7402Z" fill="#333333"/>
<path d="M177.445 75.8897L164.63 60.9645C164.61 60.945 164.571 60.9059 164.552 60.8864C163.438 59.7729 161.621 59.6947 160.43 60.7301L150.213 69.5406C149.607 70.0681 149.236 70.7909 149.177 71.5919C149.119 72.3928 149.373 73.1547 149.9 73.7603L150.291 74.2292L149.627 74.7957C147.888 76.2999 145.251 76.7493 142.594 76.0069C142.535 75.9874 134.975 73.8385 134.916 73.8385C133.529 73.5259 129.974 73.018 126.555 75.2059C126.497 75.245 106.981 86.3998 106.922 86.4389C105.144 87.5915 102.663 90.5023 104.656 94.0187C104.656 94.0382 104.675 94.0382 104.675 94.0578C105.535 95.4643 106.766 96.2848 108.211 96.5192C108.27 97.945 108.895 99.332 110.048 100.309C112.255 102.224 115.615 101.97 117.51 99.762L124.738 91.4009C125.031 91.0688 125.285 90.6976 125.481 90.2874L125.774 90.1702C126.164 91.6353 127.239 93.081 129.407 93.7061C138.491 96.2848 140.367 97.027 142.906 96.7537C149.998 95.9918 151.619 95.7573 155.175 93.7061C157.734 92.2214 160.234 90.5023 162.618 88.5683L163.048 89.0762C164.142 90.3265 166.017 90.4632 167.267 89.3888L176.996 80.9885C178.559 79.6796 178.735 77.3939 177.445 75.8897ZM119.835 92.6512L115.322 97.867C113.857 99.567 111.083 98.434 111.181 96.2457C111.181 96.2262 119.835 92.6512 119.835 92.6512ZM153.768 91.1665C150.74 92.9052 149.705 93.081 142.672 93.8429C140.738 94.0578 139.234 93.4522 130.247 90.893C129.095 90.5609 128.802 89.9553 128.665 89.5255C128.489 88.9394 128.606 88.3729 128.606 88.3729V88.3534C128.606 88.3338 128.606 88.3338 128.606 88.3143C128.606 88.3143 128.704 87.9236 128.958 87.5719C129.173 87.2789 129.505 86.9859 130.286 87.1031C133.06 87.4938 139.663 88.3729 139.722 88.3729C140.523 88.4706 141.265 87.9236 141.363 87.1226C141.461 86.3217 140.914 85.5793 140.113 85.4816C140.054 85.4816 133.451 84.583 130.677 84.2118C128.079 83.8602 126.555 85.4621 125.95 86.9663L123.82 87.8454C106.961 94.8001 110.751 93.2959 109.501 93.6475C107.137 93.9796 105.535 90.9125 108.485 88.9394L128.04 77.7456C128.059 77.726 128.079 77.726 128.118 77.7065C130.56 76.1046 133.178 76.4562 134.213 76.7102L141.773 78.8591C145.387 79.8749 149.021 79.2107 151.522 77.0423L152.186 76.4758C153.299 77.7651 159.746 85.2277 160.742 86.3803C158.515 88.158 156.171 89.7795 153.768 91.1665ZM175.14 78.7614C175.101 78.7809 165.411 87.1812 165.372 87.1812C165.314 87.1812 152.029 71.8263 152.127 71.7677L162.344 62.9571C162.364 62.9376 162.383 62.9376 162.422 62.9376C162.442 62.9376 162.461 62.9376 162.481 62.9571L175.238 77.8237C175.453 78.0777 175.433 78.527 175.14 78.7614Z" fill="#333333"/>
<path d="M152.342 123.556C152.166 118.829 146.208 116.66 143.043 120.313L135.815 128.675C135.522 129.007 135.268 129.378 135.073 129.788L134.78 129.905C134.389 128.44 133.315 126.995 131.146 126.369C121.535 123.634 120.284 123.107 117.667 123.322H117.647C110.556 124.084 108.934 124.318 105.379 126.369C102.82 127.854 100.319 129.573 97.9357 131.507L97.5059 130.999C96.4315 129.749 94.5365 129.612 93.2862 130.687L83.0105 139.536C81.7798 140.591 81.6626 142.428 82.7175 143.639L96.2361 159.033C97.252 160.185 99.0102 160.322 100.163 159.365L100.182 159.345L110.399 150.535C111.65 149.46 111.786 147.565 110.712 146.315L110.321 145.846L110.985 145.28C112.724 143.776 115.361 143.326 118.018 144.069L124.817 146.003C125.598 146.218 126.399 145.768 126.633 144.987C126.848 144.205 126.399 143.404 125.618 143.17L118.819 141.236C115.205 140.22 111.571 140.884 109.071 143.053L108.407 143.619L99.8502 133.715C102.097 131.898 104.441 130.277 106.844 128.889C109.892 127.131 110.907 126.975 117.96 126.213C119.601 126.076 120.636 126.369 126.301 127.991C130.677 129.241 131.576 129.261 131.947 130.53C132.123 131.117 132.006 131.683 132.006 131.683C131.928 131.996 131.791 132.269 131.654 132.484C131.439 132.777 131.107 133.07 130.326 132.953C127.552 132.562 120.949 131.683 120.89 131.683C120.089 131.585 119.347 132.132 119.249 132.933C119.151 133.734 119.698 134.477 120.499 134.574C120.558 134.574 127.161 135.473 129.935 135.844C132.221 136.157 133.92 134.926 134.643 133.09C134.721 133.051 149.392 127.014 149.47 126.975C151.014 126.194 152.479 126.018 153.397 127.483C154.452 129.378 152.577 130.784 152.108 131.117L132.553 142.31L132.533 142.33C132.514 142.33 132.494 142.349 132.494 142.369C132.162 142.584 131.83 142.76 131.459 142.936C130.716 143.268 130.384 144.127 130.716 144.87C131.048 145.612 131.908 145.944 132.65 145.612C133.139 145.397 133.608 145.143 134.037 144.85C134.096 144.811 153.612 133.656 153.671 133.617C158.945 130.159 156.406 124.201 152.342 123.556ZM98.3655 157.04L84.9446 141.744L95.1812 132.914C95.1812 132.914 95.2007 132.894 95.2203 132.894C95.2398 132.894 95.2593 132.914 95.2593 132.914C96.6464 134.516 107.059 146.589 108.465 148.21C108.465 148.21 108.485 148.23 108.485 148.249C108.485 148.308 98.4046 157.001 98.3655 157.04ZM145.27 122.208C146.716 120.528 149.51 121.603 149.412 123.83L140.758 127.405L145.27 122.208Z" fill="#333333"/>
<path d="M140.368 111.253L140.625 110.873V110.781C140.663 110.704 140.724 110.577 140.775 110.423C141.14 109.553 141.343 108.6 141.343 107.606C141.343 103.576 138.05 100.387 134.061 100.387C132.504 100.387 131.069 100.873 129.887 101.692C128.706 100.873 127.271 100.387 125.713 100.387C121.684 100.387 118.397 103.615 118.397 107.64C118.397 108.665 118.613 109.646 119 110.538L119.017 110.578L119.038 110.618C119.068 110.679 119.093 110.729 119.116 110.775V110.907L119.372 111.287C119.44 111.389 119.461 111.421 119.482 111.464L119.512 111.449L119.482 111.464C119.532 111.562 119.582 111.641 119.61 111.683L119.635 111.732L119.699 111.823C121.254 114.019 124.764 117.44 127.899 119.708C128.523 120.179 129.236 120.341 129.887 120.341C130.632 120.341 131.291 120.096 131.808 119.755L131.838 119.735L131.867 119.714C134.955 117.458 138.527 114.021 140.064 111.723L140.114 111.647L140.13 111.615C140.147 111.59 140.171 111.552 140.199 111.505L140.368 111.253ZM119.544 111.482C119.545 111.483 119.544 111.482 119.542 111.48L119.544 111.482ZM119.633 111.718C119.633 111.718 119.633 111.717 119.631 111.715C119.633 111.717 119.633 111.718 119.633 111.718ZM140.107 111.65C140.107 111.65 140.107 111.649 140.109 111.647C140.108 111.649 140.107 111.65 140.107 111.65Z" fill="#0082FF" stroke="#333333" stroke-width="3"/>
<defs>
<filter id="filter0_d_382_3091" x="0" y="0" width="260" height="260" filterUnits="userSpaceOnUse" color-interpolation-filters="sRGB">
<feFlood flood-opacity="0" result="BackgroundImageFix"/>
<feColorMatrix in="SourceAlpha" type="matrix" values="0 0 0 0 0 0 0 0 0 0 0 0 0 0 0 0 0 0 127 0" result="hardAlpha"/>
<feOffset dy="20"/>
<feGaussianBlur stdDeviation="15"/>
<feColorMatrix type="matrix" values="0 0 0 0 0 0 0 0 0 0.392974 0 0 0 0 0.770833 0 0 0 0.15 0"/>
<feBlend mode="normal" in2="BackgroundImageFix" result="effect1_dropShadow_382_3091"/>
<feBlend mode="normal" in="SourceGraphic" in2="effect1_dropShadow_382_3091" result="shape"/>
</filter>
</defs>
</svg>
