<svg width="150" height="150" viewBox="0 0 150 150" fill="none" xmlns="http://www.w3.org/2000/svg">
<circle cx="75" cy="75" r="72.5" fill="#EFF6FE" stroke="white" stroke-width="5"/>
<g clip-path="url(#clip0_382_3301)">
<path d="M100.716 115.629C100.175 114.697 98.9799 114.379 98.0463 114.92L97.9711 114.963C97.0383 115.505 96.7209 116.7 97.2619 117.633C97.6242 118.257 98.2795 118.606 98.953 118.606C99.2854 118.606 99.6229 118.521 99.9313 118.342L100.006 118.298C100.939 117.757 101.257 116.562 100.716 115.629Z" fill="url(#paint0_linear_382_3301)"/>
<path d="M118.3 50.0154C111.624 38.452 100.844 30.1807 87.947 26.7248C75.0501 23.269 61.579 25.0426 50.0155 31.7186C38.4522 38.3945 30.1808 49.1742 26.7251 62.0713C23.2694 74.9684 25.0429 88.4397 31.7188 100.003C37.7073 110.375 47.2253 118.258 58.5194 122.199C63.8731 124.067 69.462 125 75.0423 125C81.1097 125 87.1661 123.897 92.8909 121.697C93.8978 121.31 94.4001 120.18 94.013 119.173C93.6259 118.166 92.4958 117.663 91.4894 118.051C76.2511 123.908 59.7546 121.247 47.4298 111.996L49.1796 102.862L50.0228 102.588C53.2089 101.553 54.9589 98.1184 53.9241 94.932L53.3054 93.0279C53.1622 92.5873 53.163 92.1215 53.3073 91.6813C53.8501 90.0266 53.6562 88.2162 52.7751 86.7139C51.894 85.2117 50.4087 84.1584 48.6995 83.8242L44.2913 82.9629L35.7858 76.4961C35.2763 76.1086 34.6093 75.9955 34.0003 76.1932L29.0206 77.8108C28.9149 76.0297 28.9134 74.2492 29.0138 72.4781C29.2103 72.6611 29.3382 72.7856 29.4169 72.8672C29.5144 73.0295 29.6351 73.1783 29.7765 73.3072C30.1831 73.6776 30.5515 73.8455 31.3249 73.8455C32.0356 73.8453 33.0878 73.7037 34.8251 73.4471C36.4728 73.2035 38.1118 72.9291 38.128 72.9264C38.7849 72.8164 39.3401 72.3789 39.6015 71.7666C39.8628 71.1541 39.7938 70.4508 39.4187 69.9004L37.0239 66.3879L40.454 63.9352C40.6825 63.7717 40.8731 63.561 41.0128 63.3172L46.3298 54.035L48.473 51.7385C50.663 49.3912 51.288 45.957 50.0649 42.9891C49.3435 41.2385 48.0833 39.7811 46.5071 38.7988C48.2142 37.4568 50.0343 36.2178 51.9687 35.1012C59.0659 31.0035 66.8112 29.0178 74.4751 28.9418L70.9876 33.3166L58.055 37.8504C57.5298 38.0344 57.1079 38.434 56.8958 38.9484L53.2841 47.7039C53.0276 48.326 53.1091 49.0358 53.4999 49.5834L58.7749 56.9725C58.0194 57.6617 57.2841 58.6656 56.4058 59.9121C56.0206 60.4588 55.6569 60.975 55.4056 61.2645C55.187 61.5164 54.9683 61.7625 54.7515 62.0063C53.6169 63.2826 52.4439 64.6027 51.6105 66.366C49.778 70.2447 50.1481 74.7529 52.5763 78.1315C54.9241 81.3981 58.7948 83.0586 62.9261 82.5727C63.5991 82.4938 64.2267 82.3385 64.8339 82.1881C66.5083 81.7738 67.0388 81.7324 67.5759 82.2352C67.8372 82.4799 67.8612 82.5262 67.856 83.3561C67.8523 83.8842 67.8482 84.5412 68.0302 85.2914C68.3218 86.4916 69.0755 87.3211 69.681 87.9875C69.9819 88.3186 70.2933 88.6611 70.3892 88.891C70.9983 90.3508 70.7331 91.1592 70.1519 92.9307C70.1021 93.0822 70.0513 93.2369 70.0003 93.3955C69.1173 96.1289 70.3482 98.8402 71.4341 101.232C71.7868 102.009 72.1198 102.742 72.338 103.39C74.0941 108.601 75.4105 109.794 76.4669 110.275C77.0202 110.526 77.5929 110.637 78.1714 110.636C80.9868 110.636 83.9247 108.022 85.2743 106.365C86.122 105.324 86.3308 104.282 86.4831 103.521C86.5591 103.143 86.6189 102.844 86.7329 102.648C86.9075 102.35 87.1132 102.118 87.3736 101.825C87.8972 101.235 88.5489 100.501 88.971 99.1715C89.2917 98.1613 89.5247 97.9137 90.2964 97.0918C90.4308 96.949 90.5739 96.7963 90.7276 96.6291C93.329 93.7984 92.6591 91.6361 91.9495 89.3467C91.3525 87.4203 92.3968 86.1883 94.9218 83.8369C96.0163 82.8176 97.148 81.7637 98.0228 80.4973C98.4056 79.943 99.5702 78.2568 98.8495 76.5856C98.1431 74.9469 96.3476 74.6715 94.905 74.4504C94.3353 74.3629 93.4743 74.2309 93.2003 74.0518C91.9919 73.2617 91.2526 71.6129 90.5376 70.0182C90.3952 69.7008 90.2548 69.3875 90.1124 69.0834C89.8585 68.5408 89.6048 67.8844 89.3362 67.1895C88.6257 65.3504 87.8204 63.2658 86.4495 61.8127C85.2173 60.507 82.8944 59.8781 80.845 59.3231C80.1558 59.1365 79.5052 58.9604 79.0761 58.802C78.7165 58.6692 78.3263 58.6451 77.954 58.7326C76.9566 58.9664 76.3343 59.224 75.8722 59.5943C75.7501 59.6922 75.3886 60.0135 75.1769 60.5299C74.4618 60.1867 73.4786 59.5315 72.8735 59.1281C72.861 59.1197 72.8483 59.1113 72.8358 59.1029C73.0398 58.2869 72.8552 57.632 72.6618 57.2231C71.5708 54.9152 67.9491 55.0959 67.2347 55.1567C66.8288 55.1906 66.3153 55.2088 65.7722 55.2279C64.919 55.2582 63.9761 55.2922 63.0431 55.3969L63.0911 55.2629C63.7993 53.2897 65.6837 51.9639 67.7802 51.9639H68.8905C69.9689 51.9639 70.8435 51.0893 70.8435 50.011C70.8435 48.9326 69.9689 48.058 68.8905 48.058H67.7802C64.6677 48.058 61.8175 49.6961 60.22 52.2744L57.3069 48.1938L60.173 41.2467L72.8103 36.8162C73.1567 36.6947 73.4622 36.4779 73.6913 36.1906L79.3091 29.144C93.6634 30.5094 107.175 38.5574 114.918 51.968C116.98 55.5401 118.506 59.3006 119.52 63.1469L118.692 63.8852C117.611 64.8494 116.978 66.2324 116.954 67.6799C116.954 67.6957 116.953 67.7113 116.953 67.727L115.604 64.0176C115.403 63.4641 115.107 62.9565 114.724 62.509L112.318 59.692C111.385 58.6 110.027 57.974 108.592 57.974H105.646C104.601 57.974 103.645 58.5467 103.152 59.468C102.659 60.3895 102.713 61.5024 103.293 62.3719L103.591 62.8194C101.688 64.4559 99.4866 65.7654 97.1429 66.6486L93.1058 58.9156V57.1904C93.1058 56.6568 92.8874 56.1461 92.5013 55.7779L88.8659 52.3074C88.6653 52.116 88.4263 51.9695 88.1648 51.8776L84.8923 50.7276C83.8741 50.3694 82.7597 50.9051 82.4023 51.9225C82.0446 52.9402 82.5796 54.0549 83.5972 54.4125L86.473 55.4233L89.1999 58.0262V59.3949C89.1999 59.7096 89.2761 60.0197 89.4218 60.2988L94.4759 69.9799C94.9304 70.851 95.962 71.249 96.8827 70.9084L98.3544 70.3658C101.773 69.1049 104.942 67.0766 107.519 64.5004C108.177 63.842 108.279 62.811 107.763 62.0361L107.659 61.8801H108.592C108.883 61.8801 109.159 62.0072 109.349 62.2291L111.755 65.0461C111.832 65.1369 111.892 65.2397 111.933 65.3524L114.588 72.6537C114.817 73.2811 115.349 73.7483 116.001 73.8928C116.141 73.9238 116.283 73.9391 116.424 73.9391C116.936 73.9391 117.434 73.7373 117.804 73.367L119.068 72.1031C119.869 71.3026 120.42 70.2897 120.683 69.1668C122.638 84.8318 116.495 101.037 103.512 111.227C102.663 111.893 102.515 113.12 103.182 113.969C103.847 114.817 105.075 114.965 105.924 114.299C115.297 106.942 121.736 96.4199 124.056 84.6701C126.397 72.807 124.353 60.4994 118.3 50.0154ZM34.2351 80.2238L42.2884 86.3471C42.5265 86.5281 42.8026 86.652 43.096 86.7092L47.9499 87.6576C48.5694 87.7787 49.0862 88.1451 49.4056 88.6897C49.7249 89.234 49.7921 89.8639 49.5956 90.4637C49.1913 91.6967 49.1894 93.0008 49.5903 94.2346L50.2091 96.1385C50.5788 97.2764 49.9534 98.5031 48.8157 98.8729L46.8749 99.5035C46.1978 99.7234 45.6942 100.295 45.5605 100.993L43.9983 109.147C40.5642 106.004 37.5489 102.289 35.1015 98.0502C32.1155 92.8789 30.2499 87.3631 29.4276 81.7857L34.2351 80.2238ZM45.6173 49.0736L43.3198 51.5352C43.2173 51.6451 43.1276 51.7666 43.0528 51.8971L37.8356 61.0057L33.1987 64.3213C32.3351 64.9389 32.1229 66.1328 32.721 67.0102L34.4552 69.5539C33.4556 69.7028 32.5585 69.8254 31.962 69.8904C31.8474 69.7805 31.7274 69.669 31.6034 69.5537C31.1392 69.1225 30.494 68.5465 29.5323 67.7049C31.1185 57.8879 35.8489 48.6395 43.2888 41.5799C44.7134 42.0285 45.8825 43.0912 46.4536 44.4774C47.0962 46.0363 46.7677 47.8406 45.6173 49.0736ZM61.5411 59.7461C62.4122 59.2559 64.4341 59.1842 65.9103 59.1318C66.5019 59.111 67.0608 59.091 67.5601 59.0492C67.8235 59.0272 68.1161 59.0313 68.3921 59.0527C68.2689 59.3692 68.2288 59.7164 68.2823 60.061C68.3763 60.667 68.7499 61.1934 69.2905 61.4826C69.6569 61.6787 70.1669 62.0188 70.7067 62.3787C72.2331 63.3963 73.9634 64.5496 75.5888 64.6531C77.0669 64.749 77.8894 63.9067 78.2417 63.5479C78.2698 63.5193 78.2964 63.4908 78.3245 63.4649C78.523 63.3031 78.7089 63.0863 78.8472 62.8248C79.1595 62.9141 79.4876 63.0029 79.8239 63.0942C80.9804 63.4072 83.1329 63.9901 83.6085 64.494C84.4532 65.3895 85.1116 67.094 85.6927 68.5977C85.9862 69.3576 86.2636 70.0748 86.5747 70.7399C86.7083 71.0252 86.8398 71.3192 86.9734 71.6168C87.8745 73.627 88.896 75.9055 91.063 77.3219C92.0456 77.9643 93.2501 78.1488 94.313 78.3119C94.4415 78.3316 94.5888 78.3543 94.7384 78.3789C94.1075 79.259 93.2093 80.0953 92.2603 80.9791C89.8425 83.2307 86.8335 86.033 88.2192 90.5035C88.8734 92.6145 88.9038 92.8426 87.8521 93.9867C87.7087 94.1428 87.5751 94.285 87.4499 94.4182C86.5491 95.3772 85.8376 96.1346 85.2486 97.99C85.0775 98.5289 84.8558 98.7785 84.4532 99.2317C84.1314 99.5941 83.7304 100.046 83.3607 100.679C82.9177 101.437 82.7712 102.167 82.6538 102.753C82.538 103.33 82.4724 103.62 82.2458 103.898C81.73 104.531 80.7679 105.451 79.7802 106.079C78.8622 106.661 78.3263 106.741 78.1437 106.73C77.9353 106.507 77.1804 105.528 76.0398 102.143C75.7585 101.308 75.3683 100.448 74.9909 99.6174C74.1591 97.7854 73.2991 95.8908 73.7175 94.5961C73.7669 94.4434 73.8157 94.2942 73.8638 94.1483C74.5321 92.1111 75.163 90.1875 73.9942 87.3867C73.6384 86.5338 73.0718 85.9106 72.5724 85.3606C72.2491 85.0049 71.8829 84.6018 71.8265 84.3697C71.7577 84.0867 71.7599 83.76 71.7624 83.3817C71.7691 82.3611 71.7792 80.8191 70.2462 79.3836C68.0849 77.3606 65.5646 77.9838 63.8966 78.3963C63.3843 78.5229 62.9003 78.6428 62.4714 78.6932C59.7276 79.0147 57.278 77.9795 55.7487 75.8514C54.1489 73.6254 53.9167 70.6299 55.1429 68.0342C55.7364 66.7781 56.6331 65.769 57.6714 64.601C57.8981 64.3457 58.1271 64.0883 58.356 63.8246C58.7368 63.3856 59.156 62.791 59.5991 62.1615C60.1282 61.4106 61.1134 60.0121 61.5411 59.7461Z" fill="url(#paint1_linear_382_3301)"/>
<path d="M105.082 92.2415L104.143 88.6997C103.938 87.9263 103.281 87.3563 102.487 87.2614C101.692 87.1685 100.92 87.5661 100.538 88.2694C100.324 88.664 100.132 89.0819 99.9453 89.486C99.6319 90.1659 99.3076 90.869 98.9703 91.2571C98.7809 91.4751 98.2942 91.7101 97.8238 91.937C96.6994 92.4796 95.1594 93.2227 94.5711 95.0981C94.2059 96.2614 94.3422 97.1817 94.4418 97.8536C94.5279 98.4362 94.5479 98.6382 94.3918 99.0046L94.3723 99.0501C93.7506 100.509 92.594 103.225 94.2158 105.533C95.3731 107.181 96.5899 107.605 97.5354 107.605C97.7199 107.605 97.8945 107.589 98.0561 107.563C100.048 107.237 101.546 105.165 102.77 101.041L105.067 93.2983C105.169 92.954 105.175 92.5884 105.082 92.2415ZM99.0254 99.9296C98.4016 102.032 97.8496 103.014 97.5311 103.449C97.4944 103.402 97.4545 103.349 97.4119 103.288C97.0387 102.757 97.5965 101.447 97.9656 100.581L97.9854 100.535C98.5807 99.1378 98.4215 98.0647 98.3057 97.2811C98.2313 96.7794 98.2047 96.5638 98.2979 96.2675C98.3744 96.0239 98.832 95.7876 99.5215 95.4548C99.8272 95.3071 100.164 95.1448 100.503 94.9483L99.0254 99.9296Z" fill="url(#paint2_linear_382_3301)"/>
<path d="M77.7402 48.215L77.6084 48.1689C76.5914 47.8127 75.4761 48.3476 75.1191 49.3654C74.7621 50.3834 75.2978 51.4976 76.3156 51.8547L76.4472 51.9007C76.6611 51.9757 76.8791 52.0113 77.0937 52.0113C77.9 52.0113 78.6547 51.508 78.9367 50.7043C79.2937 49.6863 78.758 48.5718 77.7402 48.215Z" fill="url(#paint3_linear_382_3301)"/>
</g>
<defs>
<linearGradient id="paint0_linear_382_3301" x1="99.7491" y1="117.687" x2="95.8007" y2="114.13" gradientUnits="userSpaceOnUse">
<stop stop-color="#0082FF"/>
<stop offset="1" stop-color="#00D1FF"/>
</linearGradient>
<linearGradient id="paint1_linear_382_3301" x1="94.0953" y1="101.728" x2="-5.78129" y2="12.4686" gradientUnits="userSpaceOnUse">
<stop stop-color="#0082FF"/>
<stop offset="1" stop-color="#00D1FF"/>
</linearGradient>
<linearGradient id="paint2_linear_382_3301" x1="101.514" y1="102.867" x2="84.8339" y2="94.2566" gradientUnits="userSpaceOnUse">
<stop stop-color="#0082FF"/>
<stop offset="1" stop-color="#00D1FF"/>
</linearGradient>
<linearGradient id="paint3_linear_382_3301" x1="77.7991" y1="51.0914" x2="73.8426" y2="47.4785" gradientUnits="userSpaceOnUse">
<stop stop-color="#0082FF"/>
<stop offset="1" stop-color="#00D1FF"/>
</linearGradient>
<clipPath id="clip0_382_3301">
<rect width="100" height="100" fill="white" transform="translate(25 25)"/>
</clipPath>
</defs>
</svg>
