<svg width="260" height="260" viewBox="0 0 260 260" fill="none" xmlns="http://www.w3.org/2000/svg">
<g filter="url(#filter0_d_382_3177)">
<circle cx="130" cy="110" r="100" fill="#EFF6FE"/>
</g>
<path d="M142.5 132.877L87.5948 158.497L82.4901 153.381L108.248 98.3508C108.832 97.1208 110.469 96.8281 111.423 97.8048L143.065 129.694C144.039 130.67 143.747 132.291 142.5 132.877Z" fill="#DD3232"/>
<path d="M143.065 129.693L140.844 127.447C140.707 127.974 140.337 128.462 139.772 128.716L84.4774 155.372L87.5948 158.496L142.5 132.856C143.747 132.29 144.039 130.669 143.065 129.693Z" fill="#DD3232"/>
<path d="M106.669 101.71L139.266 134.38L142.5 132.877C143.727 132.291 144.02 130.67 143.065 129.694L111.423 97.8048C110.469 96.8281 108.832 97.1208 108.248 98.3508L106.669 101.71Z" fill="#FFD130"/>
<path d="M143.065 129.693L140.843 127.447C140.707 127.974 140.337 128.462 139.772 128.716L135.641 130.708L139.265 134.36L142.5 132.856C143.747 132.29 144.039 130.669 143.065 129.693Z" fill="#DD3232"/>
<path d="M92.9141 156.016L101.565 151.973V112.605L92.9141 131.098V156.016Z" fill="#FFD130"/>
<path d="M92.9141 156.015L101.565 151.973V147.15L92.9141 151.309V156.015Z" fill="#DD3232"/>
<path d="M110.82 105.85V147.659L119.47 143.617V114.54L110.82 105.85Z" fill="#FFD130"/>
<path d="M119.47 138.52L110.82 142.679V147.659L113.333 146.487L119.47 143.616V138.52Z" fill="#DD3232"/>
<path d="M151.735 61.4824L156.645 65.3294L154.638 73.2577L147.546 69.3131L151.735 61.4824Z" fill="#DD3232"/>
<path d="M159.412 112.723L164.322 116.57L162.315 124.499L155.223 120.554L159.412 112.723Z" fill="#FFD130"/>
<path d="M116.392 69.4875L120.23 64.5664L128.14 66.5778L124.205 73.686L116.392 69.4875Z" fill="#DD3232"/>
<path d="M120.756 95.3034C122.768 95.3034 124.399 93.6685 124.399 91.6517C124.399 89.6349 122.768 88 120.756 88C118.744 88 117.113 89.6349 117.113 91.6517C117.113 93.6685 118.744 95.3034 120.756 95.3034Z" fill="#FFD130"/>
<path d="M174.453 81.7136C176.465 81.7136 178.096 80.0787 178.096 78.0619C178.096 76.0451 176.465 74.4102 174.453 74.4102C172.441 74.4102 170.809 76.0451 170.809 78.0619C170.809 80.0787 172.441 81.7136 174.453 81.7136Z" fill="#DD3232"/>
<path d="M141.194 125.69C140.629 125.105 139.694 125.105 139.11 125.69C138.525 126.257 138.525 127.194 139.11 127.78L142.032 130.729C142.188 130.885 142.188 131.061 142.169 131.158C142.149 131.256 142.091 131.432 141.896 131.51L139.597 132.584L120.522 113.466L111.872 104.796L108.442 101.398L109.573 98.9758C109.67 98.7808 109.845 98.7218 109.943 98.7028C110.04 98.6828 110.215 98.6828 110.371 98.8398L134.94 123.66C135.505 124.245 136.44 124.245 137.025 123.66C137.609 123.093 137.609 122.156 137.025 121.57L112.476 96.75C111.677 95.9493 110.547 95.5978 109.436 95.7931C108.326 95.9884 107.39 96.7109 106.903 97.7268L105.325 101.085C105.306 101.105 105.306 101.144 105.286 101.163C105.267 101.203 105.247 101.242 105.228 101.281L100.22 111.982L91.5696 130.475L81.1458 152.756C80.873 153.322 80.9899 153.986 81.4381 154.435L86.5623 159.571C86.8545 159.864 87.2247 160.001 87.6144 160.001C87.8287 160.001 88.043 159.962 88.2379 159.864L93.5569 157.384L100.084 154.318L139.382 135.962C139.48 135.923 139.558 135.864 139.636 135.806C139.733 135.786 139.811 135.747 139.909 135.708L143.143 134.205C144.156 133.736 144.877 132.779 145.072 131.686C145.267 130.572 144.916 129.44 144.117 128.639L141.194 125.69ZM112.281 109.424L117.989 115.145V142.68L112.281 145.336V109.424ZM120.951 118.094L136.752 133.931L120.951 141.313V118.094ZM109.339 106.475V146.722L103.045 149.671V133.072C103.045 132.252 102.383 131.588 101.565 131.588C100.746 131.588 100.084 132.252 100.084 133.072V151.038L94.3752 153.693V131.432L100.084 119.246V126.354C100.084 127.175 100.746 127.839 101.565 127.839C102.383 127.839 103.045 127.175 103.045 126.354V112.939L107.118 104.229L109.339 106.475ZM87.9066 156.72L84.2632 153.069L91.4332 137.739V155.08L87.9066 156.72Z" fill="#333333"/>
<path d="M164.925 86.9453C162.295 86.9453 159.84 87.9608 157.989 89.8355L142.052 105.809C141.467 106.395 141.467 107.332 142.052 107.899C142.344 108.192 142.714 108.328 143.104 108.328C143.493 108.328 143.864 108.192 144.156 107.899L160.094 91.9249C162.782 89.2301 167.127 89.2301 169.816 91.9249C172.505 94.6198 172.505 98.9741 169.816 101.669C169.231 102.255 169.231 103.192 169.816 103.759C170.4 104.345 171.336 104.345 171.901 103.759C173.752 101.904 174.784 99.4241 174.784 96.8069C174.784 94.1902 173.771 91.7101 171.901 89.855C170.011 87.9608 167.536 86.9453 164.925 86.9453Z" fill="#333333"/>
<path d="M129.758 84.7198C130.342 85.3057 131.277 85.3057 131.842 84.7198C134.278 82.2788 138.233 82.2788 140.649 84.7198C141.818 85.8915 142.481 87.4732 142.481 89.1331C142.481 90.793 141.838 92.3747 140.649 93.5464L128.55 105.674C127.965 106.259 127.965 107.197 128.55 107.763C128.842 108.056 129.212 108.193 129.602 108.193C129.972 108.193 130.362 108.056 130.654 107.763L142.773 95.6164C144.507 93.8784 145.462 91.5741 145.462 89.1136C145.462 86.6531 144.507 84.3488 142.773 82.6108C139.188 79.0177 133.362 79.0177 129.797 82.6108C129.173 83.1966 129.173 84.134 129.758 84.7198Z" fill="#333333"/>
<path d="M146.845 70.6015L153.937 74.5461C154.151 74.6633 154.404 74.7414 154.658 74.7414C154.852 74.7414 155.047 74.7024 155.242 74.6242C155.671 74.4485 155.983 74.0775 156.08 73.6283L158.106 65.7C158.243 65.1337 158.048 64.5283 157.58 64.1768L152.651 60.3103C152.3 60.0369 151.871 59.9393 151.443 60.0369C151.014 60.1346 150.644 60.408 150.449 60.779L146.26 68.6097C145.87 69.3322 146.143 70.2109 146.845 70.6015ZM152.203 63.7277L154.969 65.8953L153.683 71.0311L149.553 68.7268L152.203 63.7277Z" fill="#333333"/>
<path d="M165.237 115.397L160.308 111.55C159.957 111.277 159.529 111.179 159.1 111.277C158.671 111.375 158.301 111.648 158.106 112.019L153.917 119.85C153.547 120.553 153.8 121.451 154.502 121.842L161.594 125.786C161.808 125.903 162.061 125.982 162.315 125.982C162.51 125.982 162.704 125.943 162.899 125.864C163.328 125.689 163.64 125.318 163.737 124.868L165.763 116.94C165.9 116.354 165.705 115.749 165.237 115.397ZM161.36 122.271L157.23 119.967L159.899 114.968L162.665 117.135L161.36 122.271Z" fill="#333333"/>
<path d="M115.69 70.7972L123.503 74.9957C123.718 75.1129 123.971 75.1715 124.205 75.1715C124.731 75.1715 125.218 74.8981 125.491 74.4099L129.426 67.3213C129.641 66.9112 129.68 66.4425 129.485 66.0129C129.309 65.5833 128.939 65.2709 128.491 65.1732L120.581 63.1228C120.016 62.9861 119.412 63.1814 119.061 63.65L115.223 68.5711C114.95 68.9226 114.853 69.3522 114.95 69.7818C115.028 70.2114 115.301 70.5824 115.69 70.7972ZM120.795 66.2277L125.919 67.5361L123.62 71.676L118.632 69.0007L120.795 66.2277Z" fill="#333333"/>
<path d="M120.756 86.5352C117.931 86.5352 115.632 88.8395 115.632 91.6711C115.632 94.5026 117.931 96.8069 120.756 96.8069C123.581 96.8069 125.88 94.5026 125.88 91.6711C125.88 88.8395 123.562 86.5352 120.756 86.5352ZM120.756 93.8191C119.568 93.8191 118.593 92.8427 118.593 91.6515C118.593 90.4603 119.568 89.4839 120.756 89.4839C121.945 89.4839 122.919 90.4603 122.919 91.6515C122.919 92.8427 121.945 93.8191 120.756 93.8191Z" fill="#333333"/>
<path d="M137.181 73.7063C138.375 73.7063 139.344 72.7359 139.344 71.5387C139.344 70.3416 138.375 69.3711 137.181 69.3711C135.986 69.3711 135.018 70.3416 135.018 71.5387C135.018 72.7359 135.986 73.7063 137.181 73.7063Z" fill="#333333"/>
<path d="M162.958 81.7903C164.152 81.7903 165.12 80.8198 165.12 79.6227C165.12 78.4256 164.152 77.4551 162.958 77.4551C161.763 77.4551 160.795 78.4256 160.795 79.6227C160.795 80.8198 161.763 81.7903 162.958 81.7903Z" fill="#333333"/>
<path d="M146.728 123.015C147.922 123.015 148.89 122.045 148.89 120.848C148.89 119.65 147.922 118.68 146.728 118.68C145.533 118.68 144.565 119.65 144.565 120.848C144.565 122.045 145.533 123.015 146.728 123.015Z" fill="#333333"/>
<path d="M174.453 72.9258C171.628 72.9258 169.329 75.2301 169.329 78.0616C169.329 80.8932 171.628 83.1974 174.453 83.1974C177.278 83.1974 179.577 80.8932 179.577 78.0616C179.577 75.2301 177.278 72.9258 174.453 72.9258ZM174.453 80.2292C173.264 80.2292 172.29 79.2528 172.29 78.0616C172.29 76.8704 173.264 75.894 174.453 75.894C175.641 75.894 176.616 76.8704 176.616 78.0616C176.616 79.2528 175.641 80.2292 174.453 80.2292Z" fill="#333333"/>
<path d="M150.449 81.4001V86.1453C150.449 86.9655 151.112 87.6295 151.93 87.6295C152.748 87.6295 153.411 86.9655 153.411 86.1453V81.4001C153.411 80.5799 152.748 79.916 151.93 79.916C151.112 79.916 150.449 80.5799 150.449 81.4001Z" fill="#333333"/>
<path d="M132.914 94.8741L135.466 92.316C136.051 91.7301 136.051 90.7928 135.466 90.2265C134.882 89.6407 133.946 89.6407 133.381 90.2265L130.829 92.7846C130.244 93.3705 130.244 94.3078 130.829 94.8741C131.121 95.167 131.491 95.3037 131.881 95.3037C132.251 95.3037 132.622 95.167 132.914 94.8741Z" fill="#333333"/>
<path d="M160.99 105.947C161.808 105.947 162.471 105.283 162.471 104.463C162.471 103.643 161.808 102.979 160.99 102.979H156.275C155.457 102.979 154.794 103.643 154.794 104.463C154.794 105.283 155.457 105.947 156.275 105.947H160.99Z" fill="#333333"/>
<defs>
<filter id="filter0_d_382_3177" x="0" y="0" width="260" height="260" filterUnits="userSpaceOnUse" color-interpolation-filters="sRGB">
<feFlood flood-opacity="0" result="BackgroundImageFix"/>
<feColorMatrix in="SourceAlpha" type="matrix" values="0 0 0 0 0 0 0 0 0 0 0 0 0 0 0 0 0 0 127 0" result="hardAlpha"/>
<feOffset dy="20"/>
<feGaussianBlur stdDeviation="15"/>
<feColorMatrix type="matrix" values="0 0 0 0 0 0 0 0 0 0.392974 0 0 0 0 0.770833 0 0 0 0.15 0"/>
<feBlend mode="normal" in2="BackgroundImageFix" result="effect1_dropShadow_382_3177"/>
<feBlend mode="normal" in="SourceGraphic" in2="effect1_dropShadow_382_3177" result="shape"/>
</filter>
</defs>
</svg>
