<svg width="260" height="260" viewBox="0 0 260 260" fill="none" xmlns="http://www.w3.org/2000/svg">
<g filter="url(#filter0_d_382_3118)">
<circle cx="130" cy="110" r="100" fill="#EFF6FE"/>
</g>
<path d="M161.702 107.786L159.162 87.1382L154.396 87.7242L145.157 82.5282C144.18 81.9813 143.047 81.7273 141.914 81.8445L127.342 83.1924C125.545 83.3486 123.943 84.3839 123.044 85.9271L112.77 103.605C112.008 104.914 112.613 106.594 114.02 107.121L114.45 107.278C115.25 107.59 116.09 107.766 116.911 107.825L115.602 108.958L113.024 111.243L105.62 117.552C104.311 118.705 104.175 120.697 105.308 122.026L106.05 122.885C107.535 124.585 110.093 124.76 111.793 123.276L114.625 126.518C115.543 127.573 116.891 128.042 118.18 127.886C118.962 127.788 119.724 127.476 120.349 126.909L123.181 130.152C124.099 131.207 125.447 131.675 126.756 131.519C127.537 131.421 128.299 131.109 128.924 130.542L130.467 131.871C131.952 133.57 134.511 133.746 136.21 132.261L138.3 130.445L155.861 116.771L155.881 116.752H162.815L161.702 107.786Z" fill="#F29F5C"/>
<path d="M154.162 111.438L136.581 125.132L134.491 126.948C132.792 128.433 130.233 128.257 128.748 126.558L127.205 125.229C126.58 125.776 125.818 126.108 125.037 126.206C123.747 126.362 122.4 125.893 121.462 124.839L118.649 121.596C118.024 122.143 117.262 122.475 116.481 122.573C115.192 122.729 113.844 122.26 112.926 121.205L110.093 117.963C108.648 119.232 106.558 119.271 105.053 118.197C104.292 119.35 104.35 120.932 105.307 122.026L106.05 122.885C107.534 124.585 110.093 124.76 111.793 123.276L114.625 126.518C115.543 127.573 116.891 128.042 118.18 127.886C118.962 127.788 119.723 127.476 120.348 126.909L123.181 130.152C124.099 131.207 125.447 131.675 126.756 131.519C127.537 131.421 128.299 131.109 128.924 130.542L130.467 131.871C131.952 133.57 134.51 133.746 136.21 132.261L138.3 130.445L155.861 116.771L155.881 116.752H162.815L162.053 110.52L154.162 111.438Z" fill="#D37D42"/>
<path d="M157.365 120.365L147.95 112.259L145.332 110.012L143.457 108.391L135.409 101.456L136.347 93.5447C136.659 90.8686 134.979 88.3683 132.381 87.6455L114.84 82.7816C112.984 82.2737 111.031 83.1332 110.152 84.8522L107.945 89.1496L98.4707 88.505L96.0289 109.153L94.9741 118.119L104.194 118.724L104.214 118.744L123.474 135.348L125.564 137.164C127.264 138.629 129.842 138.434 131.307 136.735L134.12 133.472C134.765 134.019 135.526 134.332 136.288 134.43C137.577 134.586 138.925 134.117 139.843 133.043L142.656 129.78C143.301 130.327 144.063 130.659 144.824 130.738C146.114 130.894 147.462 130.406 148.38 129.351L151.192 126.089C152.892 127.554 155.47 127.358 156.935 125.659L157.678 124.799C158.83 123.51 158.693 121.518 157.365 120.365Z" fill="#F9C295"/>
<path d="M157.365 120.363L154.494 117.902C155.431 119.132 155.412 120.89 154.357 122.121L153.556 123.039C151.993 124.836 149.278 125.051 147.462 123.488L144.473 126.946C143.496 128.079 142.07 128.587 140.703 128.411C139.882 128.313 139.062 127.981 138.398 127.395L135.409 130.853C134.432 131.986 133.007 132.474 131.639 132.318C130.819 132.22 129.998 131.888 129.334 131.302L126.345 134.759C125.779 135.404 125.076 135.853 124.294 136.088L125.564 137.182C127.264 138.647 129.842 138.451 131.307 136.752L134.12 133.49C134.765 134.037 135.526 134.349 136.288 134.447C137.577 134.603 138.925 134.134 139.843 133.06L142.656 129.798C143.301 130.345 144.063 130.677 144.824 130.755C146.114 130.911 147.462 130.423 148.38 129.368L151.193 126.106C152.892 127.571 155.47 127.376 156.935 125.676L157.678 124.817C158.83 123.508 158.693 121.515 157.365 120.363Z" fill="#E59F6A"/>
<path d="M104.682 118.724L103.569 120.189C102.358 121.791 102.67 124.077 104.272 125.288C105.874 126.499 108.159 126.186 109.37 124.584L110.484 123.119C111.695 121.518 111.382 119.232 109.781 118.021C108.179 116.81 105.893 117.122 104.682 118.724Z" fill="#F29F5C"/>
<path d="M111.48 121.829L109.371 124.603C108.159 126.205 108.472 128.49 110.074 129.701C111.676 130.912 113.961 130.6 115.172 128.998L117.282 126.224C118.493 124.622 118.18 122.337 116.579 121.126C114.977 119.915 112.691 120.227 111.48 121.829Z" fill="#F29F5C"/>
<path d="M118.043 125.228L115.172 129.017C113.961 130.619 114.273 132.905 115.875 134.116C117.477 135.327 119.762 135.014 120.974 133.413L123.845 129.623C125.056 128.021 124.744 125.736 123.142 124.525C121.56 123.294 119.274 123.626 118.043 125.228Z" fill="#F29F5C"/>
<path d="M124.021 129.408L120.993 133.413C119.782 135.014 120.095 137.3 121.697 138.511C123.298 139.722 125.584 139.41 126.795 137.808L129.823 133.803C131.034 132.202 130.721 129.916 129.119 128.705C127.537 127.474 125.252 127.806 124.021 129.408Z" fill="#F29F5C"/>
<path d="M154.396 87.7242L145.156 82.5282C144.18 81.9813 143.047 81.7273 141.914 81.8445L127.342 83.1924C125.544 83.3486 123.943 84.3839 123.044 85.9271L112.769 103.605C112.007 104.914 112.613 106.594 114.019 107.121L114.449 107.278C118.219 108.704 122.458 107.493 124.919 104.289L128.846 99.1709C128.846 99.1709 138.3 110.13 148.712 97.3349" fill="#F29F5C"/>
<path d="M173.715 80.4766L178.54 119.7L167.249 121.087C165.12 121.341 163.166 119.837 162.912 117.708L159.045 86.2C158.791 84.0708 160.295 82.1174 162.424 81.8635L173.715 80.4766Z" fill="#0082FF"/>
<path d="M167.054 116.653C164.866 116.926 162.854 115.481 162.365 113.371L162.893 117.708C163.147 119.837 165.1 121.36 167.229 121.087L178.52 119.7L177.973 115.324L167.054 116.653Z" fill="#3580D3"/>
<path d="M86.2814 80.4766L81.4565 119.7L92.7471 121.087C94.8763 121.341 96.8297 119.837 97.0836 117.708L100.951 86.2196C101.205 84.0904 99.7011 82.137 97.5719 81.8831L86.2814 80.4766Z" fill="#DD3232"/>
<path d="M93.001 116.555L82.0035 115.207L81.4565 119.7L92.7471 121.087C94.8763 121.341 96.8297 119.837 97.0836 117.708L97.4938 114.387C96.5953 115.871 94.8567 116.79 93.001 116.555Z" fill="#DD3232"/>
<path d="M170.629 116.066C172.193 116.066 173.461 114.798 173.461 113.234C173.461 111.67 172.193 110.402 170.629 110.402C169.064 110.402 167.796 111.67 167.796 113.234C167.796 114.798 169.064 116.066 170.629 116.066Z" fill="#EBEEF2"/>
<path d="M89.2115 116.067C90.7757 116.067 92.0439 114.799 92.0439 113.234C92.0439 111.67 90.7757 110.402 89.2115 110.402C87.6472 110.402 86.3792 111.67 86.3792 113.234C86.3792 114.799 87.6472 116.067 89.2115 116.067Z" fill="#EBEEF2"/>
<path d="M130.018 127.533C128.826 126.634 127.361 126.322 125.994 126.595C125.779 125.306 125.095 124.153 124.04 123.352C122.946 122.532 121.618 122.18 120.251 122.356C119.919 122.395 119.586 122.473 119.274 122.591C118.981 121.575 118.356 120.637 117.457 119.954C115.953 118.821 114.039 118.645 112.418 119.309C112.086 118.332 111.48 117.492 110.66 116.848C109.566 116.027 108.218 115.676 106.87 115.851C105.776 116.008 104.78 116.496 103.999 117.258L98.6462 116.906L101.928 90.2038L107.808 90.5945C107.847 90.5945 107.866 90.5945 107.905 90.5945C108.452 90.5945 108.96 90.2819 109.214 89.7936L111.421 85.4961C111.988 84.4023 113.238 83.8553 114.43 84.1874L117.711 85.0859C118.493 85.3008 119.293 84.8515 119.508 84.0702C119.723 83.2888 119.274 82.4879 118.493 82.2731L115.211 81.3745C112.691 80.6713 110.015 81.8629 108.823 84.1874L107.065 87.6449L102.299 87.3128L102.416 86.3947C102.768 83.4646 100.678 80.7885 97.7477 80.4174L86.4571 79.0305C85.6562 78.9328 84.9139 79.4993 84.8163 80.3002C84.7186 81.101 85.2851 81.8433 86.086 81.941L97.3765 83.3279C98.0211 83.406 98.5876 83.7381 98.9978 84.246C99.408 84.7539 99.5643 85.3985 99.4862 86.0431L95.638 117.512C95.4817 118.84 94.2511 119.778 92.9423 119.621L81.6518 118.235C80.8509 118.137 80.1086 118.703 80.0109 119.504C79.9133 120.305 80.4798 121.047 81.2806 121.145L92.5712 122.532C92.7861 122.552 93.0205 122.571 93.2353 122.571C95.2083 122.571 97.0054 121.477 97.9235 119.797L101.928 120.071C101.44 121.008 101.264 122.044 101.401 123.098C101.596 124.446 102.299 125.657 103.373 126.478C104.272 127.161 105.346 127.513 106.44 127.513C106.675 127.513 106.909 127.494 107.143 127.455C107.163 127.455 107.183 127.455 107.183 127.455C107.183 127.474 107.183 127.494 107.183 127.494C107.378 128.841 108.081 130.052 109.155 130.873C110.074 131.576 111.167 131.908 112.242 131.908C112.496 131.908 112.75 131.889 113.004 131.85C113.179 133.158 113.844 134.409 114.977 135.268C115.895 135.971 116.989 136.303 118.063 136.303C118.317 136.303 118.571 136.284 118.805 136.245C118.805 136.264 118.805 136.284 118.805 136.303C119 137.651 119.704 138.862 120.778 139.683C121.677 140.366 122.751 140.718 123.845 140.718C124.079 140.718 124.314 140.698 124.548 140.659C125.896 140.464 127.107 139.78 127.927 138.686L130.955 134.682C132.713 132.436 132.264 129.232 130.018 127.533ZM106.772 124.563C106.186 124.642 105.62 124.485 105.151 124.134C104.682 123.782 104.389 123.274 104.311 122.688C104.233 122.102 104.389 121.536 104.741 121.067L105.854 119.602C106.206 119.133 106.714 118.84 107.3 118.762C107.886 118.684 108.452 118.84 108.921 119.192C109.39 119.543 109.683 120.051 109.761 120.637C109.839 121.223 109.683 121.79 109.331 122.259L108.218 123.724C107.847 124.173 107.339 124.485 106.772 124.563ZM110.972 128.548C110.503 128.197 110.21 127.689 110.132 127.103C110.054 126.517 110.21 125.95 110.562 125.482L111.675 124.017L112.652 122.708C113.082 122.141 113.726 121.848 114.391 121.848C114.84 121.848 115.309 121.985 115.699 122.298C116.656 123.02 116.852 124.388 116.129 125.345L114.019 128.119C113.297 129.076 111.929 129.271 110.972 128.548ZM116.774 132.944C116.305 132.592 116.012 132.084 115.934 131.498C115.856 130.912 116.012 130.346 116.363 129.877L118.473 127.103L119.235 126.087C119.586 125.618 120.094 125.325 120.68 125.247C121.266 125.169 121.833 125.325 122.302 125.677C123.259 126.4 123.454 127.767 122.731 128.724L119.86 132.514C119.098 133.471 117.731 133.666 116.774 132.944ZM128.67 132.924L125.642 136.928C125.29 137.397 124.782 137.69 124.196 137.768C123.61 137.846 123.044 137.69 122.575 137.339C122.106 136.987 121.813 136.479 121.735 135.893C121.657 135.307 121.813 134.741 122.165 134.272L125.036 130.482L125.193 130.267C125.544 129.799 126.052 129.506 126.638 129.427C127.224 129.349 127.791 129.506 128.259 129.857C129.217 130.599 129.392 131.967 128.67 132.924Z" fill="#333333"/>
<path d="M179.985 119.505C179.887 118.704 179.165 118.137 178.344 118.235L167.054 119.622C165.725 119.778 164.514 118.84 164.338 117.512L164.221 116.574L164.202 116.36L160.49 86.0236C160.412 85.379 160.588 84.7539 160.979 84.2265C161.369 83.7186 161.955 83.3865 162.6 83.3084L173.891 81.9215C174.691 81.8238 175.258 81.1011 175.16 80.2806C175.063 79.4798 174.34 78.9133 173.519 79.0109L162.229 80.3979C159.475 80.7299 157.463 83.1326 157.521 85.8478L154.669 86.1994L145.859 81.2378C144.609 80.5346 143.203 80.2416 141.777 80.3588L139.12 80.6127C138.319 80.6909 137.714 81.3941 137.792 82.2145C137.87 83.0154 138.573 83.6209 139.394 83.5428L142.05 83.2889C142.89 83.2107 143.711 83.3865 144.434 83.7967L153.575 88.9341C153.868 89.1295 154.2 89.2076 154.552 89.1685L157.853 88.7583L160.275 108.448L161.115 115.266H155.841C155.49 115.266 155.158 115.383 154.884 115.617L154.474 115.93L141.23 104.522C144.258 103.643 147.149 101.553 149.844 98.232C150.352 97.607 150.255 96.6891 149.63 96.1616C149.004 95.6538 148.086 95.7514 147.559 96.3765C144.551 100.068 141.367 101.983 138.144 102.041C133.436 102.139 129.959 98.213 129.939 98.193C129.646 97.861 129.236 97.685 128.787 97.685C128.338 97.705 127.927 97.9 127.673 98.252L123.747 103.37C121.677 106.065 118.141 107.081 114.957 105.87L114.527 105.714C114.156 105.577 114 105.284 113.961 105.128C113.922 104.971 113.844 104.659 114.039 104.307L124.314 86.6291C124.978 85.4766 126.169 84.7344 127.478 84.6172L133.553 84.0507C134.354 83.9725 134.96 83.2693 134.881 82.4489C134.803 81.648 134.1 81.0425 133.28 81.1206L127.205 81.6871C124.939 81.902 122.907 83.1912 121.774 85.1446L111.499 102.823C110.913 103.819 110.816 105.01 111.187 106.104C111.558 107.198 112.418 108.038 113.492 108.448L113.922 108.605C115.152 109.074 116.442 109.308 117.692 109.308C120.915 109.308 124.001 107.843 126.072 105.147L129.002 101.319C130.584 102.666 133.514 104.678 137.265 104.932L156.388 121.419C156.74 121.712 156.935 122.122 156.974 122.571C157.013 123.021 156.857 123.47 156.564 123.802L155.822 124.661C154.884 125.755 153.243 125.873 152.149 124.935C152.091 124.876 152.032 124.837 151.954 124.798L146.992 120.52C146.387 119.993 145.449 120.052 144.922 120.677C144.394 121.282 144.453 122.22 145.078 122.747L149.141 126.283L147.305 128.412C146.738 129.076 145.879 129.408 145.02 129.291C144.512 129.232 144.023 129.018 143.633 128.685L143.613 128.666L138.984 124.701C138.378 124.173 137.44 124.232 136.913 124.857C136.386 125.462 136.444 126.4 137.069 126.927L140.605 129.975L138.749 132.123C138.183 132.788 137.323 133.12 136.464 133.002C135.663 132.905 134.94 133.491 134.842 134.292C134.745 135.093 135.331 135.815 136.132 135.913C136.347 135.933 136.561 135.952 136.776 135.952C138.378 135.952 139.902 135.268 140.976 134.038L142.949 131.733C143.496 131.987 144.062 132.162 144.668 132.221C146.504 132.436 148.301 131.733 149.512 130.346L151.505 128.041C153.693 129.076 156.408 128.588 158.068 126.654L158.81 125.794C159.611 124.857 160.002 123.665 159.924 122.435C159.826 121.204 159.26 120.071 158.322 119.27L157.111 118.235H161.506C161.994 120.774 164.221 122.591 166.761 122.591C166.976 122.591 167.19 122.571 167.425 122.552L178.715 121.165C179.516 121.048 180.102 120.305 179.985 119.505Z" fill="#333333"/>
<path d="M170.628 108.938C168.265 108.938 166.331 110.872 166.331 113.235C166.331 115.599 168.265 117.533 170.628 117.533C172.992 117.533 174.926 115.599 174.926 113.235C174.926 110.872 172.992 108.938 170.628 108.938ZM170.628 114.603C169.867 114.603 169.261 113.997 169.261 113.235C169.261 112.474 169.867 111.868 170.628 111.868C171.39 111.868 171.996 112.474 171.996 113.235C171.996 113.997 171.39 114.603 170.628 114.603Z" fill="#333333"/>
<path d="M93.5089 113.235C93.5089 110.872 91.5751 108.938 89.2115 108.938C86.8479 108.938 84.9141 110.872 84.9141 113.235C84.9141 115.599 86.8479 117.533 89.2115 117.533C91.5751 117.533 93.5089 115.599 93.5089 113.235ZM87.8441 113.235C87.8441 112.474 88.4497 111.868 89.2115 111.868C89.9733 111.868 90.5789 112.474 90.5789 113.235C90.5789 113.997 89.9733 114.603 89.2115 114.603C88.4497 114.603 87.8441 113.978 87.8441 113.235Z" fill="#333333"/>
<defs>
<filter id="filter0_d_382_3118" x="0" y="0" width="260" height="260" filterUnits="userSpaceOnUse" color-interpolation-filters="sRGB">
<feFlood flood-opacity="0" result="BackgroundImageFix"/>
<feColorMatrix in="SourceAlpha" type="matrix" values="0 0 0 0 0 0 0 0 0 0 0 0 0 0 0 0 0 0 127 0" result="hardAlpha"/>
<feOffset dy="20"/>
<feGaussianBlur stdDeviation="15"/>
<feColorMatrix type="matrix" values="0 0 0 0 0 0 0 0 0 0.392974 0 0 0 0 0.770833 0 0 0 0.15 0"/>
<feBlend mode="normal" in2="BackgroundImageFix" result="effect1_dropShadow_382_3118"/>
<feBlend mode="normal" in="SourceGraphic" in2="effect1_dropShadow_382_3118" result="shape"/>
</filter>
</defs>
</svg>
